<svg width="214.9" height="250" xmlns="http://www.w3.org/2000/svg" viewBox="0 0 214.9 250"><g fill="#1688fd"><path d="M99.411 36.408c-1.862 1.84-2.519 2.738-2.717 3.79-.285 1.643-1.862 3.943-3.132 4.578-.942.482-2.081.613-2.541.263-.372-.285-.394-.329-.043-1.205.416-1.029.482-1.774.131-1.774-.46 0-2.366 2.257-3.155 3.746-1.774 3.396-2.87 7.273-3.396 12.136-.438 4.008-1.227 5.849-2.87 6.703-.503.241-.942.416-.986.372-.043-.066.066-.788.241-1.621s.394-2.541.46-3.812l.131-2.3-.723.876c-1.029 1.227-1.884 2.015-3.045 2.803-1.314.898-3.067 2.366-3.067 2.585 0 .241 3.768-2.519 5.038-3.702.569-.503 1.117-.92 1.205-.92.241 0-.043 3.483-.416 5.192-.241 1.095-.241 1.38-.022 1.38.372 0 4.293-1.862 5.586-2.651.569-.35 1.095-.635 1.161-.635s-.022.416-.176.92c-.153.526-.35 1.49-.438 2.147-.219 1.621-2.125 4.447-5.017 7.383-1.227 1.248-2.147 2.257-2.038 2.257.219 0 5.849-5.718 5.849-5.937 0-.263.723.022 1.008.372.592.745-.548 4.951-2.234 8.193-.788 1.533-1.008 2.081-.635 1.643.767-.92 2.147-3.658 2.694-5.367.35-1.073 1.139-4.666 1.139-5.148 0-.043.219-.11.503-.197.263-.066 1.161-.569 1.993-1.117.855-.526 1.555-.942 1.599-.92.022.043-.131.702-.372 1.49-.241.767-.679 2.257-.986 3.308-.307 1.029-.767 2.147-1.008 2.453-.81 1.008-.482 1.227 1.928 1.205 2.848-.043 3.132-.022 3.132.219 0 .131-1.073 1.336-2.388 2.694l-2.366 2.476-.11 2.191c-.087 1.84-.219 2.431-.788 3.658-.372.833-.745 1.49-.855 1.49-.087 0-.46.394-.833.876-.702.986-5.543 4.315-7.404 5.126-2.278.986-3.132 1.117-7.492 1.117-4.732-.022-7.229-.394-9.442-1.402-1.49-.702-1.972-1.248-2.936-3.396-.833-1.862-1.052-3.439-.569-3.834.503-.416.438-.745-.087-.46-.241.131-1.073.438-1.862.679s-1.884.635-2.431.876l-1.008.416 1.424-1.578c1.468-1.643 2.783-3.571 2.783-4.031 0-.285-4.403-3.308-5.52-3.834-.329-.131-.548-.329-.503-.438.131-.176 2.957-1.161 3.045-1.052.022.043.503.723 1.052 1.512.986 1.402 1.928 2.431 1.928 2.081 0-.087-.482-.833-1.095-1.643-1.402-1.906-3.286-5.52-4.14-7.996l-.679-1.972.942 1.095c1.687 2.015 3.352 3.505 4.885 4.381.833.482 1.84 1.161 2.234 1.512.833.745 1.029.635 1.008-.526l-.022-.855.81 1.248c.46.679 1.139 1.599 1.512 2.015.416.46.285.197-.329-.657-.569-.788-1.292-1.993-1.621-2.694-.702-1.446-.964-1.336-.745.285.153 1.117-.043 1.402-.569.767-.131-.153-.767-.592-1.402-.942l-1.139-.657-.92-2.803c-.986-2.979-1.424-4.907-1.117-4.907.087 0 .241.11.307.219.087.131.657.482 1.271.788.635.329 1.599.92 2.169 1.336l1.029.745.307-.613c.176-.329.438-1.161.592-1.818s.569-1.906.898-2.76c.35-.833.679-1.95.767-2.476l.153-.92.898 1.402c.503.788 1.314 1.884 1.84 2.431l.942 1.008 2.147-2.125c1.183-1.183 2.323-2.476 2.519-2.87.197-.372.46-.702.569-.702.087 0 .46-.548.767-1.227.702-1.49.986-1.292.986.657 0 1.797.482 5.17.723 5.17.11 0 .153-.307.066-.723-.087-.372-.241-2.125-.35-3.855-.131-1.731-.285-3.22-.35-3.286-.197-.197-1.336 1.248-2.388 3.045-.569.942-1.621 2.3-2.541 3.176-.855.833-1.643 1.708-1.774 1.95-.197.372-.263.35-.876-.219-.35-.35-1.248-1.555-1.993-2.694l-1.358-2.081-.153 1.161c-.11.635-.482 1.84-.855 2.717s-.767 2.125-.898 2.783c-.11.657-.35 1.468-.526 1.818l-.329.613-.767-.657c-.416-.372-1.227-.92-1.797-1.205-.569-.307-1.358-.788-1.774-1.095s-.788-.526-.833-.482c-.241.241.526 3.746 1.248 5.652.46 1.227.788 2.3.745 2.366-.11.087-1.227-1.052-4.207-4.25-.548-.592-1.052-.964-1.095-.833-.11.372 1.38 4.666 2.234 6.375.438.855.788 1.621.788 1.708 0 .219-2.957 1.139-3.943 1.227-.767.066-.767.066.702.767.81.372 2.234 1.205 3.198 1.84.942.635 2.038 1.336 2.431 1.533l.702.372-.438.855c-.241.46-1.292 1.797-2.323 2.979-1.052 1.183-1.862 2.169-1.818 2.212s1.205-.307 2.563-.788c1.38-.482 2.541-.81 2.629-.745.066.087.153.876.197 1.774.087 1.533.066 1.665-.46 2.059-.898.702-1.906 2.476-3.373 5.981-1.774 4.272-2.41 6.243-2.803 8.982a105.66 105.66 0 0 1-.986 5.083 204.072 204.072 0 0 0-.833 3.615c-.087.46-.285.767-.482.767-.241 0-.372-.394-.503-1.533-.197-1.84-.46-2.738-1.052-3.483-.482-.613-1.621-.92-2.498-.702l-.569.153.416.592c.241.329.702 1.139 1.052 1.797.702 1.358.723 1.993.394 7.996-.197 3.089-.241 3.352-.876 4.491-.613 1.073-1.797 2.191-2.323 2.191-.394 0-1.205-1.095-1.49-2.015-.197-.548-.329-2.059-.35-3.681a228.639 228.639 0 0 1-.066-2.913c-.022-.087-.329-.285-.702-.416-1.797-.613-3.352-7.186-3.352-14.086 0-3.921.241-5.411 1.227-7.623.635-1.38.657-1.49.329-1.862-.592-.635-.438-1.621.503-3.483 1.643-3.308 4.008-4.973 6.243-4.447.482.11.942.219 1.008.219.087 0 .197-.679.285-1.49.263-2.563.679-3.965 1.424-4.732.657-.679.679-.767.702-2.783.022-1.599-.087-2.476-.526-3.921-.307-1.029-.657-2.453-.788-3.155-.285-1.578-.657-1.993-2.936-3.462-.92-.592-1.862-1.358-2.103-1.665-.702-1.029-1.161-2.717-1.314-4.973l-.153-2.191-.35.833c-1.051 2.348-3.044 4.1-4.666 4.1-.482 0-1.008-.11-1.161-.263-.197-.197-.35-.153-.679.131-.241.219-.767.394-1.227.394-1.599 0-2.76-1.753-3.615-5.433-.526-2.257-1.599-4.381-2.979-5.893-.548-.613-.92-.898-.833-.657.942 2.629 1.248 4.118 1.336 6.681.066 1.708.022 3.089-.131 3.681-.307 1.117-1.052 1.687-1.972 1.512-.635-.131-.635-.131-.438.569.416 1.468.219 2.498-1.052 5.696-1.884 4.732-1.84 6.243.285 9.135 1.314 1.774 1.621 2.629 1.84 5.038.11 1.139.263 2.453.35 2.892l.131.81-1.38-.043c-.986-.022-1.621.087-2.147.372l-.767.394 2.015.526c3.505.876 5.323 2.147 6.397 4.403.898 1.906.438 2.87-1.599 3.462-.657.197-1.358.526-1.578.767-.372.416-.35.416.438.197.942-.263 2.76-.066 3.79.394.855.416 1.884 2.41 2.344 4.622.569 2.694.394 7.339-.46 10.953-.394 1.797-.81 2.431-1.358 2.103-1.008-.635-1.248-2.651-.833-7.229l.197-1.972-.745-.855c-.416-.46-.964-1.183-1.227-1.621-.416-.679-.482-.723-.503-.307 0 .263.219 1.008.46 1.643.679 1.665.635 3.462-.11 5.06-.592 1.248-1.599 2.257-4.513 4.578-2.234 1.774-3.264 3.658-3.746 6.813-.548 3.505.11 6.791 1.578 7.843.35.241.635.416.635.372s-.153-.548-.329-1.139-.329-1.731-.329-2.519c0-1.665.613-2.957 2.191-4.578 1.731-1.797 2.979-2.169 5.126-1.533 1.95.592 3.899 3.439 4.973 7.294.438 1.555.482 2.41.569 7.93.087 5.236.043 6.441-.263 7.82-.92 4.184-3.155 6.397-5.017 4.929-.833-.657-1.183-1.468-1.555-3.505-.307-1.818-1.183-3.527-2.103-4.097-.35-.219-.35-.176-.153.46.11.394.285 2.87.372 5.52.176 5.323.176 5.389 1.884 7.513 1.402 1.731 1.314 2.629-.46 4.315-.635.635-1.183 1.314-1.183 1.512s.197.745.438 1.183c.219.438.482 1.008.569 1.248.131.394.153.394.241.043.066-.219-.087-.702-.307-1.095-.788-1.336-.788-1.38.482-2.585.635-.613 1.292-1.402 1.424-1.753.153-.35.35-.635.46-.635.548 0 .11-1.117-.788-2.059-.548-.592-.92-1.139-.855-1.248s0-.176-.176-.153c-.153.043-.526-.416-.833-1.029-.526-1.029-.548-1.336-.657-5.696-.066-2.541-.11-4.622-.087-4.644.087-.285 1.052 2.234 1.424 3.658.569 2.3.92 2.979 1.797 3.505.876.548 1.84.548 2.629.043.702-.482 1.468-1.271 1.468-1.533 0-.087.11-.285.263-.438.285-.285.876-2.41 1.292-4.534.329-1.731.329-11.172 0-13.034-.723-3.988-1.862-6.484-3.615-7.973-2.234-1.906-3.658-2.257-5.498-1.358-1.336.679-3.352 2.738-4.053 4.184-.526 1.095-.592 3.264-.11 4.425.46 1.073.263 1.139-.416.153-.92-1.358-1.117-2.803-.833-5.696.372-3.571.855-4.666 2.76-6.55.855-.855 2.234-2.103 3.067-2.826.81-.702 1.84-1.818 2.278-2.498.702-1.052.81-1.402.876-2.76.066-1.117-.022-1.818-.263-2.431l-.372-.855.569.526c.92.855 1.073 1.818.679 3.965-.613 3.286-.394 5.126.702 6.178 1.073 1.029 1.753.329 2.323-2.41.46-2.147.855-6.987.702-8.456-.176-1.687-.942-4.622-1.468-5.673-.548-1.052-1.884-1.928-2.979-1.928h-.833l.81-.548c1.708-1.161 1.468-3.264-.635-5.586-1.052-1.183-1.972-1.708-4.207-2.431l-1.884-.613h1.446c1.84-.022 2.081-.263 1.774-1.708-.131-.592-.285-1.621-.372-2.323l-.11-1.292 1.227 1.336c.876.964 1.708 1.578 2.936 2.191 2.234 1.117 3.746 1.424 6.375 1.292 1.884-.087 2.323-.197 3.812-.898 2.979-1.424 5.213-4.315 6.134-7.93 1.708-6.725-3.877-13.472-11.172-13.472-2.957 0-5.389 1.052-7.689 3.373-2.498 2.498-3.483 4.951-3.329 8.258l.087 1.95-.723-1.008c-1.446-2.059-1.468-3.329-.176-6.681 1.774-4.622 1.906-5.083 1.797-6.156-.131-.986-.11-1.029.482-1.161 1.555-.329 2.125-2.015 1.928-5.652-.066-1.38-.329-3.132-.569-3.988l-.438-1.533.46.548c.81.986 1.643 2.936 2.234 5.126 1.139 4.272 2.826 6.156 4.885 5.411.394-.153.92-.197 1.161-.131.241.087.986.022 1.665-.11 1.358-.285 2.541-1.183 3.417-2.585l.503-.81.131 1.533a9.03 9.03 0 0 0 .833 2.979c.635 1.358.81 1.533 2.607 2.672 2.476 1.578 2.783 1.928 3.089 3.658.153.788.526 2.3.833 3.373.745 2.651.635 4.14-.46 6.09-.745 1.336-.986 2.234-1.336 4.776l-.11.986-1.599.022c-1.008 0-1.818.131-2.257.372-1.008.526-2.541 2.323-3.439 4.031-1.008 1.95-1.183 2.892-.679 3.768.372.657.372.679-.197 1.731-1.029 1.906-1.336 3.681-1.314 8.039 0 4.293.307 6.725 1.271 10.077.855 2.892 1.512 3.899 2.913 4.403.022 0-.043.613-.131 1.336-.372 2.76.482 6.528 1.621 7.033 1.314.613 2.3.043 3.373-1.972.723-1.336.745-1.49.898-4.666.087-1.818.241-3.746.307-4.293.197-1.227-.285-3.067-1.227-4.753l-.63-1.135h.635c.35 0 .81.066 1.008.131.592.241 1.183 1.687 1.336 3.286.153 1.578.548 2.498 1.073 2.498.46 0 .679-.569.942-2.234.219-1.358.35-1.621 1.49-2.957 1.424-1.665 2.694-4.228 3.264-6.528.503-1.95.526-5.543.043-6.857-.285-.81-.285-.964 0-1.248.723-.723 1.928-.11 2.453 1.248.46 1.227.723 3.439.702 6.178 0 3.812-.569 6.901-1.797 9.923-.263.635-.241.745.066.986.219.153.548.767.767 1.358.372 1.008.942 1.599.942.986 0-.131.307-.898.679-1.687l.657-1.424.613.592c.679.657.833.702.942.263.043-.241.438-.11 1.49.548 1.052.613 1.49 1.029 1.687 1.555.35 1.008.35 1.139-.153 1.731-.702.855-.767.964-.788 1.183 0 .11-.11.46-.241.767-2.257 5.17-2.913 6.441-3.702 7.053-.285.241-.526.548-.526.702s-.307.679-.679 1.183-.635 1.052-.569 1.227c.153.416-.702 1.073-1.424 1.073-.329 0-.592.066-.569.131.043.372-.066.745-.153.635-.066-.066.022-1.38.197-2.936.416-3.527.592-7.755.329-7.755-.11 0-.197.635-.197 1.424 0 3.132-.702 8.281-1.84 13.472-.503 2.388-2.629 7.404-3.768 8.916-.285.372-.526.788-.526.898s-.394.745-.876 1.424c-.482.657-.876 1.271-.876 1.336s-.153.307-.307.503c-.176.219-.526.635-.745.942-.372.438-.482.482-.767.263-.285-.241-.372-.219-.569.153-.131.241-.241.702-.263 1.052 0 .329-.087.81-.176 1.052-.11.241-.087.548.022.702.153.176.087.438-.131.767-.197.263-.35.81-.35 1.205s-.503 2.431-1.117 4.513c-.613 2.059-1.248 4.513-1.424 5.411s-.46 1.862-.657 2.147c-.329.503-1.555 1.358-1.95 1.358-.372 0-2.344-1.95-3.681-3.636-2.015-2.585-4.622-4.491-6.046-4.447-.46 0-.394.066.307.285a7.615 7.615 0 0 1 2.038.964c.526.35-1.271 1.884-3.002 2.563-.855.35-1.512.657-1.468.702.197.197 3.089-1.161 3.899-1.818.482-.416.964-.745 1.095-.745.438 0 1.993 1.468 3.132 2.957.657.833 1.533 1.797 1.95 2.125.46.372.745.788.745 1.095 0 .285.11 1.161.263 1.972l.285 1.468-.833.92c-.92 1.029-1.533 2.278-1.731 3.593-.176 1.073-.241 1.183-1.271 1.95-.657.482-.833.548-.833.263 0-.526-.81-.438-1.424.197-.307.285-.548.702-.548.92 0 .329-.043.35-.219.066-.131-.197-.219-.219-.219-.066 0 .307.394.569.942.657.241.043 1.052-.526 2.038-1.402 1.271-1.161 1.643-1.643 1.753-2.257.219-1.402.767-2.585 1.643-3.571.964-1.095 1.073-1.774.569-3.462l-.307-.964h.833c1.248 0 2.431-1.052 2.738-2.431.131-.592.416-1.862.635-2.803.723-3.308 2.913-10.187 3.439-10.844.285-.372.81-.723 1.205-.788.394-.087.81-.285.964-.46.131-.176.372-.307.548-.307.153 0 .307-.219.35-.503.043-.263.197-.46.35-.438.131.043.263-.043.263-.176s.176-.176.416-.087c.35.11.635-.153.767-.767.153-.592.876-2.191 1.008-2.191.087 0 .482-.307.876-.657.548-.503.898-.657 1.599-.657.482 0 1.052.153 1.248.329.285.263.503.285.964.131.307-.131.569-.329.569-.46 0-.11.153-.219.329-.219a.527.527 0 0 0 .46-.329c.087-.176.219-.329.329-.329.394 0 2.607-1.643 2.738-2.015.066-.219.219-.394.329-.394s.153-.241.066-.526c-.087-.394-.022-.569.307-.657.241-.087.416-.263.394-.416 0-.153.176-.876.416-1.599.416-1.271.482-1.38 1.578-1.862.635-.285 1.161-.592 1.161-.679 0-.241 1.512.263 2.848.942.702.35 1.424.635 1.643.635.197 0 1.468.569 2.803 1.248 1.336.702 2.541 1.314 2.672 1.358.592.197-.942-.745-2.672-1.665-2.541-1.314-3.855-2.323-4.425-3.396-.503-.964-.613-2.498-.197-2.629.153-.066.307-.569.329-1.183.022-.592.087-1.555.11-2.147.043-.613.176-1.117.329-1.161.176-.066.219-.329.131-.745-.131-.745.285-1.884.81-2.169.285-.153.745.176 2.212 1.665 1.731 1.753 4.097 3.702 5.564 4.6.788.46.548.176-.723-.876-.613-.503-.833-.788-.592-.788.46 0 .329-.438-.197-.745-.307-.176-.438-.176-.503.043-.066.131-.197.219-.285.153-.11-.066-.131-.285-.066-.46.087-.241 0-.329-.285-.285-.219.043-.548 0-.702-.11-.219-.131-.197-.241.11-.503.307-.241.329-.329.087-.438-.153-.066-.482-.307-.723-.548-.329-.329-.503-.372-.723-.176-.219.176-.613-.131-1.753-1.358-1.643-1.797-2.125-2.519-1.555-2.3.197.087.35.087.35.022 0-.197-.964-1.183-1.139-1.183-.307 0-1.052-.876-1.052-1.227 0-.176-.066-.285-.176-.219-.087.043-.394-.263-.679-.702l-.526-.81.657.592c.745.723.898.745 1.271.241.263-.35.35-.307 1.183.438.503.46 1.424 1.073 2.059 1.38.635.329 1.248.788 1.38 1.052.11.263.438.482.745.526.307.022.92.153 1.38.285.548.131.942.153 1.095.022.176-.131.745-.131 1.578 0 .723.11 2.212.153 3.286.087l1.972-.131.833 1.183c.438.657.81 1.248.81 1.314s-.394.131-.855.131c-1.095 0-3.527 1.227-3.899 1.972-.503.986-.372 2.366.503 5.411.11.394.022.482-.503.548-.46.043-.635.197-.679.592-.11.702.503 2.848 1.292 4.6.788 1.731.788 1.993.022 2.717-.81.767-1.248.745-2.672-.176-1.468-.92-2.3-.964-3.746-.176-.81.438-1.073.702-1.073 1.095 0 .635-.657.679-1.205.066-.503-.569-.767-.548-2.081.11-1.161.592-1.336.855-.723 1.073.503.197.176.438-1.446 1.029l-1.402.503-.416-.503c-.329-.416-.548-.503-1.227-.416-.438.066-1.183.285-1.643.482-.657.263-.81.438-.723.745.131.35-.11.503-1.512 1.029-.898.329-1.643.723-1.643.876 0 .285 2.453 2.476 3.023 2.672.153.066.503-.087.767-.329s.986-.635 1.578-.876c.613-.241 1.271-.503 1.49-.592.263-.11.372-.043.372.219 0 .197.11.307.285.263.131-.066.788-.307 1.424-.503.898-.307 1.117-.46 1.029-.767-.153-.438.307-.635 1.38-.592.702.022 3.877-1.468 5.345-2.476.702-.503 1.117-.526 1.49-.087.416.503.986.394 1.972-.438.569-.46 1.161-.767 1.533-.767 1.139 0 2.957.438 4.118 1.008.635.307 1.227.503 1.292.438s-.043-.942-.241-1.928c-.46-2.366-.46-2.366.263-1.358.833 1.139 2.125 2.257 3.089 2.672.548.219 1.555.329 3.198.35 2.147 0 2.541-.066 3.615-.569 2.388-1.117 3.724-3.155 3.899-6.024.087-1.468.043-1.731-.592-3.023-1.227-2.476-3.439-3.724-6.703-3.724-1.424 0-1.972.11-2.848.526-1.402.702-3.373 2.672-4.074 4.074l-.526 1.095-.066-1.139c-.043-.942-.131-1.139-.503-1.205-.329-.043-.635-.503-1.095-1.599-1.248-2.913-.833-4.053 1.446-4.053 1.248 0 1.862.35 1.862 1.073 0 .788.548.942 2.826.855 1.205-.022 2.257-.131 2.323-.219.087-.087-.11-.613-.438-1.161-.329-.569-.548-1.052-.503-1.073.176-.153 5.849.372 6.528.613.855.285 1.424 1.139 1.862 2.76.307 1.183.307 1.205-.35.876-.526-.307-.526-.131.043.81.657 1.052 1.731 5.323 1.731 6.857 0 1.555.263 1.818 1.402 1.512 1.029-.285 1.336-.066.394.285-.855.329-.92.986-.197 1.665.592.569.964.592 1.555.153s.942-.416 1.073.11c.153.613.526.548 2.476-.329 1.906-.876 3.045-.964 4.929-.416.657.197 1.227.394 1.271.438s-.153.285-.438.526c-.635.526-.526.613 1.599 1.336 1.446.503 1.533.503 1.797.131.153-.197.438-.372.613-.372.153 0 1.972 1.095 4.008 2.41 3.877 2.519 5.192 3.155 7.273 3.483.702.11 1.292.285 1.336.416.197.613 2.672 4.36 3.373 5.126.548.592.942 1.358 1.248 2.366.657 2.169 2.541 5.783 3.352 6.462.503.438.876.569 1.402.503l.702-.087-.11 1.665c-.043.898-.131 1.84-.176 2.059-.043.241.087.745.329 1.117.219.372.503 1.314.635 2.081.176 1.073.35 1.512.702 1.753.285.176 1.073.898 1.774 1.578 1.336 1.336 1.753 1.49 2.41.898.372-.329.394-.329.394.131 0 .241.307 1.708.657 3.243.372 1.512.635 2.87.569 3.002-.066.153-.11.131-.11-.043-.022-.394-.92-1.117-1.38-1.139-.219 0-.329-.131-.285-.285.066-.131-.131-.526-.438-.855s-.548-.723-.548-.898c0-.153-.241-.526-.548-.81s-.548-.702-.548-.92-.263-.767-.592-1.248c-.657-.92-1.797-1.358-2.366-.898-.219.176-.394.11-.723-.329-.372-.482-.438-.788-.35-1.928.131-1.665-.11-4.753-.372-4.753-.11 0-.197.307-.197.679 0 1.38-2.212 3.067-3.002 2.278-.153-.176-.855-.35-1.533-.416a34.947 34.947 0 0 1-2.848-.482 55.187 55.187 0 0 0-3.943-.635 157.487 157.487 0 0 1-3.571-.526c-.657-.131-2.081-.329-3.176-.438-2.125-.241-2.431-.285-4.929-.679-1.578-.241-2.41-.219-3.439.11-.329.11-.592.022-.855-.307-.372-.416-.788-.526-3.593-.788a14.654 14.654 0 0 1-1.533-.197c-1.073-.241-4.36-.416-6.353-.307-.307 0-1.402-.066-2.453-.153-1.336-.131-2.015-.087-2.212.066-.176.153-.35.219-.416.153-.066-.087-3.155-.329-4.666-.372-.657-.022-4.118.482-4.403.657-.176.087-.81.11-1.424.043-1.292-.176-3.264.197-3.264.592 0 .35-.788.372-.986.043-.11-.153-.285-.11-.548.131-.329.307-.526.329-1.358.11-1.029-.285-1.183-.263-1.095.176.043.197-.066.263-.329.176-1.117-.329-1.555-.372-1.687-.153-.087.131-.482.241-.898.241-.394 0-.767.087-.81.197-.022.11-1.731.35-3.79.548-4.907.482-10.12 1.139-13.166 1.665-3.286.569-11.654.986-13.1.657-1.292-.285-1.578-.153-.438.219.438.153 1.578.263 2.541.263 1.972-.043 2.453.11 3.286.942l.613.592-.503.613c-1.161 1.424-4.14 2.803-5.498 2.541-1.161-.219-3.045-1.227-3.943-2.059-.482-.46-.745-.613-.613-.372.46.898 2.015 1.95 4.053 2.717.767.285.702.372-.81 1.424-1.205.833-1.665.876-1.665.176-.022-.35-.022-.35-.241 0a.84.84 0 0 0 0 .788c.153.307-.285 1.227-2.125 4.338-2.936 4.973-7.141 11.523-9.025 14.042-.986 1.336-1.578 1.95-1.95 1.993-.285.043-1.314-.285-2.3-.745-2.125-1.008-3.527-1.161-5.915-.657-2.015.416-4.36.46-5.411.087-.855-.285-1.95-1.029-1.95-1.336 0-.11.416-.657.92-1.248.745-.81 1.161-1.643 1.993-3.855.569-1.555 1.029-3.045 1.029-3.329 0-.526-.087-.569-1.533-.503-1.227.066-2.3-.592-2.936-1.84-1.183-2.278-.394-7.82 1.424-10.165.372-.46.416-.46.416-.11 0 .241-.197 1.029-.438 1.774-.876 2.783-.767 5.673.219 6.199.548.285 2.257.285 2.936-.022.635-.307.898-.898 1.227-2.826.263-1.468 1.227-5.017 1.424-5.213.11-.11.022.635-.219 1.774-.131.657.11 1.029.657 1.029.263 0 .613.153.767.329.679.833 1.753.131 2.366-1.578.657-1.753 1.884-3.22 3.22-3.855.613-.285 1.336-.635 1.643-.767l.548-.263-.548.131c-.307.066-1.052.35-1.687.635-1.402.635-2.979 2.541-3.462 4.207-.307 1.052-.788 1.599-1.424 1.599-.131 0-.176-.241-.11-.613l.11-.592-.263.548-.263.548-.087-.657c-.043-.35.022-.679.153-.723.11-.043.153-.241.087-.438-.11-.263-.219-.153-.416.416-.153.416-.285.613-.285.438-.022-.241-.11-.219-.35.11-.285.394-.307.35-.329-.526 0-.503.087-.92.219-.92.11 0 .153-.131.087-.285-.131-.372.702-5.038 1.008-5.63.131-.241.592-.635 1.052-.876.548-.307.635-.416.263-.307-.898.219-1.533.986-1.884 2.212-.176.635-.394 1.161-.46 1.161-.241 0 .153-2.257.482-2.76.197-.307 1.227-.942 2.388-1.49 1.117-.526 2.103-1.029 2.169-1.139s-.635.176-1.555.613c-2.103 1.029-2.694 1.073-1.227.087.613-.416 1.643-1.38 2.278-2.147l1.205-1.38-1.818 1.687c-.986.942-1.906 1.708-2.038 1.708s-.285-.197-.35-.46c-.087-.285-.723-.745-1.797-1.292-2.76-1.38-3.527-2.563-3.527-5.345 0-3.988 2.234-7.448 6.923-10.734.855-.592 1.774-1.38 2.038-1.753.592-.788.613-.876-.855 2.717-1.446 3.527-1.578 4.534-.723 6.112.548 1.052 2.3 2.672 2.585 2.41.043-.066-.372-.46-.964-.898-1.271-.964-1.774-1.95-1.774-3.505 0-1.139.087-1.38 2.081-6.09.657-1.555.986-3.724.569-3.724-.131 0-.241.197-.241.438 0 .702-.613 2.015-1.271 2.694-.329.35-1.38 1.183-2.344 1.862-2.431 1.708-4.293 3.658-5.126 5.323-1.446 3.023-1.753 6.068-.788 8.018.657 1.314 1.446 1.972 3.439 2.87 1.578.723 2.015 1.314 1.402 1.993-.197.219-.35.46-.35.548s-.197.416-.46.767c-.503.702-.833 2.936-.438 3.176.153.087.153.285.043.526-.394.745-1.972 6.331-2.191 7.689-.285 1.731-.702 2.212-2.081 2.366-.855.11-1.117.043-1.555-.372-.482-.438-.548-.702-.548-1.972 0-.855.241-2.388.548-3.636.613-2.388.657-2.979.329-3.615-.35-.635-.569-.503-.482.307.066.548-.11.986-.723 1.862-1.424 2.103-2.191 6.441-1.533 8.741.679 2.323 1.906 3.483 3.636 3.396.788-.022 1.073.043 1.073.263 0 .503-1.533 4.578-2.081 5.498-.285.482-.81 1.161-1.183 1.512-.833.81-.855 1.117-.043 1.862.503.46.592.679.438 1.073-.153.372-.307.482-.613.372-.35-.11-.592.087-1.139.81-.372.526-.833 1.248-1.029 1.643-.285.613-.285.745 0 1.183s.241.702-.679 3.176c-.833 2.212-1.073 2.694-1.38 2.585-.241-.066-.482.087-.702.394-.372.569-1.248 4.338-1.008 4.338.087 0 .329-.876.548-1.972.416-2.191.81-2.76 1.336-2.015.176.241.635.679 1.029.964l.702.482-.702-.81-.702-.81.657-1.818c.372-.986.833-2.212 1.008-2.738.176-.503.394-.92.46-.92.087 0 .788.438 1.555.986.788.548 1.512.986 1.643.986s-.307-.35-.964-.788c-1.292-.855-2.848-2.257-2.848-2.563 0-.285 1.621-2.519 1.906-2.651.176-.066.263.066.219.372-.043.416.329.657 2.476 1.731 3.681 1.797 5.762 2.431 7.536 2.323 1.38-.087 1.446-.066 1.314.372-.263.833-.92 1.972-1.38 2.388-.438.394-.592.416-2.015.176-.833-.153-1.731-.263-2.015-.241-.46 0-.46.022-.043.197.241.11.898.263 1.49.329.569.066 1.029.197 1.029.285 0 .285-1.578 2.76-2.323 3.702-1.008 1.227-1.972 1.512-3.834 1.183-.745-.131-1.424-.197-1.468-.153-.197.219 1.708.569 3.089.569.833 0 1.687.11 1.928.219.263.153.416.153.416.022 0-.11-.197-.263-.438-.35-.394-.131-.329-.263.657-1.49.592-.723 1.38-1.906 1.753-2.607.526-.986.788-1.271 1.183-1.271.285 0 .657-.176.833-.394.679-.81 1.512-2.498 1.446-2.957-.043-.372.372-1.008 1.468-2.257 1.336-1.49 1.621-1.731 2.169-1.665.438.066.81-.087 1.271-.548 1.161-1.073 8.543-12.421 11.961-18.379.679-1.183 1.183-1.753 2.212-2.476.723-.503 1.446-1.095 1.599-1.292.153-.219.788-.503 1.38-.657 2.015-.526 4.491-2.366 4.491-3.329 0-.219-.307-.657-.679-.964-.526-.46-.592-.569-.263-.569 1.446 0 6.747-.526 9.047-.876 5.06-.788 17.416-2.125 27.054-2.892 4.491-.372 17.854-.35 21.797 0 8.588.81 20.132 2.826 26.309 4.622 1.621.482 3.417.92 3.988 1.008 1.008.153 1.029.176 1.029.942 0 1.117.46 1.49 2.541 2.038 1.292.329 1.862.592 1.95.876.307.942 2.431 3.855 4.074 5.564l1.774 1.84 1.292 4.293c1.884 6.199 2.541 7.798 3.396 8.193.876.394 1.205.307 2.826-.745 2.081-1.314 2.672-1.446 3.352-.635.285.35 1.008 1.139 1.578 1.753.767.788 1.008 1.183.833 1.358s-.022.635.482 1.621c.92 1.774 1.008 1.862 1.774 2.038.482.11.788.416 1.314 1.424.372.702 1.161 1.818 1.774 2.498.592.679.986 1.227.876 1.227-.46 0-.942.702-.788 1.183.241.767.986 1.446 2.672 2.366.898.482 1.731 1.073 1.862 1.292.153.241.503.416.876.416h.613l-.503-.702c-.855-1.205-1.139-1.49-1.424-1.49-.153 0-.372-.176-.482-.394-.131-.219-.702-.635-1.314-.92-1.533-.745-1.248-1.139 1.052-1.49 2.453-.35 2.936-.657.964-.613-.855 0-1.512.11-1.424.219.066.11 0 .131-.153.043-.131-.087-.197-.241-.131-.35.066-.087-.219-.372-.592-.635-.394-.241-1.008-.745-1.38-1.117-.35-.394-.92-.964-1.248-1.314-.635-.635-.788-1.095-.372-1.095.131 0 .197-.131.131-.307-.131-.35.285-.569 1.073-.569.285 0 .526-.087.526-.197 0-.176-.745-.394-1.884-.548-.241-.022-.526-.11-.657-.197-.11-.066-.35-.043-.526.066s-.482.087-.723-.043c-.219-.11-.46-.153-.526-.087-.066.043-.35-.11-.657-.394-.416-.394-.503-.635-.372-1.095.131-.503.219-.569.745-.46.964.219 3.286-.438 6.243-1.774 2.323-1.052 2.826-1.205 3.243-1.008.263.131.679.285.942.372.263.066.569.372.723.702.219.482.197.635-.241 1.117-.285.307-1.095.92-1.818 1.38s-1.205.855-1.073.855.92-.438 1.753-.964c.833-.548 1.533-.942 1.578-.92.022.043.197.702.394 1.468.657 2.826.81 3.308 1.095 3.417.592.219.503.942-.197 1.512l-.702.548.657-.307a4.49 4.49 0 0 0 1.073-.767l.394-.46.503.482c.263.263.548.876.635 1.358.329 2.081.416 2.476.942 3.834.942 2.431 1.271 2.848 2.3 2.848h.876l-.745-.592c-.394-.35-.855-.767-1.008-.942-.548-.613-1.358-2.563-1.708-4.074-.679-2.892-.767-3.132-1.095-3.462-.176-.176-.46-.285-.613-.219-.197.066-.592-.702-1.271-2.541-.898-2.323-.986-2.717-.767-3.308.219-.548.176-.788-.241-1.578-.679-1.314-1.49-2.103-1.95-1.993-.307.087-.526-.197-.964-1.292-.503-1.227-.548-1.446-.263-1.818.176-.241.241-.635.176-.964-.241-.942-4.031-8.281-5.871-11.391-3.067-5.126-5.63-10.668-5.63-12.136 0-.569-.131-.833-.482-1.029-.285-.153-.635-.438-.788-.679-.153-.219-1.205-.942-2.344-1.599-1.248-.745-2.431-1.643-3.067-2.344l-1.029-1.139.153-1.512c.153-1.512.153-1.533-.898-3.593-1.073-2.059-1.073-2.081-1.052-4.184 0-1.161.11-2.476.241-2.936l.241-.788-.723.416c-.855.526-1.052.35-1.446-1.227-.438-1.774-.372-10.165.087-11.939.438-1.708 2.694-6.397 3.548-7.404 1.862-2.234 5.148-2.783 6.769-1.161.613.613.679.81.679 2.059 0 1.731-.176 2.366-.92 3.243l-.592.702.548-.176c1.161-.372 3.132-1.49 4.031-2.323 1.227-1.139 4.71-6.265 5.828-8.609 1.818-3.768 1.708-7.053-.35-11.194-1.533-3.067-1.774-4.25-1.49-7.186.197-1.753.46-2.803 1.227-4.885 1.183-3.132 1.402-4.338 1.029-5.477-.241-.702-.307-.767-.438-.416-.087.241-.241.92-.329 1.533-.329 2.3-1.336 3.593-3.548 4.644-2.431 1.161-3.067 2.431-3.352 6.747-.219 3.22-.569 4.6-1.533 6.09-1.731 2.607-4.688 2.672-5.411.131-.372-1.271-.087-3.505.767-5.828.767-2.081 1.358-3.067 3.417-5.652 2.585-3.243 3.724-5.104 4.272-7.01.153-.482.35-2.651.438-4.841.176-4.425.176-4.403 2.212-7.01l.986-1.248.066-2.212c.043-2.169.043-2.191-.285-1.446-.723 1.578-1.512 1.928-2.453 1.052-.285-.263-.723-.503-1.008-.548-1.227-.176-2.453-3.198-2.453-6.09 0-1.578.087-1.906.788-3.286.855-1.665 1.139-2.803.876-3.505-.176-.416-.176-.416-.329.043-.087.285-.723.942-1.424 1.468-1.708 1.336-2.826 2.585-3.505 4.053-.503 1.095-.569 1.49-.569 3.527 0 1.95.087 2.431.503 3.22.482.898.635 1.708.329 1.555-4.994-2.541-9.201-2.826-12.859-.876-1.708.898-4.491 3.812-5.367 5.564-1.095 2.3-1.687 1.993-1.578-.81.043-1.336-.043-1.972-.329-2.585-.219-.438-.46-.81-.569-.81-.087 0-.176.482-.176 1.073s-.066 1.271-.131 1.49c-.11.329-.087.329.11.066.131-.176.241-.723.263-1.205l.022-.876.329.767c.263.592.307 1.183.197 2.563-.153 1.753-.131 1.818.35 1.928.482.131.503.197.416 1.928-.087 2.366-.176 2.476-1.183 1.797-1.424-.986-1.928-2.672-1.402-4.644.176-.635.241-1.095.153-1.052-.219.131-.657 1.906-.657 2.563 0 1.555 1.117 3.352 2.388 3.899.548.219.679.46.986 1.687.548 2.125 1.731 4.293 3.176 5.805 1.008 1.029 1.314 1.512 1.424 2.212.176.986.986 1.884 3.417 3.768 2.498 1.928 2.717 2.826 2.059 8.565-.548 4.929-1.117 6.441-3.198 8.303-1.446 1.292-2.563 1.862-3.658 1.862-1.84 0-2.783-1.643-3.023-5.258-.197-3.22.81-6.528 2.651-8.697.438-.482.788-.964.788-1.052 0-.394-1.972 1.052-3.22 2.388-1.928 2.038-2.803 3.899-3.243 6.923-.416 2.783-.855 4.381-1.38 5.038-.35.438-.46.46-.898.241-.81-.438-1.336-1.533-1.336-2.826 0-1.424.176-1.797 1.643-3.329 1.008-1.052 1.731-2.147 1.271-1.928-.11.043-.438.219-.767.372-.855.438-1.578.066-2.169-1.117-.876-1.708-.46-4.074 1.029-6.046.307-.394.526-.788.438-.855-.219-.241-2.015 1.008-3.111 2.169-1.336 1.402-2.212 2.848-2.717 4.491-.482 1.599-.657 1.139-.657-1.862 0-3.155-.35-5.937-.898-7.317-.394-1.008-.438-1.49-.372-3.527.066-1.292.022-2.278-.066-2.191-.438.438-1.117 2.717-1.402 4.71-.197 1.205-.394 2.278-.46 2.388-.285.46-.986.11-1.95-.942-1.271-1.424-1.95-2.738-3.483-6.857-2.3-6.156-4.929-9.617-8.543-11.26-1.95-.876-2.76-1.643-2.76-2.563 0-1.073.788-3.023 1.731-4.207 1.052-1.314 1.336-1.862 1.336-2.498 0-.46-.022-.46-.416.176-.613 1.008-1.468 1.578-3.111 2.081-1.818.548-2.3.394-3.527-1.227-1.512-1.993-2.103-4.578-1.49-6.66l.197-.745-.526.503c-.986.92-1.446 2.234-1.512 4.207-.066 2.125-.569 3.308-1.774 4.25-.986.745-2.257.898-4.622.526l-1.84-.263 1.248-1.358c1.665-1.774 3.352-3.768 3.352-3.943 0-.066-.176-.131-.372-.131-.307 0-.263-.11.197-.613.307-.329.876-1.183 1.248-1.928 1.292-2.453 4.688-5.739 8.631-8.281 2.366-1.555 4.469-2.541 7.536-3.527 2.125-.679 3.593-1.512 3.571-2.038 0-.087-.329-.307-.723-.482s-.898-.679-1.139-1.139c-.35-.679-.394-.92-.197-1.468.241-.613.197-.679-.592-1.314-1.095-.898-1.271-1.797-.657-3.22.263-.569.438-1.073.394-1.117-.131-.11-3.308 2.191-4.578 3.308-.569.482-1.402 1.402-1.862 2.038-.92 1.205-2.366 2.519-3.396 3.045-1.248.635-1.928-.482-1.621-2.717.11-.964.11-1.008-.219-.592-.197.241-.745 1.227-1.205 2.191-.679 1.402-.898 2.147-1.052 3.636l-.176 1.862-1.708 2.476c-2.059 2.957-2.979 3.834-3.855 3.702-.569-.087-.635-.022-.767.679-.197 1.117-.679 1.972-1.599 2.936-.898.964-1.993 1.621-1.993 1.227 0-.131.438-1.774.986-3.636.548-1.84.986-3.417.986-3.462 0-.066-.723.46-1.599 1.139-1.599 1.292-3.132 2.212-3.308 2.038-.043-.066-.022-.767.066-1.599.153-1.38.022-1.906-.285-1.117-.087.197-.197.307-.263.241-.11-.11.592-3.352.92-4.184.11-.307.087-.372-.087-.263-.767.482.548-3.352 2.191-6.441 2.169-4.008 5.828-8.522 8.609-10.625l1.665-1.248-.569-.657c-.745-.876-.702-1.578.307-4.557.482-1.38.833-2.541.81-2.585-.043-.022-.702.569-1.49 1.314zm.066 2.015c-.833 2.563-.855 3.264-.153 3.965l.526.526-1.468 1.117c-2.826 2.081-5.958 5.762-7.843 9.201-.438.788-.898 1.512-1.052 1.643-.438.372-1.424 2.059-1.424 2.431 0 .197-.197.592-.416.898-.241.285-.394.657-.329.833.066.153.022.35-.11.416-.11.087-.285.679-.35 1.314-.153 1.139-.197 1.205-1.248 1.774-.876.482-1.139.548-1.271.307-.11-.153-.087-.482.043-.723.285-.526.635-1.993.635-2.651 0-.219.11-.548.241-.702s.176-.285.11-.285 0-.416.11-.942c.131-.503.241-1.818.285-2.892.153-4.031 2.234-9.288 4.578-11.501l.81-.767-.438 1.161c-.745 1.884.022 2.453 2.431 1.797 1.358-.394 3.899-3.571 3.899-4.907 0-.197.197-.723.416-1.183.482-.898 2.431-3.198 2.585-3.023.043.043-.197 1.029-.569 2.191zm14.414 13.998c.503 1.029.569 1.578.241 1.797-.11.066-.022.592.241 1.271.35.898.394 1.292.219 1.753-.241.613-1.402 1.468-1.993 1.468-.176 0-.613.153-.986.35-.35.197-.898.394-1.183.438-.285.066-.942.35-1.468.635-.526.307-.964.482-.964.416 0-.087-.153-.022-.329.131s-.263.35-.219.46c.153.241-.613.635-1.271.635-.592 0-2.672 1.578-2.672 2.038 0 .131-.131.285-.263.285-.153.022-.394.043-.503.066-.131 0-1.008.81-1.993 1.774-.964.964-1.818 1.753-1.906 1.753-.263 0-1.139 1.512-1.139 1.95 0 .241-.11.503-.241.592-.131.066-.372.482-.548.876-.176.416-.416.745-.526.745-.131 0-.219.131-.219.285 0 .635-1.205 1.424-2.519 1.665-2.431.416-3.132.438-3.417.11-.329-.394-.11-.613.92-.942 2.191-.702 4.228-3.329 3.396-4.381-.197-.263-.176-.307.087-.197.569.197 1.906-.767 2.717-1.993.438-.635.788-1.205.788-1.248s.548-.942 1.227-1.972c1.621-2.476 1.906-3.22 1.972-4.863.043-1.49.394-2.563.876-2.76.197-.066.372.043.46.263.657 1.993 1.117 2.147 2.979.964.745-.46 1.468-1.052 1.578-1.271.767-1.468 3.132-4.074 4.929-5.411l.767-.569.241.964c.153.526.46 1.38.723 1.928zM38.773 65.28c1.753.526 3.702 1.753 5.083 3.22 1.753 1.906 2.585 4.118 2.585 6.834-.022 2.059-.263 3.22-1.117 4.994-2.783 5.828-9.178 7.798-15.268 4.688-2.717-1.38-4.753-4.491-5.323-8.128-.503-3.264.592-6.308 3.176-8.894 3.111-3.089 6.572-3.965 10.865-2.717zm122.499 2.694c-.613 1.161-.92 2.388-.702 2.783.131.219.153.569.087.767-.153.394.176 1.818.942 3.877.438 1.183.767 1.665 1.84 2.651.833.745 1.599 1.248 2.059 1.336.876.176 1.029.503.548 1.227-.788 1.227-1.008 1.643-1.555 2.957-.416 1.029-.702 3.264-.745 6.024-.022 1.643-.153 3.155-.285 3.396s-.394.81-.569 1.248c-.197.438-.46.876-.569.942s-.372.46-.569.876-.592 1.008-.876 1.314-.526.702-.526.876-.176.416-.372.526c-.219.11-.679.613-1.052 1.117-.35.503-.81 1.073-.986 1.248-.176.197-.329.416-.329.482s-.197.416-.46.788c-.263.35-.569 1.139-.723 1.731s-.416 1.358-.592 1.687c-.438.876-.964 3.505-.964 4.929 0 .657-.087 1.183-.176 1.183s-.131.35-.087.788c.131 1.117 1.271 2.212 2.431 2.323.503.043.898.022.898-.043s.394-.131.876-.153c.92-.043 1.095-.153 2.41-1.38.679-.657.833-.986 1.095-2.41.153-.898.372-1.753.482-1.906.131-.153.241-1.008.285-1.906s.176-1.818.307-2.059c.131-.263.241-.833.241-1.292s.153-1.117.329-1.468c.176-.329.329-.745.329-.898 0-.176.197-.372.438-.438.482-.153.592-.657.176-.855-.153-.043.022-.11.372-.11.372 0 .986-.066 1.358-.153.702-.131.723-.131.592.548-.087.438-.043.81.153 1.029.263.329.241.35-.131.219-.438-.131-.46-.043-.416 2.563.022 3.417.153 4.074 1.161 6.068 1.402 2.803 1.731 4.929 1.183 7.667-.176.898-.35 1.84-.372 2.081s-.197.679-.394.986c-.46.745-2.498 4.973-2.826 5.849-.131.394-.329.723-.438.723-.087 0-.723.548-1.38 1.227-.679.657-1.358 1.183-1.49 1.139s-.503-.898-.833-1.884c-.307-.964-.767-1.993-.986-2.257-.592-.635-1.555-.986-2.629-.942-.482.022-1.183.043-1.578.066-.372 0-.833.176-1.029.35-.176.176-.46.329-.613.329-.416 0-2.803 2.147-2.803 2.541 0 .176-.087.307-.197.307-.263 0-1.578 2.191-1.424 2.431.066.11.022.197-.066.197-.285 0-.92 1.643-1.292 3.352-.197.92-.372 3.111-.438 5.302-.11 4.338-.153 4.929-.329 4.929-.087 0-.197.285-.263.657-.087.35-.438 1.292-.81 2.059-.35.788-.657 1.643-.657 1.906 0 .394.087.438.569.329 1.687-.438 1.774-.416 2.607.35l.81.723v2.038c0 1.512.11 2.257.394 2.87.219.438.482 1.117.569 1.468s.263.788.416.964c.723.855.635 2.191-.153 2.191-.723 0-6.441 2.629-7.229 3.329l-.723.635.767-.526c.416-.307 1.884-1.008 3.243-1.555 3.22-1.336 3.462-1.292 5.828.92.986.898 1.818 1.774 1.884 1.928.197.526 1.336 1.227 3.132 1.972a34.78 34.78 0 0 0 1.84.745c.043 0 .043 1.117.043 2.453l-.043 2.476-.153-1.731c-.197-2.081-.241-2.125-2.848-2.913-1.029-.307-2.257-.745-2.738-.986l-.876-.416.548.438c.307.241 1.512.745 2.694 1.117 1.468.482 2.234.833 2.431 1.161.197.307.35 1.424.416 3.067.087 2.563.087 2.607-.416 2.783-.285.11-.526.35-.526.548 0 .263.087.241.438-.11.241-.241.548-.438.657-.438.285 0 .285.788-.022 1.336-.219.438-.241.438-.548.043-.307-.372-.329-.372-.197.087.087.307.043.503-.087.503s-.241-.11-.241-.241-.35-1.139-.788-2.234c-.438-1.073-.81-2.366-.833-2.826-.043-.942-.394-1.292-1.227-1.248-1.183.087-1.731-.043-2.541-.592l-.855-.569.657.702c.372.394 1.314 1.161 2.147 1.687 1.578 1.029 2.103 1.797 2.892 4.228.372 1.095.482 2.76.219 3.023-.197.219-.767-.723-.679-1.095.043-.219 0-.394-.11-.394-.263 0-.241.592.043 1.139.176.307.176.394 0 .307-.131-.087-.702-1.008-1.271-2.038-1.161-2.081-1.512-2.388-5.411-4.469-1.095-.613-2.585-1.578-3.286-2.169-.679-.613-1.424-1.095-1.621-1.095s-.702.307-1.073.657c-.702.635-.723.702-.723 2.344 0 1.468.066 1.753.438 1.993.613.372.569 1.095-.087 1.358-.285.11-.569.307-.613.46-.131.372-1.906-1.052-2.212-1.774-.131-.307-.263-2.388-.329-4.644l-.087-4.074.702-.372c1.161-.613.548-.635-.745-.043-.679.307-1.227.503-1.227.416s-.219-.263-.482-.372c-.964-.416-2.257-2.541-3.198-5.17-.503-1.402-.986-2.848-1.052-3.243-.087-.46-.438-.92-.92-1.292-1.512-1.161-2.212-2.191-3.988-5.958-.087-.176-.372-.35-.635-.394-.394-.066-.438-.131-.241-.372.372-.46-.329-2.431-1.008-2.892-.592-.372-.723-.855-.176-.635.285.11.307.022.197-.592-.087-.372-.285-.855-.46-1.052-.176-.176-.307-.46-.307-.592 0-.153-.087-.263-.219-.263-.11 0-.219-.329-.219-.745s-.241-1.271-.548-1.928c-.307-.635-.548-1.358-.548-1.599s-.263-.833-.548-1.314c-.307-.482-.548-1.052-.548-1.271 0-.197-.087-.548-.197-.767-.131-.197-.482-1.008-.788-1.797-.329-.788-.876-2.015-1.227-2.738s-.635-1.555-.635-1.862-.285-1.139-.657-1.862c-.35-.723-.657-1.621-.657-1.993 0-.394-.153-.964-.329-1.314-.153-.329-.372-1.139-.46-1.774-.066-.635-.241-1.161-.35-1.161s-.153-.285-.066-.657c.11-.46.043-.767-.197-1.008-.197-.176-.35-.548-.372-.81 0-.307-.11-.176-.285.394-.176.526-.197 1.073-.087 1.38.087.285.176.964.176 1.533s.153 1.621.307 2.344c.176.723.263 1.38.219 1.468-.176.263-.526.197-.526-.087 0-.131-.372-.613-.855-1.029-.46-.438-1.029-1.095-1.248-1.446-.219-.372-.81-1.205-1.314-1.862a35.887 35.887 0 0 1-1.314-1.906c-.219-.372-1.555-2.388-2.979-4.491-3.264-4.863-4.776-7.339-4.776-7.82 0-.219.219-.657.46-.986l.482-.592 1.271 1.928c.702 1.052 1.38 1.95 1.49 1.993.131.043.416-.307.679-.767.241-.46.657-1.139.876-1.512l.438-.679-.592-.855c-1.884-2.738-2.038-3.002-2.038-3.702 0-.548-.285-1.095-1.095-2.125-1.38-1.753-1.906-2.848-2.323-4.841-.745-3.439-.087-6.353 1.665-7.558.657-.46.942-.503 2.147-.416.833.066 1.533.241 1.774.46.219.197.482.35.592.35.307 0 1.248 1.029 1.928 2.125l.569.92-1.424-1.073c-1.446-1.095-2.519-1.468-3.439-1.205-2.519.767-2.87 5.958-.679 10.406 1.49 3.045 4.118 5.038 6.66 5.038 1.774 0 2.015-.35 2.607-3.943.087-.569.176-.767.197-.438.043.745 1.643 3.527 2.738 4.798.702.788 2.081 1.599 2.607 1.512.263-.043.592-.285.723-.569.394-.81.503-.81.833-.022.503 1.205.788 3.768.876 8.018.066 3.79.11 4.053.592 4.776.285.416.635.767.745.767.131 0 .526.503.876 1.117.372.613 1.073 1.49 1.578 1.972.767.702 1.095.855 1.84.855 1.227 0 2.147-.613 2.936-1.95.416-.723.81-1.117 1.073-1.117.635 0 2.3.855 2.541 1.314.11.219.679.702 1.227 1.073.855.548 1.248.679 2.257.679 2.76 0 5.762-2.498 6.615-5.498.153-.526.35-1.073.416-1.183.329-.46.438-2.038.176-2.125-.176-.066-.153-.241.11-.613.329-.46.35-.92.241-3.439-.087-1.993-.066-2.913.087-2.913s.11-.372-.131-.986c-.438-1.183-2.3-3.176-4.053-4.338-1.336-.898-1.774-1.402-1.993-2.388l-.131-.592 1.424.657c3.111 1.402 6.66 1.643 9.77.657 3.571-1.139 6.615-4.819 7.536-9.135.438-2.015.416-2.979-.11-4.994-.548-2.191-1.468-3.899-2.892-5.389-.702-.723-1.139-1.336-1.095-1.578.043-.219-.131-1.029-.394-1.774-.416-1.183-.46-1.621-.329-3.439.087-1.183.285-2.257.46-2.519.176-.241.307-.592.307-.788 0-.46 1.336-1.818 2.169-2.191.372-.176.679-.394.679-.503s.066-.131.153-.066c.066.087.022.372-.11.657zm-58.687 9.332c1.512 1.95 2.3 2.212 4.907 1.665l.702-.153-.657 1.271c-.372.679-.723 1.774-.81 2.41-.131 1.029-.241 1.205-1.292 2.038-.635.482-1.38 1.314-1.687 1.818-1.665 2.892-1.161 9.551 1.052 13.911.702 1.402.745 2.585.131 2.913-.46.241-.657-.022-1.008-1.446-.087-.307-.197-.503-.241-.438-.066.066.066.613.263 1.248.482 1.424.329 2.038-1.336 5.213-.92 1.797-1.117 2.344-.942 2.672.219.438-.066 1.292-.46 1.292-.131 0-.219-.197-.219-.438 0-.657-.503-.526-1.555.416-.876.788-.942.898-.679 1.336.153.241.219.548.153.657-.197.329-.92.263-1.073-.11-.197-.526-.482-.394-1.205.592-.526.702-.613.986-.416 1.205.285.35.241.394-.438.592-.329.11-.526.066-.613-.176-.176-.438-.833-.46-1.183-.022-.153.176-.657.438-1.139.569-.635.153-.833.307-.745.569.46 1.161.416 1.336-.438 1.599-.702.241-.833.219-1.008-.066-.176-.329-.285-.329-1.117.066-.503.219-1.183.46-1.512.548-.416.087-.613.263-.613.548 0 .438-.723.876-1.446.876-.153 0-.81-.702-1.424-1.533-1.008-1.38-1.183-1.533-1.862-1.533-.416 0-1.095.153-1.512.307-.898.394-.964.833-.329 2.147.592 1.205.569 1.271-.329 1.271-.679 0-.767-.066-.767-.548 0-.526-.066-.569-.92-.503-.526.022-1.161-.022-1.424-.131-.416-.131-.503-.087-.503.307 0 .46.022.46-1.753 0-.329-.087-.569-.329-.613-.592-.043-.307-.329-.569-.745-.702-.855-.307-1.928-.307-1.928-.022 0 .153-.131.153-.438 0-.285-.153-.438-.46-.438-.898 0-1.008-.372-1.512-1.599-2.059-1.161-.548-1.468-.548-1.468.043 0 .285-.176.197-.657-.263-1.095-1.052-1.972-2.563-1.818-3.155.11-.394-.11-.723-1.052-1.687-.635-.657-1.248-1.183-1.314-1.183-.087 0-.197.219-.241.482-.066.46-.153.416-1.139-.526-1.052-1.008-1.073-1.052-.942-2.081.329-2.498.416-7.033.153-8.828-.131-1.029-.285-2.103-.307-2.41-.043-.307-.372-1.38-.723-2.41-.548-1.533-1.183-4.074-.788-3.111.043.131.176.219.285.153.219-.131.592.833.745 1.928.11.898 1.402 3.877 1.687 3.877.087 0-.022-.503-.263-1.095-.219-.613-.416-1.446-.416-1.862v-.788l.613.329c.329.176 1.183.482 1.906.679s1.468.416 1.643.482.702.153 1.161.176c.592.043 1.073.285 1.687.855.482.438.81.788.723.788-.066 0-.745-.35-1.49-.767-.986-.548-1.358-.657-1.358-.438 0 .176.153.329.35.329.263 0 .263.066.066.263-.46.46-.307 1.687.285 2.257.569.592.898.657 1.731.329.35-.131.569-.372.569-.657 0-.679.329-.526 1.073.482.372.503.679.81.679.657s-.35-.657-.788-1.139c-.898-.986-.855-1.052.307-.46.788.394 1.358.394 1.358.022 0-.087-.176-.131-.372-.087-.285.087-2.783-1.49-3.505-2.169-.022-.022 1.753-.043 3.943-.043s4.425-.066 4.973-.176l.986-.153-.81.767c-1.818 1.687.745.46 4.074-1.972 1.227-.876 2.848-1.972 3.615-2.41 1.774-1.052 2.234-.898 2.783.855.219.679.416 1.183.482 1.139.043-.066-.131-.833-.394-1.708l-.482-1.621 1.139-1.708c1.314-1.972 2.191-3.571 2.191-3.988 0-.329.592-.964.92-.964.11 0 0 .329-.241.745-.263.394-.46.855-.46 1.008 0 .131-.197.503-.438.81-.35.438-.438.855-.416 2.015l.043 1.446.153-1.599c.197-1.708.679-2.431 1.708-2.453 1.248-.022 1.468 4.162.372 7.82-.372 1.227-1.271 2.278-2.344 2.717-.526.219-.613.372-.613 1.183 0 1.928-2.169 7.251-4.118 10.12-1.424 2.103-3.746 4.36-5.126 4.994-3.899 1.774-6.725 1.117-10.492-2.453-2.76-2.629-4.798-5.828-6.572-10.296-.372-.942-.723-1.753-.788-1.818-.087-.066-.066.066 0 .285.219.592-.241.219-.745-.592-.219-.372-.416-.592-.416-.503 0 .35.679 1.446 1.052 1.731.241.153.548.679.702 1.161.329 1.008 1.993 4.403 2.76 5.608.285.46.46.986.394 1.161-.131.329-.81.635-1.95.898l-.657.153.548.219c.503.197 1.993.263 2.87.11.197-.022 1.095.679 2.015 1.533 1.555 1.468 1.665 1.621 1.468 2.169-.131.307-.503.679-.876.81s-.657.35-.657.46c0 .35 2.059-.066 2.498-.503.416-.416.438-.416 1.533.197.613.35 1.533.702 2.059.788.855.131.92.197.92.855 0 .767-1.029 2.476-1.906 3.176-.503.394-.526.438-.131.438 1.117 0 3.329-2.278 3.548-3.658.131-.745.197-.81 1.49-1.161.767-.197 1.774-.657 2.257-.986 1.862-1.292 4.753-4.819 6.046-7.383 1.161-2.3 2.278-5.126 2.498-6.375.131-.613.329-1.183.46-1.205.482-.176 1.555-1.227 1.884-1.884 1.008-1.95 1.643-6.615 1.183-8.609-.263-1.117-1.008-1.84-1.533-1.512-.35.219-.307.087.35-1.161.613-1.183.548-1.643-.11-1.052-.723.657-.92.46-.92-1.008 0-1.708.372-2.059 1.555-1.49.898.438 1.008.46 2.607.569.92.043 1.512-.066 2.519-.503.723-.307 1.424-.679 1.555-.855.131-.153.35-.285.482-.285.329 0 2.015-2.147 2.015-2.541 0-.569.372-.307 1.38.986zm50.384-.307c2.344.482 4.207 1.512 5.958 3.286 2.388 2.388 3.396 4.732 3.396 7.886 0 3.329-1.227 6.199-3.702 8.653-2.169 2.125-3.877 2.87-7.033 3.023-6.178.263-10.909-3.111-12.377-8.828-.986-3.877.176-7.843 3.176-10.844 2.936-2.936 6.572-4.031 10.581-3.176zm-40.461 12.793c.46.35 1.161.942 1.512 1.336l.657.723-1.029-.788c-1.205-.898-2.059-1.139-2.87-.833-1.117.438-1.336 2.323-.569 5.06.592 2.169 1.512 3.855 2.979 5.477.942 1.029 1.117 1.314.767 1.314-.942 0-3.308-3.045-4.228-5.455-.702-1.862-1.117-4.162-.964-5.213.307-2.147 2.015-2.892 3.746-1.621zm-53.536 2.433.569 1.774-.767-.679c-.416-.372-1.052-.723-1.402-.81l-.635-.11.702-.964c.372-.526.745-.964.833-.964.066 0 .394.788.702 1.753zm54.59.482c1.271 1.248 1.972 2.738 2.234 4.753.153 1.248-.153 1.49-.92.657-.329-.35-.35-.482-.11-.635.81-.482-.569-4.118-1.797-4.732-1.49-.788-1.643 1.161-.307 3.943 1.336 2.738 2.717 4.272 3.636 3.965.569-.176.723-.613.898-2.3l.131-1.424.176 1.292c.219 1.512-.11 2.892-.723 3.089-1.008.307-3.067-1.117-4.097-2.87-.855-1.446-1.621-3.899-1.621-5.192 0-2.038.788-2.212 2.498-.548zm-52.947.438c-.066.176-.131.11-.131-.131-.022-.241.043-.372.11-.285.066.066.087.263.022.416zm18.467 1.161c0 .131-1.599 1.205-1.818 1.205-.329 0 .087-.46.81-.898.679-.416 1.008-.503 1.008-.307zM54.919 99.87c-.066 1.271-.285 2.957-.482 3.746-.46 1.731-2.081 5.213-2.717 5.783-.372.329-.263.022.394-1.314 1.336-2.629 2.015-5.236 2.103-8.018.043-1.292.131-2.563.219-2.826.153-.46.176-.46.372-.087.131.219.176 1.336.11 2.717zm-1.993 3.067c-.131 1.073-.745 3.002-.767 2.498-.022-.416.679-3.571.81-3.571.043 0 .043.482-.043 1.073zm53.977 6.353c.131.35 1.314 2.278 2.629 4.315 1.708 2.629 2.344 3.768 2.212 4.008-.11.197-.263.81-.329 1.38-.087.569-.241 1.095-.372 1.161-.11.087-.197.372-.197.679s-.153.788-.35 1.073c-.197.307-.307.548-.219.548.066 0-.176.503-.526 1.095-.35.613-.723 1.38-.788 1.708-.087.329-.394.92-.702 1.314-.855 1.139-.416 1.052.635-.131.526-.592 1.665-2.388 2.498-3.988.855-1.599 1.643-2.957 1.797-3.002.241-.087 1.862 1.993 4.776 6.112l1.358 1.906-.219 1.599c-.11.876-.285 1.687-.394 1.818-.11.11-.197.394-.197.657s-.11.569-.241.702c-.263.263-.855 1.314-1.468 2.585-.241.482-.679 1.271-1.008 1.731-.307.46-.569 1.029-.569 1.227 0 .526-2.541 2.87-4.097 3.768-2.498 1.468-3.965 1.818-4.798 1.161-.416-.329-.416-.35.087-.679.613-.46.613-.942-.043-2.585-.307-.745-.745-2.476-1.008-3.855s-.526-2.651-.569-2.803c-.066-.219-.35-.241-1.052-.153l-.942.153-.153-1.008c-.087-.569-.329-1.183-.569-1.402-.219-.197-.46-.81-.548-1.358-.263-1.621-.657-2.169-1.797-2.476-.548-.131-1.052-.372-1.095-.526-.153-.394-1.599-.35-1.906.043-.197.263-.635.285-2.278.176-1.271-.087-2.169-.241-2.344-.438-.176-.153-.635-.285-1.052-.285-.592 0-.788.11-.876.482-.11.416-.307.219-1.248-1.227-.613-.942-1.095-1.753-1.052-1.774.043-.043.438-.219.898-.416.723-.285.855-.285.964-.022.285.788 2.629-.176 2.41-.986-.087-.307.087-.482.745-.745 1.073-.438 1.271-.438 1.753 0 .46.416 1.029.263 1.95-.482.548-.482.613-.613.416-1.117-.219-.613-.131-.833.416-.855.219 0 .788-.197 1.292-.416.702-.285.942-.526.986-.964.043-.372.657-1.139 1.862-2.3 1.731-1.643 1.84-1.708 2.212-1.38.548.503.81.46 1.446-.219.503-.548.526-.635.241-1.095-.176-.263-.329-.635-.329-.833 0-.372 1.139-2.519 1.336-2.519.087 0 .263.285.416.635zm23.789 2.651c.131.767.35 1.446.503 1.49.131.043.241.307.241.569s.11.592.263.745c.197.197.176.263-.087.263-.416 0-.702 1.446-.679 3.439.022 1.183-.022 1.38-.416 1.512-1.599.503-3.417-5.345-2.015-6.507.176-.131.307-.35.307-.46s.307-.569.657-1.029c.46-.569.613-.942.526-1.227-.11-.263-.066-.35.153-.285.153.043.394.702.548 1.49zm8.784-1.052c-.066.176-.131.11-.131-.131-.022-.241.043-.372.11-.285.066.066.087.263.022.416zm-.592 2.936c0 .043-.153.087-.329.087s-.329-.087-.329-.219c0-.11.153-.153.329-.087.176.087.329.176.329.219zm-72.29 4.841c0 .503-.197.307-.679-.657l-.46-.92.569.657c.307.35.548.788.569.92zm-.788-.176c.526 1.008 2.717 4.381 3.834 5.871l.526.702-.592.679c-.307.372-.613.898-.679 1.161-1.161 5.411-1.38 7.294-.986 8.39.197.46.176.679-.087.92-.285.285-.482.285-1.183.087-1.052-.329-2.388-.35-2.563-.043-.241.394-1.358-.394-1.753-1.227-.416-.876-.46-.569.876-5.17.219-.767.241-1.227.066-1.862l-.219-.833-.372 1.424c-.372 1.446-1.073 2.629-3.308 5.433-.592.745-1.183 1.774-1.336 2.278-.394 1.49-.176 5.345.372 6.441l.438.898-.898.657c-.482.372-1.161.81-1.49.964-.548.241-.657.219-1.073-.197-.46-.46-.46-.46-.066-1.358.219-.482.329-.942.263-1.029-.087-.066-.153.043-.153.241 0 .219-1.073 1.446-2.41 2.738-1.731 1.687-2.41 2.498-2.41 2.892-.022.503-1.446 1.818-2.803 2.563-.592.35-.635.438.526-1.38.986-1.555 4.031-7.732 5.017-10.187.46-1.139 1.052-2.366 1.292-2.717.219-.35.438-.942.438-1.314.022-.46.307-1.029.855-1.665 1.578-1.906 5.192-8.193 6.638-11.544.526-1.248 1.292-2.76 1.731-3.373.416-.613.767-1.205.767-1.314 0-.416.241-.153.745.876zm71.983.153c0 .176-.087.307-.219.307-.11 0-.219-.197-.219-.46 0-.241.11-.372.219-.307.131.066.219.285.219.46zm-15.115 13.692a140.342 140.342 0 0 0 1.424 3.79c.81 1.972.679 2.41-.503 1.731-.613-.35-.657-.46-.745-2.147-.066-1.38-.219-1.993-.702-2.87-.592-1.095-1.49-1.84-2.212-1.84-.241 0-.329-.131-.241-.394.066-.197.176-.679.263-1.029.241-1.029.285-1.029 1.161-.11.592.635 1.052 1.468 1.555 2.87zm-60.022-1.774c0 .11-.087.219-.219.219a.236.236 0 0 1-.219-.219.22.22 0 0 1 .219-.219c.131 0 .219.087.219.219zm-6.243 1.292c-.066.131-.329.35-.569.46-.329.176-.416.153-.416-.087 0-.197.131-.285.307-.219.153.066.35-.066.438-.263s.197-.307.263-.241.066.219-.022.35zm64.47.876c.131.307.307 1.402.372 2.431.153 2.038.482 2.803 1.446 3.373.35.219 1.095.767 1.643 1.248.548.46 1.117.855 1.271.855.372 0 2.76 6.09 2.76 7.053 0 .241-.372.219-1.424-.087l-.876-.241.723-.285c.372-.176.702-.35.702-.394s-.657-.46-1.468-.898c-1.38-.767-1.533-.788-2.234-.548s-.767.241-1.248-.35c-.416-.548-.46-.679-.176-.876.153-.131.307-.307.307-.372s-.745-.526-1.643-1.029c-1.533-.855-1.665-.876-2.125-.569-.702.503-1.008.438-1.797-.394-.898-.964-1.95-1.183-3.527-.745l-1.161.329 1.731-1.621c1.862-1.774 3.176-3.593 4.469-6.222.81-1.621.855-1.665 1.424-1.446.307.131.702.482.833.788zm-58.774-.482c-.263.657-.394 1.972-.263 2.519.087.285.438.833.81 1.205.788.81.876.503-1.139 3.834-.702 1.183-1.271 2.323-1.271 2.585 0 .241-.153.438-.329.438s-.329-.131-.329-.307-.153-.35-.329-.438c-.176-.066-.263-.241-.197-.416.153-.416-.307-1.533-.569-1.358-.131.087-.153-.043-.043-.372.11-.285.219-1.029.241-1.687.043-.833.219-1.424.592-1.972.285-.438.526-.986.526-1.227 0-.263.285-.679.635-.942.35-.241.702-.723.788-1.073.176-.702.503-1.161.81-1.161.131 0 .153.176.066.372zm34.02.942c1.884.855 3.111 2.892 3.111 5.213 0 1.643-.35 2.541-1.446 3.746-1.248 1.402-2.541 2.081-3.615 1.906-2.957-.482-5.63-3.505-5.148-5.871.219-1.095 1.117-2.278 2.212-2.936.855-.503 1.183-.569 2.3-.482 1.533.11 2.651.855 3.352 2.234.876 1.665.46 3.417-1.008 4.293-.898.548-1.753.548-2.913 0-2.169-1.052-2.366-3.155-.416-4.097.898-.438 1.621-.197 2.212.702.329.503.329.592 0 1.095-.394.613-1.029.702-1.446.219-.219-.263-.219-.394 0-.657s.219-.329-.066-.329c-.35 0-.81.613-.81 1.095 0 .131.241.482.548.767 1.095 1.117 3.22.329 3.527-1.314.197-1.073-.569-2.585-1.533-3.045-2.607-1.248-5.783 1.336-4.973 4.031.35 1.205 1.227 2.169 2.541 2.76 1.292.613 2.015.657 3.111.197 1.708-.723 2.476-2.015 2.476-4.272 0-1.797-.503-2.936-1.774-4.008-1.621-1.402-3.329-1.555-5.411-.503-2.169 1.117-3.527 3.22-3.548 5.455 0 1.424.35 2.278 1.402 3.417l.679.745-.723-.503c-1.731-1.183-2.738-3.615-2.257-5.411.372-1.358 1.533-2.936 2.694-3.658 1.993-1.205 5.192-1.578 6.923-.788zm-40.877.92c-.153.153-.263.176-.263.043 0-.307.263-.569.416-.416.043.066-.022.241-.153.372zm101.185 31.436c.285.329.263.329-.176.087-.526-.263-.635-.46-.307-.46.11 0 .329.153.482.372zm-8.784 5.258c.702.592 1.665 1.248 2.125 1.468 1.49.767 4.534 2.607 5.06 3.067.285.263.767.898 1.073 1.446 1.468 2.563 2.125 3.176 2.803 2.629.176-.153.329-.592.329-1.008 0-.503.131-.81.438-.964.833-.46 1.008-1.095 1.292-4.819.087-1.139.176-1.95.197-1.797s.679 1.731 1.49 3.505a442.27 442.27 0 0 1 1.993 4.534c1.073 2.541 2.366 5.258 2.629 5.608.285.35.986 1.599 1.972 3.527.285.592.613 1.052.723 1.052.131 0 .219.241.219.526 0 .92.219 1.248.657 1.008.702-.372.92.438.307 1.117-.197.219-.35.635-.35.942 0 .592-.416.855-.942.657-.176-.087-.548 0-.833.176-.592.394-3.965 1.884-4.863 2.169l-.657.197.548-.438.548-.416-.964.131c-1.972.263-4.293.855-4.25 1.095.022.131-.416.394-.986.613-.569.197-1.38.592-1.797.876-.416.263-1.117.548-1.555.635-.702.131-.898.066-1.468-.503-.35-.372-.613-.702-.569-.745.11-.11-.46-2.103-.855-3.067-.219-.503-.46-.788-.613-.702-.131.11-.197 0-.153-.263.022-.219-.11-.702-.35-1.029-.219-.35-.394-.964-.394-1.358 0-.416-.087-.745-.219-.745-.11 0-.131-.197-.066-.46.11-.307 0-.592-.307-.876-.241-.219-.548-.833-.679-1.358a67.868 67.868 0 0 0-.788-2.672c-.702-2.257-1.512-5.937-1.993-8.982-.285-1.753-.416-2.191-.46-1.578l-.066.855-.526-.569c-.416-.46-.526-.833-.569-1.993-.043-1.227.022-1.49.46-1.972.285-.307.657-.548.81-.548.176 0 .898.46 1.599 1.029zm9.113.592c.066.176.087.482.043.657-.043.285-.241.219-1.052-.307l-.986-.657h.942c.613 0 .986.11 1.052.307zm3.527 2.694c-.066.219-.11.043-.11-.372s.043-.592.11-.394c.043.219.043.569 0 .767zm-15.641 2.366c-.066.197-.176.307-.219.241-.066-.066-.043-.197.043-.329.197-.35.329-.285.176.087zm-110.255 2.606c0 .394-.81 1.073-1.292 1.117-.548.043-.35-.657.35-1.205.569-.438.942-.416.942.087zm136.672 16.123c.372.613.679 1.205.679 1.336 0 .11.153.438.329.723.329.503.307.526-1.139 1.292-.833.416-2.103 1.029-2.848 1.336-1.512.635-4.293 1.117-4.798.833-.176-.087-.503-.526-.723-.942s-.767-.942-1.248-1.205c-.503-.263-.876-.635-.92-.92-.043-.263-.263-.482-.548-.548-.35-.043-.219-.11.394-.241 2.629-.482 5.104-1.117 7.339-1.884 1.38-.482 2.585-.876 2.672-.876.066 0 .438.503.81 1.095zM24.6 200.727c.679.307 1.248.679 1.248.81 0 .416-1.555 2.191-2.717 3.111-1.052.833-1.095.855-2.41.702-.723-.066-1.906-.329-2.629-.569-1.424-.46-5.498-2.453-5.696-2.783-.087-.11.022-.569.241-.986.35-.745.416-.788 1.139-.635 1.008.219 4.293.131 5.279-.153 1.446-.372 4.14-.153 5.543.503zm151.964 4.096c0 .11-.153.153-.329.087-.176-.087-.329-.176-.329-.219s.153-.087.329-.087.329.087.329.219z"/><path d="M81.031 83.463c-1.292.745-7.558 1.774-12.246 1.972l-3.834.176 4.272-.066c3.023-.043 5.017-.197 6.791-.526 2.848-.503 5.477-1.248 5.477-1.555 0-.263-.022-.263-.46 0zm-.197 1.205c0 .197.11.329.241.285s.241-.176.241-.285-.11-.241-.241-.285-.241.087-.241.285zm-17.525 2.081c0 .11.11.219.219.219a.22.22 0 0 0 .219-.219c0-.131-.087-.219-.219-.219a.219.219 0 0 0-.219.219zm11.325.285c-.307.46-.46.503-1.512.416-1.029-.087-1.271-.022-1.774.416-.635.569-2.169 3.505-1.928 3.746.066.066.745.263 1.468.416 1.774.35 2.848 0 3.462-1.139.372-.702.394-.876.153-1.49-.679-1.578-3.198-.898-2.783.767.197.745 1.139.942 1.731.35.241-.263.394-.548.307-.635-.087-.066-.285-.022-.416.11a1.033 1.033 0 0 1-.657.263c-.613 0-.503-.833.153-1.139 1.183-.526 1.708 1.139.635 1.993-.767.592-1.424.592-2.015-.043-.679-.723-.657-1.972.087-2.694.548-.569.635-.592 2.344-.263.46.066 1.621-1.227 1.292-1.446-.131-.066-.372.11-.548.372zm6.901-.043c.043.131.176.219.285.219s.241-.087.285-.219-.087-.241-.285-.241-.329.11-.285.241zm-19.299.197c-.022.569 1.073 4.403 1.424 5.038.372.613 1.358 1.314 1.884 1.314.153 0-.043-.176-.46-.394-1.117-.548-1.49-1.205-2.191-3.877-.35-1.336-.657-2.257-.657-2.081zm1.731 2.191c0 .11.11.219.219.219a.22.22 0 0 0 .219-.219c0-.131-.087-.219-.219-.219a.219.219 0 0 0-.219.219zm18.073.241c-.219.329.066.548.35.263.153-.153.153-.285.022-.372-.131-.066-.307-.022-.372.11z"/><path d="M64.843 92.225c0 .11.11.219.219.219a.22.22 0 0 0 .219-.219c0-.131-.087-.219-.219-.219a.219.219 0 0 0-.219.219zm1.38 1.468c.197.043.503.043.657 0 .131-.066-.022-.11-.394-.11-.35 0-.482.043-.263.11zm2.738.219c.745.043 1.928.043 2.629 0 .679-.043.066-.066-1.38-.066s-2.015.022-1.248.066zm3.593 32.728a.622.622 0 0 0 .372.372c.176.066.263-.022.197-.197a.622.622 0 0 0-.372-.372c-.176-.066-.263.022-.197.197zm26.353 16.999c-1.314 1.512-2.826 2.147-5.083 2.125-1.818 0-2.015.066-1.578.503.131.131.285.81.35 1.533.197 2.103-.702 3.417-3.439 4.973l-.986.569h1.008c1.468 0 3.681-.745 5.213-1.774 1.84-1.227 3.834-3.483 4.732-5.323.723-1.512 1.227-3.658.855-3.615-.11 0-.592.46-1.073 1.008zm-44.141 3.133c-.241.153-.153.219.394.219 1.161 0 2.169.613 3.571 2.169 2.541 2.803 5.148 6.791 6.703 10.253.416.942.702 1.402.613 1.052-.569-2.629-3.746-7.777-7.163-11.567-1.84-2.038-3.176-2.738-4.118-2.125zm-1.095 3.834c0 .022.329.263.745.503.657.394 1.555 1.38 2.826 3.111.241.329.197.176-.11-.416-.702-1.336-2.038-2.783-2.803-3.045-.35-.131-.657-.197-.657-.153zm37.46 3.264c0 .241.46.855 1.008 1.38l1.008.942-.372.81c-.482.986-.767 7.186-.372 7.865.197.329.219.176.131-.679-.197-1.643.263-6.528.657-7.317.482-.942.46-1.029-.548-1.599-.526-.285-1.052-.788-1.205-1.161-.219-.482-.285-.548-.307-.241zm-44.316 1.336c.613.263 1.008.702 2.212 2.431.153.241 0-.11-.329-.745-.657-1.314-1.424-2.015-2.125-2.015-.372.022-.307.087.241.329zm6.003.986c1.052 1.446 1.555 2.431 2.3 4.447.416 1.117.702 1.665.613 1.248-.329-1.884-2.059-5.345-3.067-6.134-.307-.241-.263-.11.153.438zm6.967 2.41c1.117 2.147 1.774 4.338 1.972 6.725l.176 1.928.043-1.555c.043-2.541-1.248-6.66-2.585-8.193-.285-.35-.131.066.394 1.095zm6.397 2.979c0 .241.066.307.131.131.066-.153.043-.35-.022-.416-.066-.087-.131.043-.11.285zm-40.332.087c.438.285 1.468.285 1.643 0 .087-.131-.263-.219-.92-.219-.767 0-.964.066-.723.219zm40.57.876c0 .307.043.416.11.263a1.179 1.179 0 0 0 0-.548c-.066-.131-.11-.022-.11.285zm.241 1.972c0 .788.043 1.095.087.702a7.875 7.875 0 0 0 0-1.424c-.043-.372-.087-.066-.087.723zm-14.349-.219c.087.548.153 1.774.131 2.738-.022 1.533 0 1.643.176.876.241-.986.087-3.22-.241-4.053-.176-.438-.197-.329-.066.438zm4.25 2.979c-.022.855-.197 2.038-.372 2.607-.372 1.292-.241 1.578.219.46.241-.592.329-1.358.263-2.717-.066-1.884-.066-1.884-.11-.35zm-31.283 4.819c-.394.307-.394.329.087.087.263-.131.482-.285.482-.329 0-.176-.11-.131-.569.241zm9.508-.022c-.066.066-1.139.307-2.388.548-2.234.416-4.272 1.052-4.074 1.248.066.043.613-.087 1.227-.307.92-.307 1.205-.329 1.555-.11.569.35.767.329.46-.043-.197-.241 0-.35 1.095-.548a33.898 33.898 0 0 0 1.621-.372c.197-.087.241.197.197 1.052-.066 1.205 0 1.095.241-.329.087-.569.285-.898.613-1.029.46-.197.482-.197.022-.197-.241-.022-.503.022-.569.087zm-12.268 1.468c-.285.285-.372.394-.176.263.176-.131.526-.35.767-.482s.329-.263.176-.263-.482.219-.767.482zm-1.665 2.3c-.394.548-.702 1.008-.657 1.052s.394-.372.81-.898c.416-.548.702-1.008.657-1.052s-.416.372-.81.898zm13.692-.372c-.087.416-.372.767-.81.986-.613.329-1.533 1.731-1.533 2.344.022.153.176-.066.35-.482s.767-1.183 1.292-1.665c.569-.526.986-1.117.986-1.38 0-.657-.153-.569-.285.197zm-14.568 2.3c0 .35.043.482.11.263a1.685 1.685 0 0 0 0-.657c-.066-.131-.11.022-.11.394z"/></g><g class="bow" fill="#0533ee"><g class="bow"><path d="M77.086 1.414c0 .253.069.321.138.138.068-.16.045-.367-.023-.436-.07-.091-.138.046-.115.298zm-.688 1.789c-.39.802-1.49 2.085-3.484 4.057-3.003 2.98-3.782 4.08-4.103 5.914-.092.573-.481 1.72-.825 2.545-.734 1.765-.986 4.47-.574 6.464.436 2.086 1.926 4.883 3.301 6.212 3.6 3.53 9.834 4.424 14.235 2.04 3.484-1.857 6.097-6.487 6.097-10.75 0-3.164-1.077-5.731-3.323-7.977-1.948-1.95-5.249-3.554-7.266-3.554-.344 0-.642-.092-.642-.207 0-.481-1.215-1.627-1.72-1.627-.275 0-.78-.207-1.123-.482-.687-.55-.78-1.33-.23-2.613.528-1.306.276-1.33-.343-.023zm.253 2.82c.16.114.665.366 1.1.526s.985.505 1.215.78l.435.459-1.857.275c-2.659.39-4.928 1.513-6.83 3.415-1.238 1.238-1.468 1.398-1.353.894.275-1.055 1.215-2.27 3.323-4.332 1.147-1.124 2.316-2.361 2.59-2.797l.528-.756.275.642c.138.366.413.756.573.893zm5.203 2.704c6.075 1.444 9.88 7.244 8.642 13.18-1.673 8-9.467 11.828-16.78 8.23-4.447-2.2-7.06-7.725-5.96-12.63.894-4.035 4.7-7.955 8.55-8.872 1.376-.32 3.943-.275 5.548.092z"/><path d="M77.361 12.6c-1.375.436-2.361 1.1-3.714 2.545-2.82 2.98-3.003 6.144-.48 8.917 1.58 1.72 2.59 2.086 5.845 2.086 2.338 0 2.613-.046 3.873-.688 2.545-1.284 4.08-3.828 4.104-6.762.023-1.88-.642-3.324-2.086-4.585-1.788-1.581-5.135-2.246-7.541-1.513zm5.845 1.33c1.582.734 2.797 3.072 2.797 5.318 0 1.88-1.811 4.447-3.851 5.502-2.934 1.513-7.61-2.2-7.037-5.57.366-2.155 2.957-4.127 5.088-3.829 1.513.207 2.453.871 3.14 2.247s.734 2.2.207 3.324c-1.284 2.75-6.097 1.857-6.097-1.124 0-.962 1.146-2.017 2.2-2.017 1.56 0 2.361 1.995 1.01 2.499-.78.298-1.124.046-1.032-.688.114-.756-.07-.825-.596-.298-.459.436-.459.986-.023 1.628.504.71 1.535.871 2.521.39 1.399-.665 1.857-2.132 1.123-3.668-1.215-2.545-5.661-1.628-6.556 1.306-.688 2.339 1.582 5.02 4.287 5.02 2.223 0 3.805-1.512 4.287-4.034.298-1.65.023-2.82-.94-4.149-1.307-1.788-3.462-2.315-5.846-1.444-2.705 1.009-4.492 3.461-4.492 6.143 0 1.605.183 2.086 1.237 3.232.62.711.642.757.138.436-.871-.527-2.017-2.132-2.315-3.232-.642-2.43.87-5.272 3.53-6.579 2.384-1.169 5.25-1.33 7.22-.412zm26.866-3.232c0 1.536-.276 2.338-1.422 4.012-.848 1.238-1.33 2.888-1.788 5.914-.573 3.828-.23 6.19 1.33 9.192 2.04 3.92 6.235 6.304 11.094 6.304 3.53 0 5.983-.986 8.344-3.347 1.536-1.559 2.865-3.874 3.415-5.96.436-1.627.482-4.607.092-6.166-1.72-7.083-10.43-11.324-17.077-8.275-1.376.642-1.765.504-2.017-.665-.092-.39-.573-1.055-1.078-1.513l-.893-.848v1.352zm1.192.138c.23.206.412.573.412.825 0 .275.207.688.436.94.458.481.458.481-.849 1.513-.71.573-1.857 1.81-2.498 2.728-.665.916-1.215 1.558-1.215 1.421 0-.55 1.008-2.843 1.696-3.85.848-1.262 1.284-2.362 1.284-3.302 0-.756.138-.825.733-.275zm10.934 1.375c3.094.849 6.372 3.393 7.68 5.96 2.383 4.7 1.237 10.774-2.775 14.648-1.834 1.81-5.043 3.071-7.747 3.071-3.026 0-6.808-1.467-8.78-3.392-3.736-3.645-4.745-9.903-2.292-14.258 2.98-5.273 8.298-7.588 13.914-6.029z"/></g><g class="bow" fill="#8b1a21"><path d="M117.751 14.205c-1.834.573-3.026 1.444-4.195 3.072-.87 1.238-1.65 3.576-1.65 4.997 0 2.246 1.673 4.928 3.85 6.235.94.527 1.33.619 2.912.619 2.132 0 3.3-.459 5.02-1.972 1.375-1.215 2.109-2.82 2.453-5.364s-.023-4.057-1.307-5.57c-1.65-1.926-4.653-2.774-7.083-2.017zm4.378 1.307c1.811.87 3.462 3.3 3.163 4.63-.802 3.782-5.41 6.647-8.091 5.066-1.467-.871-2.316-2.796-1.995-4.516.184-1.031 1.605-2.636 2.751-3.163 1.123-.504 2.682-.55 3.53-.115 2.545 1.307.94 5.869-2.063 5.869-.985 0-1.788-.826-1.788-1.834 0-1.376 1.742-2.43 2.522-1.49.481.596.183 1.146-.642 1.146-.528 0-.734.092-.688.32.184.94 1.742.872 2.407-.114 1.009-1.558.023-3.37-1.81-3.37-2.064 0-3.393 1.33-3.393 3.416s1.627 3.668 3.53 3.439c1.192-.138 2.842-1.216 3.668-2.384.962-1.353 1.1-3.256.32-4.379-.779-1.169-1.81-1.673-3.598-1.81-1.949-.138-3.508.48-4.837 1.925-1.146 1.261-1.375 1.834-1.375 3.484.023 3.164 2.681 5.777 5.89 5.777 1.17 0 2.247-.413 3.44-1.307l.87-.618-.688.733c-.366.412-1.283 1.054-2.04 1.421-2.98 1.49-6.074.482-7.495-2.475-.688-1.422-.757-4.677-.138-6.258 1.146-3.003 5.662-4.791 8.55-3.393zm-71.496 6.625c-2.498 1.948-2.636 2.315-1.535 3.92.366.55.687 1.168.687 1.375 0 .183-.32.848-.71 1.467l-.688 1.1.481.481.504.481-.275-.527c-.23-.459-.183-.665.367-1.444.78-1.146.802-1.972.023-3.003-.894-1.17-.802-1.696.55-2.98.665-.62 1.238-1.078 1.284-1.009.046.046-.069.596-.275 1.215-.482 1.422-.505 3.668-.023 4.585.985 1.902 2.773 2.43 4.4 1.26l.894-.641.023 1.283c0 1.513.321 2.11 2.522 4.745 2.017 2.407 2.659 3.783 2.797 5.937.114 1.789-.253 4.172-.78 5.135l-.298.573.092-.687c.298-2.086.298-2.682 0-4.287-.825-4.7-4.791-8.596-9.628-9.467-.87-.16-1.696-.321-1.833-.367-.436-.114-3.003.321-4.218.734-1.766.619-3.232 1.627-4.768 3.277-2.797 2.98-3.806 6.442-3.026 10.27.39 1.926 1.902 4.837 3.163 6.097 2.109 2.109 5.57 3.484 8.848 3.484 4.424 0 7.931-2.177 10.2-6.372 2.064-3.76 2.293-4.31 2.545-6.006.482-3.255-.114-5.341-2.269-7.908-2.43-2.888-2.888-3.69-2.98-5.226-.046-1.1.023-1.628.39-2.316.435-.848.412-.848-1.009.528-1.375 1.33-1.765 1.513-2.98 1.421-.665-.069-1.65-1.237-1.949-2.36-.343-1.216.023-3.21.849-4.837.298-.62.504-1.17.458-1.216s-.87.528-1.834 1.284zm1.1 9.971c3.05.802 6.258 3.278 7.565 5.823 3.026 6.005-.023 13.983-6.212 16.229-3.095 1.1-6.396.848-9.674-.733-3.094-1.536-5.134-4.379-5.936-8.253-.711-3.507.343-6.853 3.025-9.696 2.476-2.613 4.791-3.668 8.138-3.69.963-.024 2.338.137 3.095.32z"/><path d="M49.029 35.225c-1.399.207-3.714 1.307-4.814 2.247-.459.412-1.169 1.444-1.581 2.27-.642 1.306-.757 1.764-.757 3.14.023 3.805.802 5.363 3.278 6.578 2.911 1.422 5.777.826 8.367-1.765s3.507-5.661 2.475-8.366c-1.146-3.049-3.736-4.585-6.968-4.104zm2.682 1.238c1.604.413 2.246.871 2.934 2.063.435.78.527 1.238.527 2.865-.023 2.476-.527 3.989-1.834 5.456-2.567 2.842-6.28 3.3-8.756 1.031l-.871-.78 1.284.711c1.719.94 3.232.94 5.134.023 2.545-1.215 4.264-3.599 4.424-6.12.138-2.155-.825-3.507-3.026-4.218-1.696-.55-4.699.183-6.051 1.444-2.545 2.361-1.399 6.098 2.086 6.9 2.131.504 4.745-1.742 4.745-4.08 0-1.765-.871-2.682-2.568-2.705-1.765-.046-3.163 1.146-3.163 2.636 0 1.421 1.72 2.132 2.567 1.077.505-.642.39-.825-.252-.412-.39.252-.527.23-.848-.092-.367-.367-.367-.412 0-.962.252-.413.573-.597 1.054-.597.734 0 1.605.688 1.605 1.284 0 .78-.78 1.972-1.536 2.338-.688.321-.871.344-1.742.046-2.086-.733-2.659-3.3-1.077-4.928 2.36-2.453 6.9-.848 6.876 2.453-.023 1.581-1.719 3.942-3.277 4.516-1.124.435-3.14.297-4.287-.298-1.215-.62-2.407-2.063-2.75-3.37-.23-.802-.184-1.077.251-1.994.665-1.376 2.339-3.163 3.53-3.782 1.743-.894 3.026-1.032 5.02-.505zm48.848-15.473c-.252.115-1.467.207-2.728.207l-2.246.023.71.802c.39.459.711.986.734 1.215 0 .252.046.275.138.092.045-.16-.092-.619-.321-1.031l-.436-.734h4.195l-.183.802c-.115.436-.207 1.238-.207 1.766 0 1.421-.39 2.04-1.581 2.613-.573.252-1.238.642-1.444.825-.367.344-.39.275-.298-.871l.114-1.238-.298 1.375c-.343 1.56-.596 2.11-1.283 2.728-.276.252-.482.55-.482.665s.62-.412 1.376-1.192c.733-.78 1.788-1.604 2.338-1.834 1.581-.665 1.834-1.123 2.017-3.438.092-1.1.298-2.247.435-2.522.276-.504.184-.573-.55-.252zm33.169 3.714c-1.33 1.948-1.49 2.453-1.192 3.461.138.482.321.826.39.757s.023-.413-.115-.802c-.206-.573-.137-.871.413-2.017l.665-1.33-.138 1.031c-.367 2.499-.069 3.439 1.467 4.47l.665.459-1.307 2.407c-1.26 2.27-2.476 3.622-2.98 3.3-.114-.068-.206-.458-.206-.848 0-.412-.207-1.146-.459-1.627l-.435-.894.756-.94c.848-1.031 1.513-2.246 1.513-2.705-.023-.16-.275.23-.596.894-.321.642-.94 1.513-1.398 1.926-.688.596-.78.78-.574 1.1.826 1.146 1.17 3.232.78 4.676-.321 1.1-.138 1.078.39-.069.23-.504.756-1.146 1.192-1.444.504-.344 1.237-1.353 2.2-3.026.78-1.398 1.422-2.636 1.422-2.796.023-.138-.184-.321-.413-.413-.252-.069-.78-.504-1.192-.962-.71-.826-.733-.871-.596-2.613.069-.963.23-1.972.39-2.27.481-.917.046-.733-.642.275z"/></g><g class="bow" fill="#e16e32"><path d="M83.963 93.747c0 .23-.298.94-.642 1.581-.481.849-.871 1.261-1.559 1.559-.642.298-.78.436-.435.436.275 0 .756-.207 1.1-.482.733-.573 1.81-2.613 1.673-3.14-.092-.321-.114-.321-.137.046zm-21.937.71c-.16.413.206 1.582.825 2.59.505.826 1.72 1.651 2.407 1.651.252-.023.069-.16-.458-.343-1.124-.39-1.765-1.1-2.316-2.545-.39-1.031-.39-1.078.024-1.375.39-.298.39-.321.045-.321-.23 0-.458.16-.527.343zm12.745 1.835c-.413.435-.734.825-.665.87.046.046.435-.32.871-.802.963-1.1.825-1.146-.206-.068zm5.112 1.192c.206.045.527.045.687 0 .138-.07-.023-.115-.412-.115-.367 0-.505.046-.275.115zm-5.983.756c0 .436.045.619.114.39a2.36 2.36 0 0 0 0-.802c-.069-.207-.114-.024-.114.412zm20.492-.206c-.825.642-1.284 1.604-1.284 2.705 0 1.215.161 1.581.94 1.971 1.124.596 2.339.436 3.14-.367.666-.687.712-.687.94-.252.138.275.253.963.276 1.582.023 1.765.412.48.412-1.422.023-1.948-.504-3.232-1.627-4.103-.963-.734-1.972-.757-2.797-.115zm1.88 1.627c.367.367.344 1.559-.023 1.559-.459 0-.848-.481-.848-1.032 0-.802.39-1.008.87-.527zm-26.59-1.26c.137.045.412.045.573 0 .137-.07.023-.115-.298-.115s-.436.046-.275.114zm-.894.458c-.298.367-.275.39.092.092.206-.16.39-.344.39-.39 0-.183-.184-.069-.482.298zm15.68.458c.206.046.572.046.801 0 .207-.068.023-.114-.412-.114s-.619.046-.39.114zm-19.027 1.834c.207.046.528.046.688 0 .138-.068-.023-.114-.413-.114-.366 0-.504.046-.275.114zm16.849.688a3.89 3.89 0 0 0 1.031 0c.275-.046.046-.092-.527-.092s-.803.046-.505.092zm-17.032 1.788c-.573.275-.596.321-.114.207.642-.161 1.375-.528 1.031-.528-.115 0-.527.138-.917.321zm16.344.734c.16.068.367.045.435-.023.092-.07-.045-.138-.297-.115-.253 0-.321.069-.138.138zm9.215.458c-1.421.413-2.292 1.559-2.292 3.003 0 .757.137 1.031.687 1.513.963.78 2.132.986 2.889.481.504-.32.642-.343.802-.092.275.436.252 1.422-.023 2.178-.23.573-.206.596.138.298.596-.481 1.237-2.04 1.237-3.026 0-2.154-2.04-4.745-3.438-4.355zm1.054 2.224c.161.435-.298 1.283-.687 1.283-.573 0-.894-.596-.596-1.123.275-.55 1.1-.642 1.283-.16zm-25.375-.849c-.298.367-.275.39.092.092s.481-.481.298-.481c-.046 0-.23.183-.39.39zm11.095 1.834c.206.046.527.046.687 0 .138-.069-.023-.114-.412-.114-.367 0-.504.045-.275.114zm5.57 1.192c-1.88 1.261-1.972 3.484-.16 4.745.595.413 2.291.481 2.98.092.275-.138.596-.183.733-.092.298.183.069 1.513-.413 2.499l-.366.687.642-.573c1.581-1.467 1.971-3.897.916-5.96-.343-.665-.848-1.284-1.26-1.49-.917-.458-2.27-.435-3.072.092zm2.04 2.2c0 .528-.115.712-.504.757-.597.092-.94-.71-.505-1.237.459-.55 1.009-.298 1.009.48zm65.559-31.93c-2.682 1.008-5.112 3.874-5.524 6.51-.344 2.223 1.284 5.134 3.599 6.395 1.1.596 1.49.688 3.645.757 2.017.068 2.613 0 3.69-.39 1.72-.642 3.026-1.834 3.805-3.415.55-1.147.642-1.582.642-3.37 0-1.834-.069-2.178-.619-3.118a7.81 7.81 0 0 0-3.37-3.026c-1.237-.55-4.767-.756-5.867-.343zm4.722.893c2.338.505 4.218 3.21 4.172 6.075 0 1.559-.962 3.324-2.43 4.493-1.306 1.031-1.902 1.215-3.209 1.008-2.04-.343-4.47-2.452-4.928-4.332-.596-2.315 1.077-4.79 3.6-5.318 2.291-.481 4.927 1.742 4.882 4.15-.023 1.856-1.238 3.07-3.095 3.07-.848 0-2.476-1.008-2.888-1.81-.39-.71-.298-1.581.183-1.857.642-.32.71-.298.71.367 0 .412-.091.573-.32.481-.184-.069-.39.023-.459.206s-.023.321.115.321.183.092.092.23c-.07.114.091.435.39.733.32.321.527.39.595.23.07-.207.207-.207.55-.023.666.343 1.972.092 2.614-.505 1.031-.962 1.008-2.613-.046-3.85-1.146-1.353-3.347-1.399-4.905-.115-1.445 1.238-1.742 2.75-.849 4.424 1.559 3.003 5.868 3.438 7.519.78.481-.757.55-1.17.55-2.958 0-1.88-.069-2.154-.642-3.026-.917-1.421-2.2-2.177-3.85-2.292-1.193-.092-1.56 0-2.843.62-2.43 1.214-3.782 3.254-3.782 5.799 0 1.352.39 2.338 1.33 3.323.366.413.595.757.504.757-.115 0-.665-.528-1.238-1.17-.94-1.03-1.742-2.796-1.742-3.758s.802-2.728 1.72-3.737c1.122-1.238 2.566-1.994 4.515-2.315 1.72-.275 1.857-.275 3.186 0zm-2.086 4.562c-.459.298-.757.298-.573 0 .069-.138.32-.23.527-.23.344 0 .344.046.046.23zm1.536 1.535c-.07.23-.115.092-.115-.275 0-.39.046-.55.115-.412.045.16.045.48 0 .687zm-.688.665c-.069.07-.275.092-.436.023-.183-.068-.114-.137.138-.137.252-.023.39.045.298.114zm-1.673.459c.068.183.045.275-.092.206s-.23-.23-.23-.366c0-.321.16-.253.321.16zM31.172 33.78c-.573.596-1.238 1.444-1.444 1.88-.23.435-.55.894-.688 1.031-.16.115-.366.94-.435 1.834-.115 1.031-.367 1.949-.71 2.567l-.551.986h.619c.94.023 2.476.802 2.934 1.49.23.344.642 1.467.94 2.476.298 1.031.756 2.086 1.031 2.338l.459.459-.138-.642c-.435-1.903-.412-2.568.183-3.897l.597-1.353-.78-.94c-1.49-1.857-1.857-2.82-1.857-4.974.023-1.513.138-2.2.528-3.072.275-.618.48-1.168.435-1.192-.046-.045-.55.413-1.123 1.01zm.138 1.078c-.734 2.384-.115 5.111 1.627 7.152l.803.94-.574 1.146c-.32.665-.573 1.558-.596 2.131v1.01l-.412-1.376c-.757-2.613-1.628-3.668-3.278-3.92-.71-.114-.871-.23-.733-.527.573-1.353.756-2.11.78-3.163 0-.757.114-1.261.32-1.376.16-.092.481-.55.71-.985.46-.894 1.514-2.339 1.628-2.224.046.023-.092.573-.275 1.192zm119.794 1.857c-.711 1.123-1.147 2.338-1.147 3.208 0 .734.642 2.384 1.215 3.164.917 1.237.872 1.26-.687.458-2.98-1.49-6.212-1.834-9.65-1.008-2.477.596-2.935.573-3.646-.138-.504-.527-.573-.733-.48-1.834.068-.688.068-1.238.022-1.238s-.665 1.192-1.352 2.613c-1.307 2.728-2.201 3.806-3.187 3.806-.87 0-1.26-.803-1.26-2.59 0-1.376-.046-1.56-.344-1.307-.757.642-1.49 2.59-1.49 4.011 0 1.789 1.077 4.952 2.132 6.258.16.184.23 1.124.183 2.316-.069 2.544.39 4.607 1.628 6.99 2.246 4.333 6.51 6.786 11.759 6.786 3.805 0 6.487-1.1 8.894-3.645 1.742-1.857 2.476-3.072 3.255-5.364 1.398-4.172.802-8.32-1.628-11.622-.893-1.237-1.008-1.512-1.008-2.613v-1.26l.756.137c.642.092.917 0 1.605-.619.985-.848 1.26-1.857.848-3.14-.504-1.536-.642-1.559-1.72-.436-.55.55-1.237 1.055-1.535 1.123l-.527.092.527.046c.32 0 .894-.344 1.513-.894 1.1-1.008 1.123-1.008 1.467.321.206.665.183 1.055-.046 1.605-.504 1.215-1.949 1.902-2.613 1.238-.39-.39-.55-.115-.688 1.192l-.114 1.168-.642-.618c-.367-.367-1.1-1.307-1.628-2.11-1.169-1.81-1.398-3.46-.665-4.973.436-.871.436-.894.321-.184-.252 1.49.894 3.301 2.086 3.255.458-.023.458-.023.023-.16-1.581-.528-2.109-1.994-1.49-4.15.321-1.168.115-1.123-.688.115zm-13.593 6.418c.343.069.71.16.825.16.092.024-.459.505-1.238 1.078-1.788 1.307-3.69 3.553-4.63 5.547-.413.849-.825 1.513-.963 1.467-.39-.092-1.65-2.82-1.925-4.218-.321-1.421-.07-3.117.55-4.034.32-.458.343-.435.343.344 0 1.926.78 2.75 2.224 2.384.893-.207 2.452-1.926 2.934-3.186l.412-1.078.413.688c.252.412.687.756 1.054.848zm10.407-.183c3.278.917 6.487 3.392 7.931 6.12 2.178 4.126 1.834 9.169-.871 13.318-3.462 5.318-10.086 7.015-16.16 4.126-6.557-3.118-9.1-11.874-5.181-17.926 1.054-1.604 3.553-4.011 4.928-4.722 2.682-1.375 6.373-1.742 9.353-.917z"/><path d="M144.066 46.55c-2.407.733-4.126 2.291-5.387 4.882-1.696 3.438-.275 7.679 3.164 9.352 1.1.528 1.444.596 2.91.505 2.981-.207 6.03-2.339 6.809-4.791a36.109 36.109 0 0 1 .756-2.017c.94-2.155.092-5.41-1.696-6.694-1.994-1.421-4.493-1.903-6.556-1.238zm5.158 1.558c1.1.71 2.27 2.59 2.476 3.966.481 3.277-5.57 7.037-8.504 5.272-.917-.527-1.697-1.696-1.88-2.728-.207-1.375.114-2.407 1.1-3.484 1.192-1.284 2.522-1.81 4.241-1.673 1.123.092 1.421.23 1.971.848 1.055 1.17.849 2.75-.527 4.103-1.513 1.467-3.37 1.536-4.034.161-.459-.985-.252-1.788.665-2.476 1.031-.78 2.315-.069 1.88 1.078-.161.435-1.147.504-1.307.069-.046-.138-.183-.207-.275-.115-.115.115-.069.435.069.756.641 1.376 3.025.138 3.025-1.581 0-2.453-3.713-3.003-5.318-.756-.596.825-.802 2.658-.412 3.599.802 1.948 3.163 2.452 5.455 1.146 2.957-1.72 3.645-5.02 1.399-6.694-2.866-2.131-7.404-1.146-8.894 1.949-.94 1.948-.459 4.79 1.077 6.418 1.605 1.697 4.379 2.155 6.465 1.124.642-.344.87-.39.573-.138-.894.733-2.522 1.307-4.012 1.398-1.375.092-1.581.046-2.727-.665-1.766-1.077-2.614-2.636-2.59-4.722.023-2.407.779-4.47 2.108-5.8 1.399-1.398 2.66-1.81 5.18-1.741 1.582.046 1.972.137 2.797.687zM69.636 37.793c1.376 3.026 1.261 4.928-.527 8.756-1.375 2.888-1.421 3.76-.298 4.768l.802.71.138-1.352c.16-1.742 1.054-3.53 2.43-4.837l1.031-1.031-.092-1.88c-.137-2.338-.802-3.782-2.498-5.295-.642-.573-1.261-1.054-1.376-1.054-.091 0 .07.55.39 1.215zm2.499 2.04c.55 1.008.688 1.558.757 3.186.091 1.857.068 1.994-.367 2.132-1.055.343-3.255 4.057-3.255 5.524l-.023.688-.436-.55c-.596-.711-.573-1.467.138-3.118 1.926-4.47 1.994-4.7 1.857-6.648-.046-1.008-.275-2.223-.459-2.705l-.367-.848.757.573c.412.321 1.054 1.123 1.398 1.765zm57.536 22.533c.413.94.275 1.375-1.146 3.645-1.215 1.971-1.444 2.957-.917 4.171.642 1.56 1.948 2.568 3.782 2.958.986.206 1.605.71 1.605 1.352.023.367.137.275.48-.39.757-1.444.322-2.36-2.04-4.332-.618-.504-.733-.756-.733-1.627 0-.55.207-1.605.459-2.339.733-2.131.573-2.888-.848-3.828-.894-.573-1.009-.527-.642.39zm1.605 1.192c.068.343-.092 1.215-.459 2.246-.825 2.43-.78 3.21.275 4.104 2.04 1.742 2.361 2.131 2.361 2.98v.802l-.733-.436a8.542 8.542 0 0 0-1.788-.687c-1.972-.528-3.21-1.903-3.21-3.622 0-.665.298-1.353 1.193-2.82.985-1.581 1.192-2.108 1.215-3.002v-1.078l.504.481c.275.253.55.711.642 1.032zM86.118 76.647a45.086 45.086 0 0 1-2.292 2.063c-.505.435-.665.642-.367.481.527-.252 4.4-3.85 4.149-3.874-.069 0-.733.596-1.49 1.33zm-29.502 4.768c.459.665 1.604 1.604 1.765 1.421.023-.046-.458-.527-1.1-1.1-1.009-.894-1.1-.94-.665-.321zm21.479.114c-3.232 1.055-6.327 1.422-12.104 1.444-5.134.023-5.478.046-5.799.459-.183.252-.321.78-.298 1.146l.023.711.183-.757c.092-.435.298-.893.436-1.03.183-.184 1.972-.276 5.708-.276 5.776-.023 7.748-.23 11.874-1.375 1.077-.298 2.086-.482 2.246-.436.78.298 1.88 4.516 1.628 6.19-.161 1.145-.871 1.879-2.751 2.796-1.742.87-3.37 1.33-5.96 1.742-1.146.183-1.696.32-1.26.343 1.1.023 4.63-.733 6.211-1.33 2.82-1.077 4.104-2.383 4.104-4.194 0-1.192-.62-3.805-1.17-4.905-.55-1.17-.87-1.238-3.071-.528z"/></g><path d="M97.052 24.772c0 .367.046.505.114.276.046-.207.046-.528 0-.688-.068-.138-.114.023-.114.412zm-6.785 2.178c-.252 1.284-1.536 3.645-2.43 4.447-.527.459-1.192.802-1.765.894-.504.092-1.054.344-1.238.55-.458.527-1.558 3.461-1.604 4.195-.069 1.444.023 1.513.687.458.963-1.513 2.568-2.911 3.6-3.117.618-.115.893-.07.962.137.069.16.504-.183 1.1-.825.55-.596 1.009-1.123 1.009-1.169 0-.069-.16-.252-.344-.436-.458-.48-.435-1.352.115-3.071.504-1.582.55-2.017.252-2.476-.138-.23-.23-.092-.344.412zm-.23 2.292c-.435 1.078-.48 2.545-.114 2.912.39.39-.894 1.925-1.467 1.788-.94-.184-2.43.596-3.714 1.994-1.123 1.215-1.26 1.307-1.123.733.092-.366.436-1.33.78-2.154.596-1.444.642-1.49 1.834-1.88 1.535-.504 2.475-1.421 3.323-3.163.734-1.536 1.078-1.673.482-.23zm-57.81 38.465c-2.247.78-4.219 2.636-5.617 5.318-.825 1.558-.78 4.218.092 6.005.367.734 1.031 1.628 1.49 2.017 3.347 2.774 9.375 1.078 11.668-3.255.596-1.123.642-1.398.596-3.576-.023-2.063-.115-2.544-.642-3.621-.733-1.467-1.926-2.453-3.622-2.958-1.49-.435-2.521-.435-3.965.07zm3.873.962c.665.252 1.536.78 1.903 1.17l.665.733-1.009-.665c-.894-.597-1.238-.665-2.75-.665-2.086 0-3.416.55-4.929 2.085-2.017 1.995-2.796 5.135-1.742 6.854 1.1 1.765 3.415 2.499 5.868 1.834 3.301-.894 4.952-3.393 3.897-5.914-.619-1.536-2.727-2.66-4.47-2.361-2.407.39-4.149 3.415-3.186 5.524.802 1.765 4.195 1.673 5.112-.138.527-.985.367-2.017-.413-2.59-.596-.435-.687-.435-1.26-.114-.344.183-.642.55-.688.78-.069.366-.023.412.206.16.734-.688 1.582 0 1.124.894-.528.962-2.086.825-2.522-.23-.504-1.26.825-3.003 2.292-3.003.688 0 1.72.573 2.27 1.284.343.436.48.94.48 1.765 0 1.009-.091 1.238-.87 1.995-.963.985-2.338 1.444-3.507 1.237-2.935-.55-4.218-3.3-2.705-5.73 1.948-3.186 5.616-3.645 8.206-1.055.733.734 1.169 1.422 1.375 2.132.276.963.253 1.17-.16 2.132-.665 1.49-2.568 3.415-4.012 4.057-2.177.94-5.295.596-6.762-.78-1.054-.962-1.307-1.741-1.284-3.942.023-1.765.115-2.292.642-3.438.917-2.04 2.407-3.416 4.47-4.15 1.192-.435 2.36-.39 3.76.138zm54.304 15.427c-.894 1.054-1.513 3.599-.894 3.599.527 0 .894.39 1.078 1.169l.183.78.023-.757c.023-.619-.115-.825-.665-1.146-.367-.207-.688-.505-.688-.665 0-.138.344-.94.78-1.765.71-1.376.802-1.972.183-1.215zm-1.949 5.708c-.137 2.292-.573 4.355-.87 4.172-.115-.07-.207.045-.207.23 0 .824.481.274.802-.963.207-.711.436-1.467.504-1.651s.115-.986.092-1.788c-.068-1.422.07-1.65.665-1.146.184.16.138.068-.092-.23-.252-.275-.504-.504-.596-.504s-.23.848-.298 1.88zm1.032-.092c-.252.573-.252.573.092.23.206-.207.343-.482.297-.62s-.229.046-.39.39zm-8.068 2.499c-1.078.183-1.949.596-2.705 1.306-.78.711-1.651 2.155-1.651 2.705 0 .161.206-.114.436-.618s.573-1.055.78-1.238c.343-.275.389-.252.389.252 0 .71.619 1.284 1.581 1.467.986.206 1.857-.573 1.857-1.673 0-.597-.137-.849-.71-1.192-.872-.528-.62-.711 1.168-.872 1.284-.114 1.376-.091 1.605.413l.23.55-.07-.573c-.045-.527-.137-.573-1.191-.596-.62-.023-1.399 0-1.72.069zm5.524.206c0 .252.069.321.137.138.07-.16.046-.367-.023-.436-.069-.091-.137.046-.114.298zm.23.917c0 .252.068.321.137.138.069-.161.046-.367-.023-.436-.07-.092-.138.046-.115.298z" class="bow" fill="#dea387"/></g></svg>