<svg version="1.0" xmlns="http://www.w3.org/2000/svg" width="300" height="349.941" viewBox="0 0 225 262.455"><g fill="#f57e16"><![CDATA[
    &apos;
    ]]><path d="M121.41 44.466c-2.274 2.248 -3.077 3.345 -3.317 4.629 -0.348 2.007 -2.274 4.816 -3.826 5.591 -1.151 0.589 -2.541 0.749 -3.103 0.321 -0.455 -0.348 -0.481 -0.401 -0.054 -1.472 0.508 -1.257 0.589 -2.167 0.16 -2.167 -0.562 0 -2.89 2.756 -3.853 4.575 -2.167 4.147 -3.504 8.882 -4.147 14.822 -0.535 4.896 -1.498 7.143 -3.504 8.187 -0.615 0.294 -1.151 0.508 -1.204 0.455 -0.054 -0.08 0.08 -0.963 0.294 -1.98s0.481 -3.103 0.562 -4.655l0.16 -2.809 -0.883 1.07c-1.257 1.498 -2.301 2.461 -3.719 3.424 -1.606 1.097 -3.745 2.89 -3.745 3.158 0 0.294 4.602 -3.077 6.154 -4.521 0.696 -0.615 1.365 -1.123 1.472 -1.123 0.294 0 -0.054 4.254 -0.508 6.341 -0.294 1.338 -0.294 1.686 -0.027 1.686 0.455 0 5.244 -2.274 6.822 -3.237 0.696 -0.428 1.338 -0.776 1.418 -0.776s-0.027 0.508 -0.214 1.123c-0.187 0.642 -0.428 1.82 -0.535 2.622 -0.268 1.98 -2.595 5.431 -6.127 9.016 -1.498 1.525 -2.622 2.756 -2.488 2.756 0.268 0 7.143 -6.983 7.143 -7.25 0 -0.321 0.883 0.027 1.231 0.455 0.722 0.91 -0.669 6.047 -2.728 10.006 -0.963 1.873 -1.231 2.541 -0.776 2.007 0.936 -1.123 2.622 -4.468 3.29 -6.554 0.428 -1.31 1.391 -5.699 1.391 -6.287 0 -0.054 0.268 -0.134 0.615 -0.241 0.321 -0.08 1.418 -0.696 2.435 -1.365 1.044 -0.642 1.899 -1.151 1.952 -1.123 0.027 0.054 -0.16 0.856 -0.455 1.82 -0.294 0.936 -0.83 2.756 -1.204 4.04 -0.375 1.257 -0.936 2.622 -1.231 2.996 -0.989 1.231 -0.589 1.498 2.354 1.472 3.479 -0.054 3.826 -0.027 3.826 0.268 0 0.16 -1.31 1.631 -2.916 3.29l-2.89 3.024 -0.134 2.675c-0.107 2.248 -0.268 2.969 -0.963 4.468 -0.455 1.017 -0.91 1.82 -1.044 1.82 -0.107 0 -0.562 0.481 -1.017 1.07 -0.856 1.204 -6.769 5.271 -9.043 6.261 -2.782 1.204 -3.826 1.365 -9.15 1.365 -5.778 -0.027 -8.829 -0.481 -11.53 -1.712 -1.82 -0.856 -2.407 -1.525 -3.585 -4.147 -1.017 -2.274 -1.284 -4.2 -0.696 -4.682 0.615 -0.508 0.535 -0.91 -0.107 -0.562 -0.294 0.16 -1.31 0.535 -2.274 0.83s-2.301 0.776 -2.969 1.07l-1.231 0.508 1.739 -1.927c1.793 -2.007 3.398 -4.361 3.398 -4.923 0 -0.348 -5.378 -4.04 -6.741 -4.682 -0.401 -0.16 -0.669 -0.401 -0.615 -0.535 0.16 -0.214 3.611 -1.418 3.719 -1.284 0.027 0.054 0.615 0.883 1.284 1.846 1.204 1.712 2.354 2.969 2.354 2.541 0 -0.107 -0.589 -1.017 -1.338 -2.007 -1.712 -2.328 -4.013 -6.741 -5.056 -9.765l-0.83 -2.407 1.151 1.338c2.06 2.461 4.093 4.28 5.966 5.351 1.017 0.589 2.248 1.418 2.728 1.846 1.017 0.91 1.257 0.776 1.231 -0.642l-0.027 -1.044 0.989 1.525c0.562 0.83 1.391 1.952 1.846 2.461 0.508 0.562 0.348 0.241 -0.401 -0.802 -0.696 -0.963 -1.578 -2.435 -1.98 -3.29 -0.856 -1.765 -1.177 -1.631 -0.91 0.348 0.187 1.365 -0.054 1.712 -0.696 0.936 -0.16 -0.187 -0.936 -0.722 -1.712 -1.151l-1.391 -0.802 -1.123 -3.424c-1.204 -3.638 -1.739 -5.993 -1.365 -5.993 0.107 0 0.294 0.134 0.375 0.268 0.107 0.16 0.802 0.589 1.552 0.963a24.352 24.352 0 0 1 2.649 1.631l1.257 0.91 0.375 -0.749c0.214 -0.401 0.535 -1.418 0.722 -2.22s0.696 -2.328 1.097 -3.371c0.428 -1.017 0.83 -2.382 0.936 -3.024l0.187 -1.123 1.097 1.712c0.615 0.963 1.606 2.301 2.248 2.969l1.151 1.231 2.622 -2.595c1.444 -1.444 2.836 -3.024 3.077 -3.504 0.241 -0.455 0.562 -0.856 0.696 -0.856 0.107 0 0.562 -0.669 0.936 -1.498 0.856 -1.82 1.204 -1.578 1.204 0.802 0 2.194 0.589 6.314 0.883 6.314 0.134 0 0.187 -0.375 0.08 -0.883 -0.107 -0.455 -0.294 -2.595 -0.428 -4.709 -0.16 -2.114 -0.348 -3.933 -0.428 -4.013 -0.241 -0.241 -1.631 1.525 -2.916 3.719 -0.696 1.151 -1.98 2.809 -3.103 3.879 -1.044 1.017 -2.007 2.086 -2.167 2.382 -0.241 0.455 -0.321 0.428 -1.07 -0.268 -0.428 -0.428 -1.525 -1.899 -2.435 -3.29l-1.659 -2.541 -0.187 1.418c-0.134 0.776 -0.589 2.248 -1.044 3.317s-0.936 2.595 -1.097 3.398c-0.134 0.802 -0.428 1.793 -0.642 2.22l-0.401 0.749 -0.936 -0.802c-0.508 -0.455 -1.498 -1.123 -2.194 -1.472 -0.696 -0.375 -1.659 -0.963 -2.167 -1.338s-0.963 -0.642 -1.017 -0.589c-0.294 0.294 0.642 4.575 1.525 6.903 0.562 1.498 0.963 2.809 0.91 2.89 -0.134 0.107 -1.498 -1.284 -5.137 -5.19 -0.669 -0.722 -1.284 -1.177 -1.338 -1.017 -0.134 0.455 1.686 5.699 2.728 7.785 0.535 1.044 0.963 1.98 0.963 2.086 0 0.268 -3.611 1.391 -4.816 1.498 -0.936 0.08 -0.936 0.08 0.856 0.936 0.989 0.455 2.728 1.472 3.906 2.248 1.151 0.776 2.488 1.631 2.969 1.873l0.856 0.455 -0.535 1.044c-0.294 0.562 -1.578 2.194 -2.836 3.638 -1.284 1.444 -2.274 2.649 -2.22 2.703s1.472 -0.375 3.13 -0.963c1.686 -0.589 3.103 -0.989 3.211 -0.91 0.08 0.107 0.187 1.07 0.241 2.167 0.107 1.873 0.08 2.033 -0.562 2.515 -1.097 0.856 -2.328 3.024 -4.12 7.304 -2.167 5.217 -2.943 7.625 -3.424 10.969 -0.241 1.498 -0.776 4.28 -1.204 6.207 -0.455 1.899 -0.91 3.906 -1.017 4.414 -0.107 0.562 -0.348 0.936 -0.589 0.936 -0.294 0 -0.455 -0.481 -0.615 -1.873 -0.241 -2.248 -0.562 -3.345 -1.284 -4.254 -0.589 -0.749 -1.98 -1.123 -3.05 -0.856l-0.696 0.187 0.508 0.722c0.294 0.401 0.856 1.391 1.284 2.194 0.856 1.659 0.883 2.435 0.481 9.765 -0.241 3.772 -0.294 4.093 -1.07 5.485 -0.749 1.31 -2.194 2.675 -2.836 2.675 -0.481 0 -1.472 -1.338 -1.82 -2.461 -0.241 -0.669 -0.401 -2.515 -0.428 -4.495a260.663 260.663 0 0 1 -0.08 -3.558c-0.027 -0.107 -0.401 -0.348 -0.856 -0.508 -2.194 -0.749 -4.093 -8.776 -4.093 -17.203 0 -4.789 0.294 -6.608 1.498 -9.31 0.776 -1.686 0.802 -1.82 0.401 -2.274 -0.722 -0.776 -0.535 -1.98 0.615 -4.254 2.007 -4.04 4.896 -6.073 7.625 -5.431 0.589 0.134 1.151 0.268 1.231 0.268 0.107 0 0.241 -0.83 0.348 -1.82 0.321 -3.13 0.83 -4.842 1.739 -5.778 0.802 -0.83 0.83 -0.936 0.856 -3.398 0.027 -1.952 -0.107 -3.024 -0.642 -4.789 -0.375 -1.257 -0.802 -2.996 -0.963 -3.853 -0.348 -1.927 -0.802 -2.435 -3.585 -4.227 -1.123 -0.722 -2.274 -1.659 -2.569 -2.033 -0.856 -1.257 -1.418 -3.317 -1.606 -6.073l-0.187 -2.675 -0.428 1.017c-1.286 2.857 -3.72 4.998 -5.701 4.998 -0.589 0 -1.231 -0.134 -1.418 -0.321 -0.241 -0.241 -0.428 -0.187 -0.83 0.16 -0.294 0.268 -0.936 0.481 -1.498 0.481 -1.952 0 -3.371 -2.14 -4.414 -6.635 -0.642 -2.756 -1.952 -5.351 -3.638 -7.196 -0.669 -0.749 -1.123 -1.097 -1.017 -0.802 1.151 3.211 1.525 5.03 1.631 8.16 0.08 2.086 0.027 3.772 -0.16 4.495 -0.375 1.365 -1.284 2.06 -2.407 1.846 -0.776 -0.16 -0.776 -0.16 -0.535 0.696 0.508 1.793 0.268 3.05 -1.284 6.956 -2.301 5.778 -2.248 7.625 0.348 11.157 1.606 2.167 1.98 3.211 2.248 6.154 0.134 1.391 0.321 2.996 0.428 3.532l0.16 0.989 -1.686 -0.054c-1.204 -0.027 -1.98 0.107 -2.622 0.455l-0.936 0.481 2.461 0.642c4.28 1.07 6.501 2.622 7.813 5.378 1.097 2.328 0.535 3.504 -1.952 4.227 -0.802 0.241 -1.659 0.642 -1.927 0.936 -0.455 0.508 -0.428 0.508 0.535 0.241 1.151 -0.321 3.371 -0.08 4.629 0.481 1.044 0.508 2.301 2.943 2.862 5.645 0.696 3.29 0.481 8.963 -0.562 13.378 -0.481 2.194 -0.989 2.969 -1.659 2.569 -1.231 -0.776 -1.525 -3.237 -1.017 -8.829l0.241 -2.407 -0.91 -1.044c-0.508 -0.562 -1.177 -1.444 -1.498 -1.98 -0.508 -0.83 -0.589 -0.883 -0.615 -0.375 0 0.321 0.268 1.231 0.562 2.007 0.83 2.033 0.776 4.227 -0.134 6.18 -0.722 1.525 -1.952 2.756 -5.511 5.591 -2.728 2.167 -3.987 4.468 -4.575 8.321 -0.669 4.28 0.134 8.293 1.927 9.578 0.428 0.294 0.776 0.508 0.776 0.455s-0.187 -0.669 -0.401 -1.391 -0.401 -2.114 -0.401 -3.077c0 -2.033 0.749 -3.611 2.675 -5.591 2.114 -2.194 3.638 -2.649 6.261 -1.873 2.382 0.722 4.762 4.2 6.073 8.909 0.535 1.899 0.589 2.943 0.696 9.685 0.107 6.394 0.054 7.866 -0.321 9.551 -1.123 5.11 -3.853 7.813 -6.127 6.02 -1.017 -0.802 -1.444 -1.793 -1.899 -4.28 -0.375 -2.22 -1.444 -4.308 -2.569 -5.003 -0.428 -0.268 -0.428 -0.214 -0.187 0.562 0.134 0.481 0.348 3.504 0.455 6.741 0.214 6.501 0.214 6.582 2.301 9.176 1.712 2.114 1.606 3.211 -0.562 5.271 -0.776 0.776 -1.444 1.606 -1.444 1.846s0.241 0.91 0.535 1.444c0.268 0.535 0.589 1.231 0.696 1.525 0.16 0.481 0.187 0.481 0.294 0.054 0.08 -0.268 -0.107 -0.856 -0.375 -1.338 -0.963 -1.631 -0.963 -1.686 0.589 -3.158 0.776 -0.749 1.578 -1.712 1.739 -2.14 0.187 -0.428 0.428 -0.776 0.562 -0.776 0.669 0 0.134 -1.365 -0.963 -2.515 -0.669 -0.722 -1.123 -1.391 -1.044 -1.525s0 -0.214 -0.214 -0.187c-0.187 0.054 -0.642 -0.508 -1.017 -1.257 -0.642 -1.257 -0.669 -1.631 -0.802 -6.956 -0.08 -3.103 -0.134 -5.645 -0.107 -5.672 0.107 -0.348 1.284 2.728 1.739 4.468 0.696 2.809 1.123 3.638 2.194 4.28 1.07 0.669 2.248 0.669 3.211 0.054 0.856 -0.589 1.793 -1.552 1.793 -1.873 0 -0.107 0.134 -0.348 0.321 -0.535 0.348 -0.348 1.07 -2.943 1.578 -5.538 0.401 -2.114 0.401 -13.644 0 -15.919 -0.883 -4.869 -2.274 -7.919 -4.414 -9.738 -2.728 -2.328 -4.468 -2.756 -6.716 -1.659 -1.631 0.83 -4.093 3.345 -4.949 5.11 -0.642 1.338 -0.722 3.987 -0.134 5.404 0.562 1.31 0.321 1.391 -0.508 0.187 -1.123 -1.659 -1.365 -3.424 -1.017 -6.956 0.455 -4.361 1.044 -5.699 3.371 -8 1.044 -1.044 2.728 -2.569 3.745 -3.451 0.989 -0.856 2.248 -2.22 2.782 -3.05 0.856 -1.284 0.989 -1.712 1.07 -3.371 0.08 -1.365 -0.027 -2.22 -0.321 -2.969l-0.455 -1.044 0.696 0.642c1.123 1.044 1.31 2.22 0.83 4.842 -0.749 4.013 -0.481 6.261 0.856 7.545 1.31 1.257 2.14 0.401 2.836 -2.943 0.562 -2.622 1.044 -8.534 0.856 -10.327 -0.214 -2.06 -1.151 -5.645 -1.793 -6.929 -0.669 -1.284 -2.301 -2.354 -3.638 -2.354h-1.017l0.989 -0.669c2.086 -1.418 1.793 -3.987 -0.776 -6.822 -1.284 -1.444 -2.407 -2.086 -5.137 -2.969l-2.301 -0.749h1.765c2.248 -0.027 2.541 -0.321 2.167 -2.086 -0.16 -0.722 -0.348 -1.98 -0.455 -2.836l-0.134 -1.578 1.498 1.631c1.07 1.177 2.086 1.927 3.585 2.675 2.728 1.365 4.575 1.739 7.785 1.578 2.301 -0.107 2.836 -0.241 4.655 -1.097 3.638 -1.739 6.367 -5.271 7.492 -9.685 2.086 -8.213 -4.735 -16.453 -13.644 -16.453 -3.611 0 -6.582 1.284 -9.39 4.12 -3.05 3.05 -4.254 6.047 -4.066 10.086l0.107 2.382 -0.883 -1.231c-1.765 -2.515 -1.793 -4.066 -0.214 -8.16 2.167 -5.645 2.328 -6.207 2.194 -7.517 -0.16 -1.204 -0.134 -1.257 0.589 -1.418 1.899 -0.401 2.595 -2.461 2.354 -6.903 -0.08 -1.686 -0.401 -3.826 -0.696 -4.869l-0.535 -1.873 0.562 0.669c0.989 1.204 2.007 3.585 2.728 6.261 1.391 5.217 3.451 7.517 5.966 6.608 0.481 -0.187 1.123 -0.241 1.418 -0.16 0.294 0.107 1.204 0.027 2.033 -0.134 1.659 -0.348 3.103 -1.444 4.174 -3.158l0.615 -0.989 0.16 1.873c0.134 1.284 0.455 2.435 1.017 3.638 0.776 1.659 0.989 1.873 3.183 3.264 3.024 1.927 3.398 2.354 3.772 4.468 0.187 0.963 0.642 2.809 1.017 4.12 0.91 3.237 0.776 5.056 -0.562 7.438 -0.91 1.631 -1.204 2.728 -1.631 5.832l-0.134 1.204 -1.952 0.027c-1.231 0 -2.22 0.16 -2.756 0.455 -1.231 0.642 -3.103 2.836 -4.2 4.923 -1.231 2.382 -1.444 3.532 -0.83 4.602 0.455 0.802 0.455 0.83 -0.241 2.114 -1.257 2.328 -1.631 4.495 -1.606 9.819 0 5.244 0.375 8.213 1.552 12.306 1.044 3.532 1.846 4.762 3.558 5.378 0.027 0 -0.054 0.749 -0.16 1.631 -0.455 3.371 0.589 7.972 1.98 8.589 1.606 0.749 2.809 0.054 4.12 -2.407 0.883 -1.631 0.91 -1.82 1.097 -5.699 0.107 -2.22 0.294 -4.575 0.375 -5.244 0.241 -1.498 -0.348 -3.745 -1.498 -5.806l-0.775 -1.391h0.776c0.428 0 0.989 0.08 1.231 0.16 0.722 0.294 1.444 2.06 1.631 4.013 0.187 1.927 0.669 3.05 1.31 3.05 0.562 0 0.83 -0.696 1.151 -2.728 0.268 -1.659 0.428 -1.98 1.82 -3.611 1.739 -2.033 3.29 -5.164 3.987 -7.972 0.615 -2.382 0.642 -6.769 0.054 -8.374 -0.348 -0.989 -0.348 -1.177 0 -1.525 0.883 -0.883 2.354 -0.134 2.996 1.525 0.562 1.498 0.883 4.2 0.856 7.545 0 4.655 -0.696 8.427 -2.194 12.119 -0.321 0.776 -0.294 0.91 0.08 1.204 0.268 0.187 0.669 0.936 0.936 1.659 0.455 1.231 1.151 1.952 1.151 1.204 0 -0.16 0.375 -1.097 0.83 -2.06l0.802 -1.739 0.749 0.722c0.83 0.802 1.017 0.856 1.151 0.321 0.054 -0.294 0.535 -0.134 1.82 0.669 1.284 0.749 1.82 1.257 2.06 1.899 0.428 1.231 0.428 1.391 -0.187 2.114 -0.856 1.044 -0.936 1.177 -0.963 1.444 0 0.134 -0.134 0.562 -0.294 0.936 -2.756 6.314 -3.558 7.866 -4.521 8.614 -0.348 0.294 -0.642 0.669 -0.642 0.856s-0.375 0.83 -0.83 1.444 -0.776 1.284 -0.696 1.498c0.187 0.508 -0.856 1.31 -1.739 1.31 -0.401 0 -0.722 0.08 -0.696 0.16 0.054 0.455 -0.08 0.91 -0.187 0.776 -0.08 -0.08 0.027 -1.686 0.241 -3.585 0.508 -4.308 0.722 -9.471 0.401 -9.471 -0.134 0 -0.241 0.776 -0.241 1.739 0 3.826 -0.856 10.113 -2.248 16.453 -0.615 2.916 -3.211 9.043 -4.602 10.888 -0.348 0.455 -0.642 0.963 -0.642 1.097s-0.481 0.91 -1.07 1.739c-0.589 0.802 -1.07 1.552 -1.07 1.631s-0.187 0.375 -0.375 0.615c-0.214 0.268 -0.642 0.776 -0.91 1.151 -0.455 0.535 -0.589 0.589 -0.936 0.321 -0.348 -0.294 -0.455 -0.268 -0.696 0.187 -0.16 0.294 -0.294 0.856 -0.321 1.284 0 0.401 -0.107 0.989 -0.214 1.284 -0.134 0.294 -0.107 0.669 0.027 0.856 0.187 0.214 0.107 0.535 -0.16 0.936 -0.241 0.321 -0.428 0.989 -0.428 1.472s-0.615 2.969 -1.365 5.511c-0.749 2.515 -1.525 5.511 -1.739 6.608s-0.562 2.274 -0.802 2.622c-0.401 0.615 -1.899 1.659 -2.382 1.659 -0.455 0 -2.862 -2.382 -4.495 -4.441 -2.461 -3.158 -5.645 -5.485 -7.384 -5.431 -0.562 0 -0.481 0.08 0.375 0.348 1.017 0.321 1.659 0.642 2.488 1.177 0.642 0.428 -1.552 2.301 -3.666 3.13 -1.044 0.428 -1.846 0.802 -1.793 0.856 0.241 0.241 3.772 -1.418 4.762 -2.22 0.589 -0.508 1.177 -0.91 1.338 -0.91 0.535 0 2.435 1.793 3.826 3.611 0.802 1.017 1.873 2.194 2.382 2.595 0.562 0.455 0.91 0.963 0.91 1.338 0 0.348 0.134 1.418 0.321 2.407l0.348 1.793 -1.017 1.123c-1.123 1.257 -1.873 2.782 -2.114 4.387 -0.214 1.31 -0.294 1.444 -1.552 2.382 -0.802 0.589 -1.017 0.669 -1.017 0.321 0 -0.642 -0.989 -0.535 -1.739 0.241 -0.375 0.348 -0.669 0.856 -0.669 1.123 0 0.401 -0.054 0.428 -0.268 0.08 -0.16 -0.241 -0.268 -0.268 -0.268 -0.08 0 0.375 0.481 0.696 1.151 0.802 0.294 0.054 1.284 -0.642 2.488 -1.712 1.552 -1.418 2.007 -2.007 2.14 -2.756 0.268 -1.712 0.936 -3.158 2.007 -4.361 1.177 -1.338 1.31 -2.167 0.696 -4.227l-0.375 -1.177h1.017c1.525 0 2.969 -1.284 3.345 -2.969 0.16 -0.722 0.508 -2.274 0.776 -3.424 0.883 -4.04 3.558 -12.44 4.2 -13.244 0.348 -0.455 0.989 -0.883 1.472 -0.963 0.481 -0.107 0.989 -0.348 1.177 -0.562 0.16 -0.214 0.455 -0.375 0.669 -0.375 0.187 0 0.375 -0.268 0.428 -0.615 0.054 -0.321 0.241 -0.562 0.428 -0.535 0.16 0.054 0.321 -0.054 0.321 -0.214s0.214 -0.214 0.508 -0.107c0.428 0.134 0.776 -0.187 0.936 -0.936 0.187 -0.722 1.07 -2.675 1.231 -2.675 0.107 0 0.589 -0.375 1.07 -0.802 0.669 -0.615 1.097 -0.802 1.952 -0.802 0.589 0 1.284 0.187 1.525 0.401 0.348 0.321 0.615 0.348 1.177 0.16 0.375 -0.16 0.696 -0.401 0.696 -0.562 0 -0.134 0.187 -0.268 0.401 -0.268 0.241 0 0.481 -0.187 0.562 -0.401 0.107 -0.214 0.268 -0.401 0.401 -0.401 0.481 0 3.183 -2.007 3.345 -2.461 0.08 -0.268 0.268 -0.481 0.401 -0.481s0.187 -0.294 0.08 -0.642c-0.107 -0.481 -0.027 -0.696 0.375 -0.802 0.294 -0.107 0.508 -0.321 0.481 -0.508 0 -0.187 0.214 -1.07 0.508 -1.952 0.508 -1.552 0.589 -1.686 1.927 -2.274 0.776 -0.348 1.418 -0.722 1.418 -0.83 0 -0.294 1.846 0.321 3.479 1.151 0.856 0.428 1.739 0.776 2.007 0.776 0.241 0 1.793 0.696 3.424 1.525 1.631 0.856 3.103 1.606 3.264 1.659 0.722 0.241 -1.151 -0.91 -3.264 -2.033 -3.103 -1.606 -4.709 -2.836 -5.404 -4.147 -0.615 -1.177 -0.749 -3.05 -0.241 -3.211 0.187 -0.08 0.375 -0.696 0.401 -1.444 0.027 -0.722 0.107 -1.899 0.134 -2.622 0.054 -0.749 0.214 -1.365 0.401 -1.418 0.214 -0.08 0.268 -0.401 0.16 -0.91 -0.16 -0.91 0.348 -2.301 0.989 -2.649 0.348 -0.187 0.91 0.214 2.703 2.033 2.114 2.14 5.003 4.521 6.796 5.618 0.963 0.562 0.669 0.214 -0.883 -1.07 -0.749 -0.615 -1.017 -0.963 -0.722 -0.963 0.562 0 0.401 -0.535 -0.241 -0.91 -0.375 -0.214 -0.535 -0.214 -0.615 0.054 -0.08 0.16 -0.241 0.268 -0.348 0.187 -0.134 -0.08 -0.16 -0.348 -0.08 -0.562 0.107 -0.294 0 -0.401 -0.348 -0.348 -0.268 0.054 -0.669 0 -0.856 -0.134 -0.268 -0.16 -0.241 -0.294 0.134 -0.615 0.375 -0.294 0.401 -0.401 0.107 -0.535 -0.187 -0.08 -0.589 -0.375 -0.883 -0.669 -0.401 -0.401 -0.615 -0.455 -0.883 -0.214 -0.268 0.214 -0.749 -0.16 -2.14 -1.659 -2.007 -2.194 -2.595 -3.077 -1.899 -2.809 0.241 0.107 0.428 0.107 0.428 0.027 0 -0.241 -1.177 -1.444 -1.391 -1.444 -0.375 0 -1.284 -1.07 -1.284 -1.498 0 -0.214 -0.08 -0.348 -0.214 -0.268 -0.107 0.054 -0.481 -0.321 -0.83 -0.856l-0.642 -0.989 0.802 0.722c0.91 0.883 1.097 0.91 1.552 0.294 0.321 -0.428 0.428 -0.375 1.444 0.535 0.615 0.562 1.739 1.31 2.515 1.686 0.776 0.401 1.525 0.963 1.686 1.284 0.134 0.321 0.535 0.589 0.91 0.642 0.375 0.027 1.123 0.187 1.686 0.348 0.669 0.16 1.151 0.187 1.338 0.027 0.214 -0.16 0.91 -0.16 1.927 0 0.883 0.134 2.703 0.187 4.013 0.107l2.407 -0.16 1.017 1.444c0.535 0.802 0.989 1.525 0.989 1.606s-0.481 0.16 -1.044 0.16c-1.338 0 -4.308 1.498 -4.762 2.407 -0.615 1.204 -0.455 2.89 0.615 6.608 0.134 0.481 0.027 0.589 -0.615 0.669 -0.562 0.054 -0.776 0.241 -0.83 0.722 -0.134 0.856 0.615 3.479 1.578 5.618 0.963 2.114 0.963 2.435 0.027 3.317 -0.989 0.936 -1.525 0.91 -3.264 -0.214 -1.793 -1.123 -2.809 -1.177 -4.575 -0.214 -0.989 0.535 -1.31 0.856 -1.31 1.338 0 0.776 -0.802 0.83 -1.472 0.08 -0.615 -0.696 -0.936 -0.669 -2.541 0.134 -1.418 0.722 -1.631 1.044 -0.883 1.31 0.615 0.241 0.214 0.535 -1.765 1.257l-1.712 0.615 -0.508 -0.615c-0.401 -0.508 -0.669 -0.615 -1.498 -0.508 -0.535 0.08 -1.444 0.348 -2.007 0.589 -0.802 0.321 -0.989 0.535 -0.883 0.91 0.16 0.428 -0.134 0.615 -1.846 1.257 -1.097 0.401 -2.007 0.883 -2.007 1.07 0 0.348 2.996 3.024 3.692 3.264 0.187 0.08 0.615 -0.107 0.936 -0.401s1.204 -0.776 1.927 -1.07c0.749 -0.294 1.552 -0.615 1.82 -0.722 0.321 -0.134 0.455 -0.054 0.455 0.268 0 0.241 0.134 0.375 0.348 0.321 0.16 -0.08 0.963 -0.375 1.739 -0.615 1.097 -0.375 1.365 -0.562 1.257 -0.936 -0.187 -0.535 0.375 -0.776 1.686 -0.722 0.856 0.027 4.735 -1.793 6.528 -3.024 0.856 -0.615 1.365 -0.642 1.82 -0.107 0.508 0.615 1.204 0.481 2.407 -0.535 0.696 -0.562 1.418 -0.936 1.873 -0.936 1.391 0 3.611 0.535 5.03 1.231 0.776 0.375 1.498 0.615 1.578 0.535s-0.054 -1.151 -0.294 -2.354c-0.562 -2.89 -0.562 -2.89 0.321 -1.659 1.017 1.391 2.595 2.756 3.772 3.264 0.669 0.268 1.899 0.401 3.906 0.428 2.622 0 3.103 -0.08 4.414 -0.696 2.916 -1.365 4.548 -3.853 4.762 -7.358 0.107 -1.793 0.054 -2.114 -0.722 -3.692 -1.498 -3.024 -4.2 -4.548 -8.187 -4.548 -1.739 0 -2.407 0.134 -3.479 0.642 -1.712 0.856 -4.12 3.264 -4.976 4.976l-0.642 1.338 -0.08 -1.391c-0.054 -1.151 -0.16 -1.391 -0.615 -1.472 -0.401 -0.054 -0.776 -0.615 -1.338 -1.952 -1.525 -3.558 -1.017 -4.949 1.765 -4.949 1.525 0 2.274 0.428 2.274 1.31 0 0.963 0.669 1.151 3.451 1.044 1.472 -0.027 2.756 -0.16 2.836 -0.268 0.107 -0.107 -0.134 -0.749 -0.535 -1.418 -0.401 -0.696 -0.669 -1.284 -0.615 -1.31 0.214 -0.187 7.143 0.455 7.972 0.749 1.044 0.348 1.739 1.391 2.274 3.371 0.375 1.444 0.375 1.472 -0.428 1.07 -0.642 -0.375 -0.642 -0.16 0.054 0.989 0.802 1.284 2.114 6.501 2.114 8.374 0 1.899 0.321 2.22 1.712 1.846 1.257 -0.348 1.631 -0.08 0.481 0.348 -1.044 0.401 -1.123 1.204 -0.241 2.033 0.722 0.696 1.177 0.722 1.899 0.187s1.151 -0.508 1.31 0.134c0.187 0.749 0.642 0.669 3.024 -0.401 2.328 -1.07 3.719 -1.177 6.02 -0.508 0.802 0.241 1.498 0.481 1.552 0.535s-0.187 0.348 -0.535 0.642c-0.776 0.642 -0.642 0.749 1.952 1.631 1.765 0.615 1.873 0.615 2.194 0.16 0.187 -0.241 0.535 -0.455 0.749 -0.455 0.187 0 2.407 1.338 4.896 2.943 4.735 3.077 6.341 3.853 8.882 4.254 0.856 0.134 1.578 0.348 1.631 0.508 0.241 0.749 3.264 5.324 4.12 6.261 0.669 0.722 1.151 1.659 1.525 2.89 0.802 2.649 3.103 7.062 4.093 7.892 0.615 0.535 1.07 0.696 1.712 0.615l0.856 -0.107 -0.134 2.033c-0.054 1.097 -0.16 2.248 -0.214 2.515 -0.054 0.294 0.107 0.91 0.401 1.365 0.268 0.455 0.615 1.606 0.776 2.541 0.214 1.31 0.428 1.846 0.856 2.14 0.348 0.214 1.31 1.097 2.167 1.927 1.631 1.631 2.14 1.82 2.943 1.097 0.455 -0.401 0.481 -0.401 0.481 0.16 0 0.294 0.375 2.086 0.802 3.959 0.455 1.846 0.776 3.504 0.696 3.666 -0.08 0.187 -0.134 0.16 -0.134 -0.054 -0.027 -0.481 -1.123 -1.365 -1.686 -1.391 -0.268 0 -0.401 -0.16 -0.348 -0.348 0.08 -0.16 -0.16 -0.642 -0.535 -1.044s-0.669 -0.883 -0.669 -1.097c0 -0.187 -0.294 -0.642 -0.669 -0.989s-0.669 -0.856 -0.669 -1.123 -0.321 -0.936 -0.722 -1.525c-0.802 -1.123 -2.194 -1.659 -2.89 -1.097 -0.268 0.214 -0.481 0.134 -0.883 -0.401 -0.455 -0.589 -0.535 -0.963 -0.428 -2.354 0.16 -2.033 -0.134 -5.806 -0.455 -5.806 -0.134 0 -0.241 0.375 -0.241 0.83 0 1.686 -2.703 3.745 -3.666 2.782 -0.187 -0.214 -1.044 -0.428 -1.873 -0.508 -0.856 -0.107 -2.407 -0.348 -3.479 -0.589a67.844 67.844 0 0 0 -4.816 -0.776 191.195 191.195 0 0 1 -4.361 -0.642c-0.802 -0.16 -2.541 -0.401 -3.879 -0.535 -2.595 -0.294 -2.969 -0.348 -6.02 -0.83 -1.927 -0.294 -2.943 -0.268 -4.2 0.134 -0.401 0.134 -0.722 0.027 -1.044 -0.375 -0.455 -0.508 -0.963 -0.642 -4.387 -0.963 -0.669 -0.054 -1.498 -0.16 -1.873 -0.241 -1.31 -0.294 -5.324 -0.508 -7.758 -0.375 -0.375 0 -1.712 -0.08 -2.996 -0.187 -1.631 -0.16 -2.461 -0.107 -2.703 0.08 -0.214 0.187 -0.428 0.268 -0.508 0.187 -0.08 -0.107 -3.853 -0.401 -5.699 -0.455 -0.802 -0.027 -5.03 0.589 -5.378 0.802 -0.214 0.107 -0.989 0.134 -1.739 0.054 -1.578 -0.214 -3.987 0.241 -3.987 0.722 0 0.428 -0.963 0.455 -1.204 0.054 -0.134 -0.187 -0.348 -0.134 -0.669 0.16 -0.401 0.375 -0.642 0.401 -1.659 0.134 -1.257 -0.348 -1.444 -0.321 -1.338 0.214 0.054 0.241 -0.08 0.321 -0.401 0.214 -1.365 -0.401 -1.899 -0.455 -2.06 -0.187 -0.107 0.16 -0.589 0.294 -1.097 0.294 -0.481 0 -0.936 0.107 -0.989 0.241 -0.027 0.134 -2.114 0.428 -4.629 0.669 -5.993 0.589 -12.36 1.391 -16.079 2.033 -4.013 0.696 -14.233 1.204 -15.998 0.802 -1.578 -0.348 -1.927 -0.187 -0.535 0.268 0.535 0.187 1.927 0.321 3.103 0.321 2.407 -0.054 2.996 0.134 4.013 1.151l0.749 0.722 -0.615 0.749c-1.418 1.739 -5.056 3.424 -6.716 3.103 -1.418 -0.268 -3.719 -1.498 -4.816 -2.515 -0.589 -0.562 -0.91 -0.749 -0.749 -0.455 0.562 1.097 2.461 2.382 4.949 3.317 0.936 0.348 0.856 0.455 -0.989 1.739 -1.472 1.017 -2.033 1.07 -2.033 0.214 -0.027 -0.428 -0.027 -0.428 -0.294 0a1.026 1.026 0 0 0 0 0.963c0.187 0.375 -0.348 1.498 -2.595 5.297 -3.585 6.073 -8.721 14.073 -11.022 17.149 -1.204 1.631 -1.927 2.382 -2.382 2.435 -0.348 0.054 -1.606 -0.348 -2.809 -0.91 -2.595 -1.231 -4.308 -1.418 -7.224 -0.802 -2.461 0.508 -5.324 0.562 -6.608 0.107 -1.044 -0.348 -2.382 -1.257 -2.382 -1.631 0 -0.134 0.508 -0.802 1.123 -1.525 0.91 -0.989 1.418 -2.007 2.435 -4.709 0.696 -1.899 1.257 -3.719 1.257 -4.066 0 -0.642 -0.107 -0.696 -1.873 -0.615 -1.498 0.08 -2.809 -0.722 -3.585 -2.248 -1.444 -2.782 -0.481 -9.551 1.739 -12.414 0.455 -0.562 0.508 -0.562 0.508 -0.134 0 0.294 -0.241 1.257 -0.535 2.167 -1.07 3.398 -0.936 6.929 0.268 7.571 0.669 0.348 2.756 0.348 3.585 -0.027 0.776 -0.375 1.097 -1.097 1.498 -3.451 0.321 -1.793 1.498 -6.127 1.739 -6.367 0.134 -0.134 0.027 0.776 -0.268 2.167 -0.16 0.802 0.134 1.257 0.802 1.257 0.321 0 0.749 0.187 0.936 0.401 0.83 1.017 2.14 0.16 2.89 -1.927 0.802 -2.14 2.301 -3.933 3.933 -4.709 0.749 -0.348 1.631 -0.776 2.007 -0.936l0.669 -0.321 -0.669 0.16c-0.375 0.08 -1.284 0.428 -2.06 0.776 -1.712 0.776 -3.638 3.103 -4.227 5.137 -0.375 1.284 -0.963 1.952 -1.739 1.952 -0.16 0 -0.214 -0.294 -0.134 -0.749l0.134 -0.722 -0.321 0.669 -0.321 0.669 -0.107 -0.802c-0.054 -0.428 0.027 -0.83 0.187 -0.883 0.134 -0.054 0.187 -0.294 0.107 -0.535 -0.134 -0.321 -0.268 -0.187 -0.508 0.508 -0.187 0.508 -0.348 0.749 -0.348 0.535 -0.027 -0.294 -0.134 -0.268 -0.428 0.134 -0.348 0.481 -0.375 0.428 -0.401 -0.642 0 -0.615 0.107 -1.123 0.268 -1.123 0.134 0 0.187 -0.16 0.107 -0.348 -0.16 -0.455 0.856 -6.154 1.231 -6.875 0.16 -0.294 0.722 -0.776 1.284 -1.07 0.669 -0.375 0.776 -0.508 0.321 -0.375 -1.097 0.268 -1.873 1.204 -2.301 2.703 -0.214 0.776 -0.481 1.418 -0.562 1.418 -0.294 0 0.187 -2.756 0.589 -3.371 0.241 -0.375 1.498 -1.151 2.916 -1.82 1.365 -0.642 2.569 -1.257 2.649 -1.391s-0.776 0.214 -1.899 0.749c-2.569 1.257 -3.29 1.31 -1.498 0.107 0.749 -0.508 2.007 -1.686 2.782 -2.622l1.472 -1.686 -2.22 2.06c-1.204 1.151 -2.328 2.086 -2.488 2.086s-0.348 -0.241 -0.428 -0.562c-0.107 -0.348 -0.883 -0.91 -2.194 -1.578 -3.371 -1.686 -4.308 -3.13 -4.308 -6.528 0 -4.869 2.728 -9.097 8.455 -13.11 1.044 -0.722 2.167 -1.686 2.488 -2.14 0.722 -0.963 0.749 -1.07 -1.044 3.317 -1.765 4.308 -1.927 5.538 -0.883 7.464 0.669 1.284 2.809 3.264 3.158 2.943 0.054 -0.08 -0.455 -0.562 -1.177 -1.097 -1.552 -1.177 -2.167 -2.382 -2.167 -4.28 0 -1.391 0.107 -1.686 2.541 -7.438 0.802 -1.899 1.204 -4.548 0.696 -4.548 -0.16 0 -0.294 0.241 -0.294 0.535 0 0.856 -0.749 2.461 -1.552 3.29 -0.401 0.428 -1.686 1.444 -2.862 2.274 -2.969 2.086 -5.244 4.468 -6.261 6.501 -1.765 3.692 -2.14 7.411 -0.963 9.792 0.802 1.606 1.765 2.407 4.2 3.504 1.927 0.883 2.461 1.606 1.712 2.435 -0.241 0.268 -0.428 0.562 -0.428 0.669s-0.241 0.508 -0.562 0.936c-0.615 0.856 -1.017 3.585 -0.535 3.879 0.187 0.107 0.187 0.348 0.054 0.642 -0.481 0.91 -2.407 7.732 -2.675 9.39 -0.348 2.114 -0.856 2.703 -2.541 2.89 -1.044 0.134 -1.365 0.054 -1.899 -0.455 -0.589 -0.535 -0.669 -0.856 -0.669 -2.407 0 -1.044 0.294 -2.916 0.669 -4.441 0.749 -2.916 0.802 -3.638 0.401 -4.414 -0.428 -0.776 -0.696 -0.615 -0.589 0.375 0.08 0.669 -0.134 1.204 -0.883 2.274 -1.739 2.569 -2.675 7.866 -1.873 10.675 0.83 2.836 2.328 4.254 4.441 4.147 0.963 -0.027 1.31 0.054 1.31 0.321 0 0.615 -1.873 5.591 -2.541 6.716 -0.348 0.589 -0.989 1.418 -1.444 1.846 -1.017 0.989 -1.044 1.365 -0.054 2.274 0.615 0.562 0.722 0.83 0.535 1.31 -0.187 0.455 -0.375 0.589 -0.749 0.455 -0.428 -0.134 -0.722 0.107 -1.391 0.989 -0.455 0.642 -1.017 1.525 -1.257 2.007 -0.348 0.749 -0.348 0.91 0 1.444s0.294 0.856 -0.83 3.879c-1.017 2.703 -1.31 3.29 -1.686 3.158 -0.294 -0.08 -0.589 0.107 -0.856 0.481 -0.455 0.696 -1.525 5.297 -1.231 5.297 0.107 0 0.401 -1.07 0.669 -2.407 0.508 -2.675 0.989 -3.371 1.631 -2.461 0.214 0.294 0.776 0.83 1.257 1.177l0.856 0.589 -0.856 -0.989 -0.856 -0.989 0.802 -2.22c0.455 -1.204 1.017 -2.703 1.231 -3.345 0.214 -0.615 0.481 -1.123 0.562 -1.123 0.107 0 0.963 0.535 1.899 1.204 0.963 0.669 1.846 1.204 2.007 1.204s-0.375 -0.428 -1.177 -0.963c-1.578 -1.044 -3.479 -2.756 -3.479 -3.13 0 -0.348 1.98 -3.077 2.328 -3.237 0.214 -0.08 0.321 0.08 0.268 0.455 -0.054 0.508 0.401 0.802 3.024 2.114 4.495 2.194 7.037 2.969 9.203 2.836 1.686 -0.107 1.765 -0.08 1.606 0.455 -0.321 1.017 -1.123 2.407 -1.686 2.916 -0.535 0.481 -0.722 0.508 -2.461 0.214 -1.017 -0.187 -2.114 -0.321 -2.461 -0.294 -0.562 0 -0.562 0.027 -0.054 0.241 0.294 0.134 1.097 0.321 1.82 0.401 0.696 0.08 1.257 0.241 1.257 0.348 0 0.348 -1.927 3.371 -2.836 4.521 -1.231 1.498 -2.407 1.846 -4.682 1.444 -0.91 -0.16 -1.739 -0.241 -1.793 -0.187 -0.241 0.268 2.086 0.696 3.772 0.696 1.017 0 2.06 0.134 2.354 0.268 0.321 0.187 0.508 0.187 0.508 0.027 0 -0.134 -0.241 -0.321 -0.535 -0.428 -0.481 -0.16 -0.401 -0.321 0.802 -1.82 0.722 -0.883 1.686 -2.328 2.14 -3.183 0.642 -1.204 0.963 -1.552 1.444 -1.552 0.348 0 0.802 -0.214 1.017 -0.481 0.83 -0.989 1.846 -3.05 1.765 -3.611 -0.054 -0.455 0.455 -1.231 1.793 -2.756 1.631 -1.82 1.98 -2.114 2.649 -2.033 0.535 0.08 0.989 -0.107 1.552 -0.669 1.418 -1.31 10.434 -15.169 14.607 -22.446 0.83 -1.444 1.444 -2.14 2.703 -3.024 0.883 -0.615 1.765 -1.338 1.952 -1.578 0.187 -0.268 0.963 -0.615 1.686 -0.802 2.461 -0.642 5.485 -2.89 5.485 -4.066 0 -0.268 -0.375 -0.802 -0.83 -1.177 -0.642 -0.562 -0.722 -0.696 -0.321 -0.696 1.765 0 8.24 -0.642 11.049 -1.07 6.18 -0.963 21.269 -2.595 33.041 -3.532 5.485 -0.455 21.805 -0.428 26.62 0 10.488 0.989 24.587 3.451 32.132 5.645 1.98 0.589 4.174 1.123 4.869 1.231 1.231 0.187 1.257 0.214 1.257 1.151 0 1.365 0.562 1.82 3.103 2.488 1.578 0.401 2.274 0.722 2.382 1.07 0.375 1.151 2.969 4.709 4.976 6.796l2.167 2.248 1.578 5.244c2.301 7.571 3.103 9.524 4.147 10.006 1.07 0.481 1.472 0.375 3.451 -0.91 2.541 -1.606 3.264 -1.765 4.093 -0.776 0.348 0.428 1.231 1.391 1.927 2.14 0.936 0.963 1.231 1.444 1.017 1.659s-0.027 0.776 0.589 1.98c1.123 2.167 1.231 2.274 2.167 2.488 0.589 0.134 0.963 0.508 1.606 1.739 0.455 0.856 1.418 2.22 2.167 3.05 0.722 0.83 1.204 1.498 1.07 1.498 -0.562 0 -1.151 0.856 -0.963 1.444 0.294 0.936 1.204 1.765 3.264 2.89 1.097 0.589 2.114 1.31 2.274 1.578 0.187 0.294 0.615 0.508 1.07 0.508h0.749l-0.615 -0.856c-1.044 -1.472 -1.391 -1.82 -1.739 -1.82 -0.187 0 -0.455 -0.214 -0.589 -0.481 -0.16 -0.268 -0.856 -0.776 -1.606 -1.123 -1.873 -0.91 -1.525 -1.391 1.284 -1.82 2.996 -0.428 3.585 -0.802 1.177 -0.749 -1.044 0 -1.846 0.134 -1.739 0.268 0.08 0.134 0 0.16 -0.187 0.054 -0.16 -0.107 -0.241 -0.294 -0.16 -0.428 0.08 -0.107 -0.268 -0.455 -0.722 -0.776 -0.481 -0.294 -1.231 -0.91 -1.686 -1.365 -0.428 -0.481 -1.123 -1.177 -1.525 -1.606 -0.776 -0.776 -0.963 -1.338 -0.455 -1.338 0.16 0 0.241 -0.16 0.16 -0.375 -0.16 -0.428 0.348 -0.696 1.31 -0.696 0.348 0 0.642 -0.107 0.642 -0.241 0 -0.214 -0.91 -0.481 -2.301 -0.669 -0.294 -0.027 -0.642 -0.134 -0.802 -0.241 -0.134 -0.08 -0.428 -0.054 -0.642 0.08s-0.589 0.107 -0.883 -0.054c-0.268 -0.134 -0.562 -0.187 -0.642 -0.107 -0.08 0.054 -0.428 -0.134 -0.802 -0.481 -0.508 -0.481 -0.615 -0.776 -0.455 -1.338 0.16 -0.615 0.268 -0.696 0.91 -0.562 1.177 0.268 4.013 -0.535 7.625 -2.167 2.836 -1.284 3.451 -1.472 3.959 -1.231 0.321 0.16 0.83 0.348 1.151 0.455 0.321 0.08 0.696 0.455 0.883 0.856 0.268 0.589 0.241 0.776 -0.294 1.365 -0.348 0.375 -1.338 1.123 -2.22 1.686s-1.472 1.044 -1.31 1.044 1.123 -0.535 2.14 -1.177c1.017 -0.669 1.873 -1.151 1.927 -1.123 0.027 0.054 0.241 0.856 0.481 1.793 0.802 3.451 0.989 4.04 1.338 4.174 0.722 0.268 0.615 1.151 -0.241 1.846l-0.856 0.669 0.802 -0.375c0.455 -0.214 1.017 -0.642 1.31 -0.936l0.481 -0.562 0.615 0.589c0.321 0.321 0.669 1.07 0.776 1.659 0.401 2.541 0.508 3.024 1.151 4.682 1.151 2.969 1.552 3.479 2.809 3.479h1.07l-0.91 -0.722c-0.481 -0.428 -1.044 -0.936 -1.231 -1.151 -0.669 -0.749 -1.659 -3.13 -2.086 -4.976 -0.83 -3.532 -0.936 -3.826 -1.338 -4.227 -0.214 -0.214 -0.562 -0.348 -0.749 -0.268 -0.241 0.08 -0.722 -0.856 -1.552 -3.103 -1.097 -2.836 -1.204 -3.317 -0.936 -4.04 0.268 -0.669 0.214 -0.963 -0.294 -1.927 -0.83 -1.606 -1.82 -2.569 -2.382 -2.435 -0.375 0.107 -0.642 -0.241 -1.177 -1.578 -0.615 -1.498 -0.669 -1.765 -0.321 -2.22 0.214 -0.294 0.294 -0.776 0.214 -1.177 -0.294 -1.151 -4.923 -10.113 -7.17 -13.912 -3.745 -6.261 -6.875 -13.029 -6.875 -14.822 0 -0.696 -0.16 -1.017 -0.589 -1.257 -0.348 -0.187 -0.776 -0.535 -0.963 -0.83 -0.187 -0.268 -1.472 -1.151 -2.862 -1.952 -1.525 -0.91 -2.969 -2.007 -3.745 -2.862l-1.257 -1.391 0.187 -1.846c0.187 -1.846 0.187 -1.873 -1.097 -4.387 -1.31 -2.515 -1.31 -2.541 -1.284 -5.11 0 -1.418 0.134 -3.024 0.294 -3.585l0.294 -0.963 -0.883 0.508c-1.044 0.642 -1.284 0.428 -1.765 -1.498 -0.535 -2.167 -0.455 -12.414 0.107 -14.581 0.535 -2.086 3.29 -7.813 4.334 -9.043 2.274 -2.728 6.287 -3.398 8.268 -1.418 0.749 0.749 0.83 0.989 0.83 2.515 0 2.114 -0.214 2.89 -1.123 3.959l-0.722 0.856 0.669 -0.214c1.418 -0.455 3.826 -1.82 4.923 -2.836 1.498 -1.391 5.752 -7.651 7.117 -10.514 2.22 -4.602 2.086 -8.614 -0.428 -13.671 -1.873 -3.745 -2.167 -5.19 -1.82 -8.776 0.241 -2.14 0.562 -3.424 1.498 -5.966 1.444 -3.826 1.712 -5.297 1.257 -6.688 -0.294 -0.856 -0.375 -0.936 -0.535 -0.508 -0.107 0.294 -0.294 1.123 -0.401 1.873 -0.401 2.809 -1.631 4.387 -4.334 5.672 -2.969 1.418 -3.745 2.969 -4.093 8.24 -0.268 3.933 -0.696 5.618 -1.873 7.438 -2.114 3.183 -5.725 3.264 -6.608 0.16 -0.455 -1.552 -0.107 -4.28 0.936 -7.117 0.936 -2.541 1.659 -3.745 4.174 -6.903 3.158 -3.959 4.548 -6.233 5.217 -8.561 0.187 -0.589 0.428 -3.237 0.535 -5.912 0.214 -5.404 0.214 -5.378 2.703 -8.561l1.204 -1.525 0.08 -2.703c0.054 -2.649 0.054 -2.675 -0.348 -1.765 -0.883 1.927 -1.846 2.354 -2.996 1.284 -0.348 -0.321 -0.883 -0.615 -1.231 -0.669 -1.498 -0.214 -2.996 -3.906 -2.996 -7.438 0 -1.927 0.107 -2.328 0.963 -4.013 1.044 -2.033 1.391 -3.424 1.07 -4.28 -0.214 -0.508 -0.214 -0.508 -0.401 0.054 -0.107 0.348 -0.883 1.151 -1.739 1.793 -2.086 1.631 -3.451 3.158 -4.28 4.949 -0.615 1.338 -0.696 1.82 -0.696 4.308 0 2.382 0.107 2.969 0.615 3.933 0.589 1.097 0.776 2.086 0.401 1.899 -6.099 -3.103 -11.237 -3.451 -15.705 -1.07 -2.086 1.097 -5.485 4.655 -6.554 6.796 -1.338 2.809 -2.06 2.435 -1.927 -0.989 0.054 -1.631 -0.054 -2.407 -0.401 -3.158 -0.268 -0.535 -0.562 -0.989 -0.696 -0.989 -0.107 0 -0.214 0.589 -0.214 1.31s-0.08 1.552 -0.16 1.82c-0.134 0.401 -0.107 0.401 0.134 0.08 0.16 -0.214 0.294 -0.883 0.321 -1.472l0.027 -1.07 0.401 0.936c0.321 0.722 0.375 1.444 0.241 3.13 -0.187 2.14 -0.16 2.22 0.428 2.354 0.589 0.16 0.615 0.241 0.508 2.354 -0.107 2.89 -0.214 3.024 -1.444 2.194 -1.739 -1.204 -2.354 -3.264 -1.712 -5.672 0.214 -0.776 0.294 -1.338 0.187 -1.284 -0.268 0.16 -0.802 2.328 -0.802 3.13 0 1.899 1.365 4.093 2.916 4.762 0.669 0.268 0.83 0.562 1.204 2.06 0.669 2.595 2.114 5.244 3.879 7.09 1.231 1.257 1.606 1.846 1.739 2.703 0.214 1.204 1.204 2.301 4.174 4.602 3.05 2.354 3.317 3.451 2.515 10.461 -0.669 6.02 -1.365 7.866 -3.906 10.14 -1.765 1.578 -3.13 2.274 -4.468 2.274 -2.248 0 -3.398 -2.007 -3.692 -6.42 -0.241 -3.933 0.989 -7.972 3.237 -10.621 0.535 -0.589 0.963 -1.177 0.963 -1.284 0 -0.481 -2.407 1.284 -3.933 2.916 -2.354 2.488 -3.424 4.762 -3.959 8.455 -0.508 3.398 -1.044 5.351 -1.686 6.154 -0.428 0.535 -0.562 0.562 -1.097 0.294 -0.989 -0.535 -1.631 -1.873 -1.631 -3.451 0 -1.739 0.214 -2.194 2.007 -4.066 1.231 -1.284 2.114 -2.622 1.552 -2.354 -0.134 0.054 -0.535 0.268 -0.936 0.455 -1.044 0.535 -1.927 0.08 -2.649 -1.365 -1.07 -2.086 -0.562 -4.976 1.257 -7.384 0.375 -0.481 0.642 -0.963 0.535 -1.044 -0.268 -0.294 -2.461 1.231 -3.8 2.649 -1.631 1.712 -2.703 3.479 -3.317 5.485 -0.589 1.952 -0.802 1.391 -0.802 -2.274 0 -3.853 -0.428 -7.25 -1.097 -8.936 -0.481 -1.231 -0.535 -1.82 -0.455 -4.308 0.08 -1.578 0.027 -2.782 -0.08 -2.675 -0.535 0.535 -1.365 3.317 -1.712 5.752 -0.241 1.472 -0.481 2.782 -0.562 2.916 -0.348 0.562 -1.204 0.134 -2.382 -1.151 -1.552 -1.739 -2.382 -3.345 -4.254 -8.374 -2.809 -7.517 -6.02 -11.745 -10.434 -13.752 -2.382 -1.07 -3.371 -2.007 -3.371 -3.13 0 -1.31 0.963 -3.692 2.114 -5.137 1.284 -1.606 1.631 -2.274 1.631 -3.05 0 -0.562 -0.027 -0.562 -0.508 0.214 -0.749 1.231 -1.793 1.927 -3.8 2.541 -2.22 0.669 -2.809 0.481 -4.308 -1.498 -1.846 -2.435 -2.569 -5.591 -1.82 -8.134l0.241 -0.91 -0.642 0.615c-1.204 1.123 -1.765 2.728 -1.846 5.137 -0.08 2.595 -0.696 4.04 -2.167 5.19 -1.204 0.91 -2.756 1.097 -5.645 0.642l-2.248 -0.321 1.525 -1.659c2.033 -2.167 4.093 -4.602 4.093 -4.816 0 -0.08 -0.214 -0.16 -0.455 -0.16 -0.375 0 -0.321 -0.134 0.241 -0.749 0.375 -0.401 1.07 -1.444 1.525 -2.354 1.578 -2.996 5.725 -7.009 10.541 -10.113 2.89 -1.899 5.458 -3.103 9.203 -4.308 2.595 -0.83 4.387 -1.846 4.361 -2.488 0 -0.107 -0.401 -0.375 -0.883 -0.589s-1.097 -0.83 -1.391 -1.391c-0.428 -0.83 -0.481 -1.123 -0.241 -1.793 0.294 -0.749 0.241 -0.83 -0.722 -1.606 -1.338 -1.097 -1.552 -2.194 -0.802 -3.933 0.321 -0.696 0.535 -1.31 0.481 -1.365 -0.16 -0.134 -4.04 2.675 -5.591 4.04 -0.696 0.589 -1.712 1.712 -2.274 2.488 -1.123 1.472 -2.89 3.077 -4.147 3.719 -1.525 0.776 -2.354 -0.589 -1.98 -3.317 0.134 -1.177 0.134 -1.231 -0.268 -0.722 -0.241 0.294 -0.91 1.498 -1.472 2.675 -0.83 1.712 -1.097 2.622 -1.284 4.441l-0.214 2.274 -2.086 3.024c-2.515 3.611 -3.638 4.682 -4.709 4.521 -0.696 -0.107 -0.776 -0.027 -0.936 0.83 -0.241 1.365 -0.83 2.407 -1.952 3.585 -1.097 1.177 -2.435 1.98 -2.435 1.498 0 -0.16 0.535 -2.167 1.204 -4.441 0.669 -2.248 1.204 -4.174 1.204 -4.227 0 -0.08 -0.883 0.562 -1.952 1.391 -1.952 1.578 -3.826 2.703 -4.04 2.488 -0.054 -0.08 -0.027 -0.936 0.08 -1.952 0.187 -1.686 0.027 -2.328 -0.348 -1.365 -0.107 0.241 -0.241 0.375 -0.321 0.294 -0.134 -0.134 0.722 -4.093 1.123 -5.11 0.134 -0.375 0.107 -0.455 -0.107 -0.321 -0.936 0.589 0.669 -4.093 2.675 -7.866 2.649 -4.896 7.117 -10.407 10.514 -12.976l2.033 -1.525 -0.696 -0.802c-0.91 -1.07 -0.856 -1.927 0.375 -5.565 0.589 -1.686 1.017 -3.103 0.989 -3.158 -0.054 -0.027 -0.856 0.696 -1.82 1.606zm0.08 2.461c-1.017 3.13 -1.044 3.987 -0.187 4.842l0.642 0.642 -1.793 1.365c-3.451 2.541 -7.277 7.037 -9.578 11.237 -0.535 0.963 -1.097 1.846 -1.284 2.007 -0.535 0.455 -1.739 2.515 -1.739 2.969 0 0.241 -0.241 0.722 -0.508 1.097 -0.294 0.348 -0.481 0.802 -0.401 1.017 0.08 0.187 0.027 0.428 -0.134 0.508 -0.134 0.107 -0.348 0.83 -0.428 1.606 -0.187 1.391 -0.241 1.472 -1.525 2.167 -1.07 0.589 -1.391 0.669 -1.552 0.375 -0.134 -0.187 -0.107 -0.589 0.054 -0.883 0.348 -0.642 0.776 -2.435 0.776 -3.237 0 -0.268 0.134 -0.669 0.294 -0.856s0.214 -0.348 0.134 -0.348 0 -0.508 0.134 -1.151c0.16 -0.615 0.294 -2.22 0.348 -3.532 0.187 -4.923 2.728 -11.343 5.591 -14.046l0.989 -0.936 -0.535 1.418c-0.91 2.301 0.027 2.996 2.969 2.194 1.659 -0.481 4.762 -4.361 4.762 -5.993 0 -0.241 0.241 -0.883 0.508 -1.444 0.589 -1.097 2.969 -3.906 3.158 -3.692 0.054 0.054 -0.241 1.257 -0.696 2.675zm17.603 17.095c0.615 1.257 0.696 1.927 0.294 2.194 -0.134 0.08 -0.027 0.722 0.294 1.552 0.428 1.097 0.481 1.578 0.268 2.14 -0.294 0.749 -1.712 1.793 -2.435 1.793 -0.214 0 -0.749 0.187 -1.204 0.428 -0.428 0.241 -1.097 0.481 -1.444 0.535 -0.348 0.08 -1.151 0.428 -1.793 0.776 -0.642 0.375 -1.177 0.589 -1.177 0.508 0 -0.107 -0.187 -0.027 -0.401 0.16s-0.321 0.428 -0.268 0.562c0.187 0.294 -0.749 0.776 -1.552 0.776 -0.722 0 -3.264 1.927 -3.264 2.488 0 0.16 -0.16 0.348 -0.321 0.348 -0.187 0.027 -0.481 0.054 -0.615 0.08 -0.16 0 -1.231 0.989 -2.435 2.167 -1.177 1.177 -2.22 2.14 -2.328 2.14 -0.321 0 -1.391 1.846 -1.391 2.382 0 0.294 -0.134 0.615 -0.294 0.722 -0.16 0.08 -0.455 0.589 -0.669 1.07 -0.214 0.508 -0.508 0.91 -0.642 0.91 -0.16 0 -0.268 0.16 -0.268 0.348 0 0.776 -1.472 1.739 -3.077 2.033 -2.969 0.508 -3.826 0.535 -4.174 0.134 -0.401 -0.481 -0.134 -0.749 1.123 -1.151 2.675 -0.856 5.164 -4.066 4.147 -5.351 -0.241 -0.321 -0.214 -0.375 0.107 -0.241 0.696 0.241 2.328 -0.936 3.317 -2.435 0.535 -0.776 0.963 -1.472 0.963 -1.525s0.669 -1.151 1.498 -2.407c1.98 -3.024 2.328 -3.933 2.407 -5.94 0.054 -1.82 0.481 -3.13 1.07 -3.371 0.241 -0.08 0.455 0.054 0.562 0.321 0.802 2.435 1.365 2.622 3.638 1.177 0.91 -0.562 1.793 -1.284 1.927 -1.552 0.936 -1.793 3.826 -4.976 6.02 -6.608l0.936 -0.696 0.294 1.177c0.187 0.642 0.562 1.686 0.883 2.354zM47.354 79.726c2.14 0.642 4.521 2.14 6.207 3.933 2.14 2.328 3.158 5.03 3.158 8.347 -0.027 2.515 -0.321 3.933 -1.365 6.099 -3.398 7.117 -11.209 9.524 -18.647 5.725 -3.317 -1.686 -5.806 -5.485 -6.501 -9.926 -0.615 -3.987 0.722 -7.705 3.879 -10.862 3.8 -3.772 8.026 -4.842 13.27 -3.317zm149.608 3.29c-0.749 1.418 -1.123 2.916 -0.856 3.398 0.16 0.268 0.187 0.696 0.107 0.936 -0.187 0.481 0.214 2.22 1.151 4.735 0.535 1.444 0.936 2.033 2.248 3.237 1.017 0.91 1.952 1.525 2.515 1.631 1.07 0.214 1.257 0.615 0.669 1.498 -0.963 1.498 -1.231 2.007 -1.899 3.611 -0.508 1.257 -0.856 3.987 -0.91 7.358 -0.027 2.007 -0.187 3.853 -0.348 4.147s-0.481 0.989 -0.696 1.525c-0.241 0.535 -0.562 1.07 -0.696 1.151s-0.455 0.562 -0.696 1.07 -0.722 1.231 -1.07 1.606 -0.642 0.856 -0.642 1.07 -0.214 0.508 -0.455 0.642c-0.268 0.134 -0.83 0.749 -1.284 1.365 -0.428 0.615 -0.989 1.31 -1.204 1.525 -0.214 0.241 -0.401 0.508 -0.401 0.589s-0.241 0.508 -0.562 0.963c-0.321 0.428 -0.696 1.391 -0.883 2.114s-0.508 1.659 -0.722 2.06c-0.535 1.07 -1.177 4.28 -1.177 6.02 0 0.802 -0.107 1.444 -0.214 1.444s-0.16 0.428 -0.107 0.963c0.16 1.365 1.552 2.703 2.969 2.836 0.615 0.054 1.097 0.027 1.097 -0.054s0.481 -0.16 1.07 -0.187c1.123 -0.054 1.338 -0.187 2.943 -1.686 0.83 -0.802 1.017 -1.204 1.338 -2.943 0.187 -1.097 0.455 -2.14 0.589 -2.328 0.16 -0.187 0.294 -1.231 0.348 -2.328s0.214 -2.22 0.375 -2.515c0.16 -0.321 0.294 -1.017 0.294 -1.578s0.187 -1.365 0.401 -1.793c0.214 -0.401 0.401 -0.91 0.401 -1.097 0 -0.214 0.241 -0.455 0.535 -0.535 0.589 -0.187 0.722 -0.802 0.214 -1.044 -0.187 -0.054 0.027 -0.134 0.455 -0.134 0.455 0 1.204 -0.08 1.659 -0.187 0.856 -0.16 0.883 -0.16 0.722 0.669 -0.107 0.535 -0.054 0.989 0.187 1.257 0.321 0.401 0.294 0.428 -0.16 0.268 -0.535 -0.16 -0.562 -0.054 -0.508 3.13 0.027 4.174 0.187 4.976 1.418 7.411 1.712 3.424 2.114 6.02 1.444 9.364 -0.214 1.097 -0.428 2.248 -0.455 2.541s-0.241 0.83 -0.481 1.204c-0.562 0.91 -3.05 6.073 -3.451 7.143 -0.16 0.481 -0.401 0.883 -0.535 0.883 -0.107 0 -0.883 0.669 -1.686 1.498 -0.83 0.802 -1.659 1.444 -1.82 1.391s-0.615 -1.097 -1.017 -2.301c-0.375 -1.177 -0.936 -2.435 -1.204 -2.756 -0.722 -0.776 -1.899 -1.204 -3.211 -1.151 -0.589 0.027 -1.444 0.054 -1.927 0.08 -0.455 0 -1.017 0.214 -1.257 0.428 -0.214 0.214 -0.562 0.401 -0.749 0.401 -0.508 0 -3.424 2.622 -3.424 3.103 0 0.214 -0.107 0.375 -0.241 0.375 -0.321 0 -1.927 2.675 -1.739 2.969 0.08 0.134 0.027 0.241 -0.08 0.241 -0.348 0 -1.123 2.007 -1.578 4.093 -0.241 1.123 -0.455 3.8 -0.535 6.475 -0.134 5.297 -0.187 6.02 -0.401 6.02 -0.107 0 -0.241 0.348 -0.321 0.802 -0.107 0.428 -0.535 1.578 -0.989 2.515 -0.428 0.963 -0.802 2.007 -0.802 2.328 0 0.481 0.107 0.535 0.696 0.401 2.06 -0.535 2.167 -0.508 3.183 0.428l0.989 0.883v2.488c0 1.846 0.134 2.756 0.481 3.504 0.268 0.535 0.589 1.365 0.696 1.793s0.321 0.963 0.508 1.177c0.883 1.044 0.776 2.675 -0.187 2.675 -0.883 0 -7.866 3.211 -8.829 4.066l-0.883 0.776 0.936 -0.642c0.508 -0.375 2.301 -1.231 3.959 -1.899 3.933 -1.631 4.227 -1.578 7.117 1.123 1.204 1.097 2.22 2.167 2.301 2.354 0.241 0.642 1.631 1.498 3.826 2.407 1.177 0.508 2.22 0.91 2.248 0.91 0.054 0 0.054 1.365 0.054 2.996l-0.054 3.024 -0.187 -2.114c-0.241 -2.541 -0.294 -2.595 -3.479 -3.558 -1.257 -0.375 -2.756 -0.91 -3.345 -1.204l-1.07 -0.508 0.669 0.535c0.375 0.294 1.846 0.91 3.29 1.365 1.793 0.589 2.728 1.017 2.969 1.418 0.241 0.375 0.428 1.739 0.508 3.745 0.107 3.13 0.107 3.183 -0.508 3.398 -0.348 0.134 -0.642 0.428 -0.642 0.669 0 0.321 0.107 0.294 0.535 -0.134 0.294 -0.294 0.669 -0.535 0.802 -0.535 0.348 0 0.348 0.963 -0.027 1.631 -0.268 0.535 -0.294 0.535 -0.669 0.054 -0.375 -0.455 -0.401 -0.455 -0.241 0.107 0.107 0.375 0.054 0.615 -0.107 0.615s-0.294 -0.134 -0.294 -0.294 -0.428 -1.391 -0.963 -2.728c-0.535 -1.31 -0.989 -2.89 -1.017 -3.451 -0.054 -1.151 -0.481 -1.578 -1.498 -1.525 -1.444 0.107 -2.114 -0.054 -3.103 -0.722l-1.044 -0.696 0.802 0.856c0.455 0.481 1.606 1.418 2.622 2.06 1.927 1.257 2.569 2.194 3.532 5.164 0.455 1.338 0.589 3.371 0.268 3.692 -0.241 0.268 -0.936 -0.883 -0.83 -1.338 0.054 -0.268 0 -0.481 -0.134 -0.481 -0.321 0 -0.294 0.722 0.054 1.391 0.214 0.375 0.214 0.481 0 0.375 -0.16 -0.107 -0.856 -1.231 -1.552 -2.488 -1.418 -2.541 -1.846 -2.916 -6.608 -5.458 -1.338 -0.749 -3.158 -1.927 -4.013 -2.649 -0.83 -0.749 -1.739 -1.338 -1.98 -1.338s-0.856 0.375 -1.31 0.802c-0.856 0.776 -0.883 0.856 -0.883 2.862 0 1.793 0.08 2.14 0.535 2.435 0.749 0.455 0.696 1.338 -0.107 1.659 -0.348 0.134 -0.696 0.375 -0.749 0.562 -0.16 0.455 -2.328 -1.284 -2.703 -2.167 -0.16 -0.375 -0.321 -2.916 -0.401 -5.672l-0.107 -4.976 0.856 -0.455c1.418 -0.749 0.669 -0.776 -0.91 -0.054 -0.83 0.375 -1.498 0.615 -1.498 0.508s-0.268 -0.321 -0.589 -0.455c-1.177 -0.508 -2.756 -3.103 -3.906 -6.314 -0.615 -1.712 -1.204 -3.479 -1.284 -3.959 -0.107 -0.562 -0.535 -1.123 -1.123 -1.578 -1.846 -1.418 -2.703 -2.675 -4.869 -7.277 -0.107 -0.214 -0.455 -0.428 -0.776 -0.481 -0.481 -0.08 -0.535 -0.16 -0.294 -0.455 0.455 -0.562 -0.401 -2.969 -1.231 -3.532 -0.722 -0.455 -0.883 -1.044 -0.214 -0.776 0.348 0.134 0.375 0.027 0.241 -0.722 -0.107 -0.455 -0.348 -1.044 -0.562 -1.284 -0.214 -0.214 -0.375 -0.562 -0.375 -0.722 0 -0.187 -0.107 -0.321 -0.268 -0.321 -0.134 0 -0.268 -0.401 -0.268 -0.91s-0.294 -1.552 -0.669 -2.354c-0.375 -0.776 -0.669 -1.659 -0.669 -1.952s-0.321 -1.017 -0.669 -1.606c-0.375 -0.589 -0.669 -1.284 -0.669 -1.552 0 -0.241 -0.107 -0.669 -0.241 -0.936 -0.16 -0.241 -0.589 -1.231 -0.963 -2.194 -0.401 -0.963 -1.07 -2.461 -1.498 -3.345s-0.776 -1.899 -0.776 -2.274 -0.348 -1.391 -0.802 -2.274c-0.428 -0.883 -0.802 -1.98 -0.802 -2.435 0 -0.481 -0.187 -1.177 -0.401 -1.606 -0.187 -0.401 -0.455 -1.391 -0.562 -2.167 -0.08 -0.776 -0.294 -1.418 -0.428 -1.418s-0.187 -0.348 -0.08 -0.802c0.134 -0.562 0.054 -0.936 -0.241 -1.231 -0.241 -0.214 -0.428 -0.669 -0.455 -0.989 0 -0.375 -0.134 -0.214 -0.348 0.481 -0.214 0.642 -0.241 1.31 -0.107 1.686 0.107 0.348 0.214 1.177 0.214 1.873s0.187 1.98 0.375 2.862c0.214 0.883 0.321 1.686 0.268 1.793 -0.214 0.321 -0.642 0.241 -0.642 -0.107 0 -0.16 -0.455 -0.749 -1.044 -1.257 -0.562 -0.535 -1.257 -1.338 -1.525 -1.765 -0.268 -0.455 -0.989 -1.472 -1.606 -2.274 -0.589 -0.802 -1.31 -1.846 -1.606 -2.328 -0.268 -0.455 -1.899 -2.916 -3.638 -5.485 -3.987 -5.94 -5.832 -8.963 -5.832 -9.551 0 -0.268 0.268 -0.802 0.562 -1.204l0.589 -0.722 1.552 2.354c0.856 1.284 1.686 2.382 1.82 2.435 0.16 0.054 0.508 -0.375 0.83 -0.936 0.294 -0.562 0.802 -1.391 1.07 -1.846l0.535 -0.83 -0.722 -1.044c-2.301 -3.345 -2.488 -3.666 -2.488 -4.521 0 -0.669 -0.348 -1.338 -1.338 -2.595 -1.686 -2.14 -2.328 -3.479 -2.836 -5.912 -0.91 -4.2 -0.107 -7.758 2.033 -9.23 0.802 -0.562 1.151 -0.615 2.622 -0.508 1.017 0.08 1.873 0.294 2.167 0.562 0.268 0.241 0.589 0.428 0.722 0.428 0.375 0 1.525 1.257 2.354 2.595l0.696 1.123 -1.739 -1.31c-1.765 -1.338 -3.077 -1.793 -4.2 -1.472 -3.077 0.936 -3.504 7.277 -0.83 12.709 1.82 3.719 5.03 6.154 8.134 6.154 2.167 0 2.461 -0.428 3.183 -4.816 0.107 -0.696 0.214 -0.936 0.241 -0.535 0.054 0.91 2.007 4.308 3.345 5.859 0.856 0.963 2.541 1.952 3.183 1.846 0.321 -0.054 0.722 -0.348 0.883 -0.696 0.481 -0.989 0.615 -0.989 1.017 -0.027 0.615 1.472 0.963 4.602 1.07 9.792 0.08 4.629 0.134 4.949 0.722 5.832 0.348 0.508 0.776 0.936 0.91 0.936 0.16 0 0.642 0.615 1.07 1.365 0.455 0.749 1.31 1.82 1.927 2.407 0.936 0.856 1.338 1.044 2.248 1.044 1.498 0 2.622 -0.749 3.585 -2.382 0.508 -0.883 0.989 -1.365 1.31 -1.365 0.776 0 2.809 1.044 3.103 1.606 0.134 0.268 0.83 0.856 1.498 1.31 1.044 0.669 1.525 0.83 2.756 0.83 3.371 0 7.037 -3.05 8.079 -6.716 0.187 -0.642 0.428 -1.31 0.508 -1.444 0.401 -0.562 0.535 -2.488 0.214 -2.595 -0.214 -0.08 -0.187 -0.294 0.134 -0.749 0.401 -0.562 0.428 -1.123 0.294 -4.2 -0.107 -2.435 -0.08 -3.558 0.107 -3.558s0.134 -0.455 -0.16 -1.204c-0.535 -1.444 -2.809 -3.879 -4.949 -5.297 -1.631 -1.097 -2.167 -1.712 -2.435 -2.916l-0.16 -0.722 1.739 0.802c3.8 1.712 8.134 2.007 11.933 0.802 4.361 -1.391 8.079 -5.886 9.203 -11.157 0.535 -2.461 0.508 -3.638 -0.134 -6.099 -0.669 -2.675 -1.793 -4.762 -3.532 -6.582 -0.856 -0.883 -1.391 -1.631 -1.338 -1.927 0.054 -0.268 -0.16 -1.257 -0.481 -2.167 -0.508 -1.444 -0.562 -1.98 -0.401 -4.2 0.107 -1.444 0.348 -2.756 0.562 -3.077 0.214 -0.294 0.375 -0.722 0.375 -0.963 0 -0.562 1.631 -2.22 2.649 -2.675 0.455 -0.214 0.83 -0.481 0.83 -0.615s0.08 -0.16 0.187 -0.08c0.08 0.107 0.027 0.455 -0.134 0.802zM125.288 94.414c1.846 2.382 2.809 2.703 5.993 2.033l0.856 -0.187 -0.802 1.552c-0.455 0.83 -0.883 2.167 -0.989 2.943 -0.16 1.257 -0.294 1.472 -1.578 2.488 -0.776 0.589 -1.686 1.606 -2.06 2.22 -2.033 3.532 -1.418 11.664 1.284 16.989 0.856 1.712 0.91 3.158 0.16 3.558 -0.562 0.294 -0.802 -0.027 -1.231 -1.765 -0.107 -0.375 -0.241 -0.615 -0.294 -0.535 -0.08 0.08 0.08 0.749 0.321 1.525 0.589 1.739 0.401 2.488 -1.631 6.367 -1.123 2.194 -1.365 2.862 -1.151 3.264 0.268 0.535 -0.08 1.578 -0.562 1.578 -0.16 0 -0.268 -0.241 -0.268 -0.535 0 -0.802 -0.615 -0.642 -1.899 0.508 -1.07 0.963 -1.151 1.097 -0.83 1.631 0.187 0.294 0.268 0.669 0.187 0.802 -0.241 0.401 -1.123 0.321 -1.31 -0.134 -0.241 -0.642 -0.589 -0.481 -1.472 0.722 -0.642 0.856 -0.749 1.204 -0.508 1.472 0.348 0.428 0.294 0.481 -0.535 0.722 -0.401 0.134 -0.642 0.08 -0.749 -0.214 -0.214 -0.535 -1.017 -0.562 -1.444 -0.027 -0.187 0.214 -0.802 0.535 -1.391 0.696 -0.776 0.187 -1.017 0.375 -0.91 0.696 0.562 1.418 0.508 1.631 -0.535 1.952 -0.856 0.294 -1.017 0.268 -1.231 -0.08 -0.214 -0.401 -0.348 -0.401 -1.365 0.08 -0.615 0.268 -1.444 0.562 -1.846 0.669 -0.508 0.107 -0.749 0.321 -0.749 0.669 0 0.535 -0.883 1.07 -1.765 1.07 -0.187 0 -0.989 -0.856 -1.739 -1.873 -1.231 -1.686 -1.444 -1.873 -2.274 -1.873 -0.508 0 -1.338 0.187 -1.846 0.375 -1.097 0.481 -1.177 1.017 -0.401 2.622 0.722 1.472 0.696 1.552 -0.401 1.552 -0.83 0 -0.936 -0.08 -0.936 -0.669 0 -0.642 -0.08 -0.696 -1.123 -0.615 -0.642 0.027 -1.418 -0.027 -1.739 -0.16 -0.508 -0.16 -0.615 -0.107 -0.615 0.375 0 0.562 0.027 0.562 -2.14 0 -0.401 -0.107 -0.696 -0.401 -0.749 -0.722 -0.054 -0.375 -0.401 -0.696 -0.91 -0.856 -1.044 -0.375 -2.354 -0.375 -2.354 -0.027 0 0.187 -0.16 0.187 -0.535 0 -0.348 -0.187 -0.535 -0.562 -0.535 -1.097 0 -1.231 -0.455 -1.846 -1.952 -2.515 -1.418 -0.669 -1.793 -0.669 -1.793 0.054 0 0.348 -0.214 0.241 -0.802 -0.321 -1.338 -1.284 -2.407 -3.13 -2.22 -3.853 0.134 -0.481 -0.134 -0.883 -1.284 -2.06 -0.776 -0.802 -1.525 -1.444 -1.606 -1.444 -0.107 0 -0.241 0.268 -0.294 0.589 -0.08 0.562 -0.187 0.508 -1.391 -0.642 -1.284 -1.231 -1.31 -1.284 -1.151 -2.541 0.401 -3.05 0.508 -8.589 0.187 -10.782 -0.16 -1.257 -0.348 -2.569 -0.375 -2.943 -0.054 -0.375 -0.455 -1.686 -0.883 -2.943 -0.669 -1.873 -1.444 -4.976 -0.963 -3.8 0.054 0.16 0.214 0.268 0.348 0.187 0.268 -0.16 0.722 1.017 0.91 2.354 0.134 1.097 1.712 4.735 2.06 4.735 0.107 0 -0.027 -0.615 -0.321 -1.338 -0.268 -0.749 -0.508 -1.765 -0.508 -2.274v-0.963l0.749 0.401c0.401 0.214 1.444 0.589 2.328 0.83s1.793 0.508 2.007 0.589 0.856 0.187 1.418 0.214c0.722 0.054 1.31 0.348 2.06 1.044 0.589 0.535 0.989 0.963 0.883 0.963 -0.08 0 -0.91 -0.428 -1.82 -0.936 -1.204 -0.669 -1.659 -0.802 -1.659 -0.535 0 0.214 0.187 0.401 0.428 0.401 0.321 0 0.321 0.08 0.08 0.321 -0.562 0.562 -0.375 2.06 0.348 2.756 0.696 0.722 1.097 0.802 2.114 0.401 0.428 -0.16 0.696 -0.455 0.696 -0.802 0 -0.83 0.401 -0.642 1.31 0.589 0.455 0.615 0.83 0.989 0.83 0.802s-0.428 -0.802 -0.963 -1.391c-1.097 -1.204 -1.044 -1.284 0.375 -0.562 0.963 0.481 1.659 0.481 1.659 0.027 0 -0.107 -0.214 -0.16 -0.455 -0.107 -0.348 0.107 -3.398 -1.82 -4.28 -2.649 -0.027 -0.027 2.14 -0.054 4.816 -0.054s5.404 -0.08 6.073 -0.214l1.204 -0.187 -0.989 0.936c-2.22 2.06 0.91 0.562 4.976 -2.407 1.498 -1.07 3.479 -2.407 4.414 -2.943 2.167 -1.284 2.728 -1.097 3.398 1.044 0.268 0.83 0.508 1.444 0.589 1.391 0.054 -0.08 -0.16 -1.017 -0.481 -2.086l-0.589 -1.98 1.391 -2.086c1.606 -2.407 2.675 -4.361 2.675 -4.869 0 -0.401 0.722 -1.177 1.123 -1.177 0.134 0 0 0.401 -0.294 0.91 -0.321 0.481 -0.562 1.044 -0.562 1.231 0 0.16 -0.241 0.615 -0.535 0.989 -0.428 0.535 -0.535 1.044 -0.508 2.461l0.054 1.765 0.187 -1.952c0.241 -2.086 0.83 -2.969 2.086 -2.996 1.525 -0.027 1.793 5.083 0.455 9.551 -0.455 1.498 -1.552 2.782 -2.862 3.317 -0.642 0.268 -0.749 0.455 -0.749 1.444 0 2.354 -2.649 8.855 -5.03 12.36 -1.739 2.569 -4.575 5.324 -6.261 6.099 -4.762 2.167 -8.213 1.365 -12.815 -2.996 -3.371 -3.211 -5.859 -7.117 -8.026 -12.574 -0.455 -1.151 -0.883 -2.14 -0.963 -2.22 -0.107 -0.08 -0.08 0.08 0 0.348 0.268 0.722 -0.294 0.268 -0.91 -0.722 -0.268 -0.455 -0.508 -0.722 -0.508 -0.615 0 0.428 0.83 1.765 1.284 2.114 0.294 0.187 0.669 0.83 0.856 1.418 0.401 1.231 2.435 5.378 3.371 6.849 0.348 0.562 0.562 1.204 0.481 1.418 -0.16 0.401 -0.989 0.776 -2.382 1.097l-0.802 0.187 0.669 0.268c0.615 0.241 2.435 0.321 3.504 0.134 0.241 -0.027 1.338 0.83 2.461 1.873 1.899 1.793 2.033 1.98 1.793 2.649 -0.16 0.375 -0.615 0.83 -1.07 0.989s-0.802 0.428 -0.802 0.562c0 0.428 2.515 -0.08 3.05 -0.615 0.508 -0.508 0.535 -0.508 1.873 0.241 0.749 0.428 1.873 0.856 2.515 0.963 1.044 0.16 1.123 0.241 1.123 1.044 0 0.936 -1.257 3.024 -2.328 3.879 -0.615 0.481 -0.642 0.535 -0.16 0.535 1.365 0 4.066 -2.782 4.334 -4.468 0.16 -0.91 0.241 -0.989 1.82 -1.418 0.936 -0.241 2.167 -0.802 2.756 -1.204 2.274 -1.578 5.806 -5.886 7.384 -9.016 1.418 -2.809 2.782 -6.261 3.05 -7.785 0.16 -0.749 0.401 -1.444 0.562 -1.472 0.589 -0.214 1.899 -1.498 2.301 -2.301 1.231 -2.382 2.007 -8.079 1.444 -10.514 -0.321 -1.365 -1.231 -2.248 -1.873 -1.846 -0.428 0.268 -0.375 0.107 0.428 -1.418 0.749 -1.444 0.669 -2.007 -0.134 -1.284 -0.883 0.802 -1.123 0.562 -1.123 -1.231 0 -2.086 0.455 -2.515 1.899 -1.82 1.097 0.535 1.231 0.562 3.183 0.696 1.123 0.054 1.846 -0.08 3.077 -0.615 0.883 -0.375 1.739 -0.83 1.899 -1.044 0.16 -0.187 0.428 -0.348 0.589 -0.348 0.401 0 2.461 -2.622 2.461 -3.103 0 -0.696 0.455 -0.375 1.686 1.204zm61.534 -0.375c2.862 0.589 5.137 1.846 7.277 4.013 2.916 2.916 4.147 5.778 4.147 9.631 0 4.066 -1.498 7.571 -4.521 10.568 -2.649 2.595 -4.735 3.504 -8.589 3.692 -7.545 0.321 -13.323 -3.8 -15.116 -10.782 -1.204 -4.735 0.214 -9.578 3.879 -13.244 3.585 -3.585 8.026 -4.923 12.923 -3.879zm-49.414 15.624c0.562 0.428 1.418 1.151 1.846 1.631l0.802 0.883 -1.257 -0.963c-1.472 -1.097 -2.515 -1.391 -3.504 -1.017 -1.365 0.535 -1.631 2.836 -0.696 6.18 0.722 2.649 1.846 4.709 3.638 6.688 1.151 1.257 1.365 1.606 0.936 1.606 -1.151 0 -4.04 -3.719 -5.164 -6.662 -0.856 -2.274 -1.365 -5.083 -1.177 -6.367 0.375 -2.622 2.461 -3.532 4.575 -1.98zm-65.385 2.97 0.696 2.167 -0.936 -0.83c-0.508 -0.455 -1.284 -0.883 -1.712 -0.989l-0.776 -0.134 0.856 -1.177c0.455 -0.642 0.91 -1.177 1.017 -1.177 0.08 0 0.481 0.963 0.856 2.14zm66.671 0.589c1.552 1.525 2.407 3.345 2.728 5.806 0.187 1.525 -0.187 1.82 -1.123 0.802 -0.401 -0.428 -0.428 -0.589 -0.134 -0.776 0.989 -0.589 -0.696 -5.03 -2.194 -5.778 -1.82 -0.963 -2.007 1.418 -0.375 4.816 1.631 3.345 3.317 5.217 4.441 4.842 0.696 -0.214 0.883 -0.749 1.097 -2.809l0.16 -1.739 0.214 1.578c0.268 1.846 -0.134 3.532 -0.883 3.772 -1.231 0.375 -3.745 -1.365 -5.003 -3.504 -1.044 -1.765 -1.98 -4.762 -1.98 -6.341 0 -2.488 0.963 -2.703 3.05 -0.669zm-64.664 0.535c-0.08 0.214 -0.16 0.134 -0.16 -0.16 -0.027 -0.294 0.054 -0.455 0.134 -0.348 0.08 0.08 0.107 0.321 0.027 0.508zm22.554 1.418c0 0.16 -1.952 1.472 -2.22 1.472 -0.401 0 0.107 -0.562 0.989 -1.097 0.83 -0.508 1.231 -0.615 1.231 -0.375zm-29.509 6.796c-0.08 1.552 -0.348 3.611 -0.589 4.575 -0.562 2.114 -2.541 6.367 -3.317 7.062 -0.455 0.401 -0.321 0.027 0.481 -1.606 1.631 -3.211 2.461 -6.394 2.569 -9.792 0.054 -1.578 0.16 -3.13 0.268 -3.451 0.187 -0.562 0.214 -0.562 0.455 -0.107 0.16 0.268 0.214 1.631 0.134 3.317zm-2.435 3.745c-0.16 1.31 -0.91 3.666 -0.936 3.05 -0.027 -0.508 0.83 -4.361 0.989 -4.361 0.054 0 0.054 0.589 -0.054 1.31zm65.922 7.758c0.16 0.428 1.606 2.782 3.211 5.271 2.086 3.211 2.862 4.602 2.703 4.896 -0.134 0.241 -0.321 0.989 -0.401 1.686 -0.107 0.696 -0.294 1.338 -0.455 1.418 -0.134 0.107 -0.241 0.455 -0.241 0.83s-0.187 0.963 -0.428 1.31c-0.241 0.375 -0.375 0.669 -0.268 0.669 0.08 0 -0.214 0.615 -0.642 1.338 -0.428 0.749 -0.883 1.686 -0.963 2.086 -0.107 0.401 -0.481 1.123 -0.856 1.606 -1.044 1.391 -0.508 1.284 0.776 -0.16 0.642 -0.722 2.033 -2.916 3.05 -4.869 1.044 -1.952 2.007 -3.611 2.194 -3.666 0.294 -0.107 2.274 2.435 5.832 7.464l1.659 2.328 -0.268 1.952c-0.134 1.07 -0.348 2.06 -0.481 2.22 -0.134 0.134 -0.241 0.481 -0.241 0.802s-0.134 0.696 -0.294 0.856c-0.321 0.321 -1.044 1.606 -1.793 3.158 -0.294 0.589 -0.83 1.552 -1.231 2.114 -0.375 0.562 -0.696 1.257 -0.696 1.498 0 0.642 -3.103 3.504 -5.003 4.602 -3.05 1.793 -4.842 2.22 -5.859 1.418 -0.508 -0.401 -0.508 -0.428 0.107 -0.83 0.749 -0.562 0.749 -1.151 -0.054 -3.158 -0.375 -0.91 -0.91 -3.024 -1.231 -4.709s-0.642 -3.237 -0.696 -3.424c-0.08 -0.268 -0.428 -0.294 -1.284 -0.187l-1.151 0.187 -0.187 -1.231c-0.107 -0.696 -0.401 -1.444 -0.696 -1.712 -0.268 -0.241 -0.562 -0.989 -0.669 -1.659 -0.321 -1.98 -0.802 -2.649 -2.194 -3.024 -0.669 -0.16 -1.284 -0.455 -1.338 -0.642 -0.187 -0.481 -1.952 -0.428 -2.328 0.054 -0.241 0.321 -0.776 0.348 -2.782 0.214 -1.552 -0.107 -2.649 -0.294 -2.862 -0.535 -0.214 -0.187 -0.776 -0.348 -1.284 -0.348 -0.722 0 -0.963 0.134 -1.07 0.589 -0.134 0.508 -0.375 0.268 -1.525 -1.498 -0.749 -1.151 -1.338 -2.14 -1.284 -2.167 0.054 -0.054 0.535 -0.268 1.097 -0.508 0.883 -0.348 1.044 -0.348 1.177 -0.027 0.348 0.963 3.211 -0.214 2.943 -1.204 -0.107 -0.375 0.107 -0.589 0.91 -0.91 1.31 -0.535 1.552 -0.535 2.14 0 0.562 0.508 1.257 0.321 2.382 -0.589 0.669 -0.589 0.749 -0.749 0.508 -1.365 -0.268 -0.749 -0.16 -1.017 0.508 -1.044 0.268 0 0.963 -0.241 1.578 -0.508 0.856 -0.348 1.151 -0.642 1.204 -1.177 0.054 -0.455 0.802 -1.391 2.274 -2.809 2.114 -2.007 2.248 -2.086 2.703 -1.686 0.669 0.615 0.989 0.562 1.765 -0.268 0.615 -0.669 0.642 -0.776 0.294 -1.338 -0.214 -0.321 -0.401 -0.776 -0.401 -1.017 0 -0.455 1.391 -3.077 1.631 -3.077 0.107 0 0.321 0.348 0.508 0.776zm29.053 3.237c0.16 0.936 0.428 1.765 0.615 1.82 0.16 0.054 0.294 0.375 0.294 0.696s0.134 0.722 0.321 0.91c0.241 0.241 0.214 0.321 -0.107 0.321 -0.508 0 -0.856 1.765 -0.83 4.2 0.027 1.444 -0.027 1.686 -0.508 1.846 -1.952 0.615 -4.174 -6.528 -2.461 -7.946 0.214 -0.16 0.375 -0.428 0.375 -0.562s0.375 -0.696 0.802 -1.257c0.562 -0.696 0.749 -1.151 0.642 -1.498 -0.134 -0.321 -0.08 -0.428 0.187 -0.348 0.187 0.054 0.481 0.856 0.669 1.82zm10.728 -1.284c-0.08 0.214 -0.16 0.134 -0.16 -0.16 -0.027 -0.294 0.054 -0.455 0.134 -0.348 0.08 0.08 0.107 0.321 0.027 0.508zm-0.722 3.585c0 0.054 -0.187 0.107 -0.401 0.107s-0.401 -0.107 -0.401 -0.268c0 -0.134 0.187 -0.187 0.401 -0.107 0.214 0.107 0.401 0.214 0.401 0.268zm-88.288 5.912c0 0.615 -0.241 0.375 -0.83 -0.802l-0.562 -1.123 0.696 0.802c0.375 0.428 0.669 0.963 0.696 1.123zm-0.963 -0.214c0.642 1.231 3.317 5.351 4.682 7.17l0.642 0.856 -0.722 0.83c-0.375 0.455 -0.749 1.097 -0.83 1.418 -1.418 6.608 -1.686 8.909 -1.204 10.247 0.241 0.562 0.214 0.83 -0.107 1.123 -0.348 0.348 -0.589 0.348 -1.444 0.107 -1.284 -0.401 -2.916 -0.428 -3.13 -0.054 -0.294 0.481 -1.659 -0.481 -2.14 -1.498 -0.508 -1.07 -0.562 -0.696 1.07 -6.314 0.268 -0.936 0.294 -1.498 0.08 -2.274l-0.268 -1.017 -0.455 1.739c-0.455 1.765 -1.31 3.211 -4.04 6.635 -0.722 0.91 -1.444 2.167 -1.631 2.782 -0.481 1.82 -0.214 6.528 0.455 7.866l0.535 1.097 -1.097 0.802c-0.589 0.455 -1.418 0.989 -1.82 1.177 -0.669 0.294 -0.802 0.268 -1.31 -0.241 -0.562 -0.562 -0.562 -0.562 -0.08 -1.659 0.268 -0.589 0.401 -1.151 0.321 -1.257 -0.107 -0.08 -0.187 0.054 -0.187 0.294 0 0.268 -1.31 1.765 -2.943 3.345 -2.114 2.06 -2.943 3.05 -2.943 3.532 -0.027 0.615 -1.765 2.22 -3.424 3.13 -0.722 0.428 -0.776 0.535 0.642 -1.686 1.204 -1.899 4.923 -9.444 6.127 -12.44 0.562 -1.391 1.284 -2.89 1.578 -3.317 0.268 -0.428 0.535 -1.151 0.535 -1.606 0.027 -0.562 0.375 -1.257 1.044 -2.033 1.927 -2.328 6.341 -10.006 8.106 -14.099 0.642 -1.525 1.578 -3.371 2.114 -4.12 0.508 -0.749 0.936 -1.472 0.936 -1.606 0 -0.508 0.294 -0.187 0.91 1.07zm87.913 0.187c0 0.214 -0.107 0.375 -0.268 0.375 -0.134 0 -0.268 -0.241 -0.268 -0.562 0 -0.294 0.134 -0.455 0.268 -0.375 0.16 0.08 0.268 0.348 0.268 0.562zm-18.46 16.721a171.209 171.209 0 0 0 1.739 4.629c0.989 2.407 0.83 2.943 -0.615 2.114 -0.749 -0.428 -0.802 -0.562 -0.91 -2.622 -0.08 -1.686 -0.268 -2.435 -0.856 -3.504 -0.722 -1.338 -1.82 -2.248 -2.703 -2.248 -0.294 0 -0.401 -0.16 -0.294 -0.481 0.08 -0.241 0.214 -0.83 0.321 -1.257 0.294 -1.257 0.348 -1.257 1.418 -0.134 0.722 0.776 1.284 1.793 1.899 3.504zm-73.305 -2.167a0.268 0.268 0 0 1 -0.268 0.268 0.289 0.289 0 0 1 -0.268 -0.268c0 -0.16 0.134 -0.268 0.268 -0.268 0.16 0 0.268 0.107 0.268 0.268zm-7.625 1.578c-0.08 0.16 -0.401 0.428 -0.696 0.562 -0.401 0.214 -0.508 0.187 -0.508 -0.107 0 -0.241 0.16 -0.348 0.375 -0.268 0.187 0.08 0.428 -0.08 0.535 -0.321s0.241 -0.375 0.321 -0.294 0.08 0.268 -0.027 0.428zm78.737 1.07c0.16 0.375 0.375 1.712 0.455 2.969 0.187 2.488 0.589 3.424 1.765 4.12 0.428 0.268 1.338 0.936 2.007 1.525 0.669 0.562 1.365 1.044 1.552 1.044 0.455 0 3.371 7.438 3.371 8.614 0 0.294 -0.455 0.268 -1.739 -0.107l-1.07 -0.294 0.883 -0.348c0.455 -0.214 0.856 -0.428 0.856 -0.481s-0.802 -0.562 -1.793 -1.097c-1.686 -0.936 -1.873 -0.963 -2.728 -0.669s-0.936 0.294 -1.525 -0.428c-0.508 -0.669 -0.562 -0.83 -0.214 -1.07 0.187 -0.16 0.375 -0.375 0.375 -0.455s-0.91 -0.642 -2.007 -1.257c-1.873 -1.044 -2.033 -1.07 -2.595 -0.696 -0.856 0.615 -1.231 0.535 -2.194 -0.481 -1.097 -1.177 -2.382 -1.444 -4.308 -0.91l-1.418 0.401 2.114 -1.98c2.274 -2.167 3.879 -4.387 5.458 -7.598 0.989 -1.98 1.044 -2.033 1.739 -1.765 0.375 0.16 0.856 0.589 1.017 0.963zm-71.781 -0.589c-0.321 0.802 -0.481 2.407 -0.321 3.077 0.107 0.348 0.535 1.017 0.989 1.472 0.963 0.989 1.07 0.615 -1.391 4.682 -0.856 1.444 -1.552 2.836 -1.552 3.158 0 0.294 -0.187 0.535 -0.401 0.535s-0.401 -0.16 -0.401 -0.375 -0.187 -0.428 -0.401 -0.535c-0.214 -0.08 -0.321 -0.294 -0.241 -0.508 0.187 -0.508 -0.375 -1.873 -0.696 -1.659 -0.16 0.107 -0.187 -0.054 -0.054 -0.455 0.134 -0.348 0.268 -1.257 0.294 -2.06 0.054 -1.017 0.268 -1.739 0.722 -2.407 0.348 -0.535 0.642 -1.204 0.642 -1.498 0 -0.321 0.348 -0.83 0.776 -1.151 0.428 -0.294 0.856 -0.883 0.963 -1.31 0.214 -0.856 0.615 -1.418 0.989 -1.418 0.16 0 0.187 0.214 0.08 0.455zm41.549 1.151c2.301 1.044 3.8 3.532 3.8 6.367 0 2.007 -0.428 3.103 -1.765 4.575 -1.525 1.712 -3.103 2.541 -4.414 2.328 -3.611 -0.589 -6.875 -4.28 -6.287 -7.17 0.268 -1.338 1.365 -2.782 2.703 -3.585 1.044 -0.615 1.444 -0.696 2.809 -0.589 1.873 0.134 3.237 1.044 4.093 2.728 1.07 2.033 0.562 4.174 -1.231 5.244 -1.097 0.669 -2.14 0.669 -3.558 0 -2.649 -1.284 -2.89 -3.853 -0.508 -5.003 1.097 -0.535 1.98 -0.241 2.703 0.856 0.401 0.615 0.401 0.722 0 1.338 -0.481 0.749 -1.257 0.856 -1.765 0.268 -0.268 -0.321 -0.268 -0.481 0 -0.802s0.268 -0.401 -0.08 -0.401c-0.428 0 -0.989 0.749 -0.989 1.338 0 0.16 0.294 0.589 0.669 0.936 1.338 1.365 3.933 0.401 4.308 -1.606 0.241 -1.31 -0.696 -3.158 -1.873 -3.719 -3.183 -1.525 -7.062 1.631 -6.073 4.923 0.428 1.472 1.498 2.649 3.103 3.371 1.578 0.749 2.461 0.802 3.8 0.241 2.086 -0.883 3.024 -2.461 3.024 -5.217 0 -2.194 -0.615 -3.585 -2.167 -4.896 -1.98 -1.712 -4.066 -1.899 -6.608 -0.615 -2.649 1.365 -4.308 3.933 -4.334 6.662 0 1.739 0.428 2.782 1.712 4.174l0.83 0.91 -0.883 -0.615c-2.114 -1.444 -3.345 -4.414 -2.756 -6.608 0.455 -1.659 1.873 -3.585 3.29 -4.468 2.435 -1.472 6.341 -1.927 8.455 -0.963zm-49.922 1.123c-0.187 0.187 -0.321 0.214 -0.321 0.054 0 -0.375 0.321 -0.696 0.508 -0.508 0.054 0.08 -0.027 0.294 -0.187 0.455zM191.049 202.178c0.348 0.401 0.321 0.401 -0.214 0.107 -0.642 -0.321 -0.776 -0.562 -0.375 -0.562 0.134 0 0.401 0.187 0.589 0.455zm-10.728 6.42c0.856 0.722 2.033 1.525 2.595 1.793 1.82 0.936 5.538 3.183 6.18 3.745 0.348 0.321 0.936 1.097 1.31 1.765 1.793 3.13 2.595 3.879 3.424 3.211 0.214 -0.187 0.401 -0.722 0.401 -1.231 0 -0.615 0.16 -0.989 0.535 -1.177 1.017 -0.562 1.231 -1.338 1.578 -5.886 0.107 -1.391 0.214 -2.382 0.241 -2.194s0.83 2.114 1.82 4.28a535.133 535.133 0 0 1 2.435 5.538c1.31 3.103 2.89 6.42 3.211 6.849 0.348 0.428 1.204 1.952 2.407 4.308 0.348 0.722 0.749 1.284 0.883 1.284 0.16 0 0.268 0.294 0.268 0.642 0 1.123 0.268 1.525 0.802 1.231 0.856 -0.455 1.123 0.535 0.375 1.365 -0.241 0.268 -0.428 0.776 -0.428 1.151 0 0.722 -0.508 1.044 -1.151 0.802 -0.214 -0.107 -0.669 0 -1.017 0.214 -0.722 0.481 -4.842 2.301 -5.94 2.649l-0.802 0.241 0.669 -0.535 0.669 -0.508 -1.177 0.16c-2.407 0.321 -5.244 1.044 -5.19 1.338 0.027 0.16 -0.508 0.481 -1.204 0.749 -0.696 0.241 -1.686 0.722 -2.194 1.07 -0.508 0.321 -1.365 0.669 -1.899 0.776 -0.856 0.16 -1.097 0.08 -1.793 -0.615 -0.428 -0.455 -0.749 -0.856 -0.696 -0.91 0.134 -0.134 -0.562 -2.569 -1.044 -3.745 -0.268 -0.615 -0.562 -0.963 -0.749 -0.856 -0.16 0.134 -0.241 0 -0.187 -0.321 0.027 -0.268 -0.134 -0.856 -0.428 -1.257 -0.268 -0.428 -0.481 -1.177 -0.481 -1.659 0 -0.508 -0.107 -0.91 -0.268 -0.91 -0.134 0 -0.16 -0.241 -0.08 -0.562 0.134 -0.375 0 -0.722 -0.375 -1.07 -0.294 -0.268 -0.669 -1.017 -0.83 -1.659a81.823 81.823 0 0 0 -0.963 -3.264c-0.856 -2.756 -1.846 -7.25 -2.435 -10.969 -0.348 -2.14 -0.508 -2.675 -0.562 -1.927l-0.08 1.044 -0.642 -0.696c-0.508 -0.562 -0.642 -1.017 -0.696 -2.435 -0.054 -1.498 0.027 -1.82 0.562 -2.407 0.348 -0.375 0.802 -0.669 0.989 -0.669 0.214 0 1.097 0.562 1.952 1.257zm11.13 0.722c0.08 0.214 0.107 0.589 0.054 0.802 -0.054 0.348 -0.294 0.268 -1.284 -0.375l-1.204 -0.802h1.151c0.749 0 1.204 0.134 1.284 0.375zm4.308 3.29c-0.08 0.268 -0.134 0.054 -0.134 -0.455s0.054 -0.722 0.134 -0.481a2.756 2.756 0 0 1 0 0.936zm-19.102 2.89c-0.08 0.241 -0.214 0.375 -0.268 0.294 -0.08 -0.08 -0.054 -0.241 0.054 -0.401 0.241 -0.428 0.401 -0.348 0.214 0.107zm-134.653 3.184c0 0.481 -0.989 1.31 -1.578 1.365 -0.669 0.054 -0.428 -0.802 0.428 -1.472 0.696 -0.535 1.151 -0.508 1.151 0.107zm166.918 19.691c0.455 0.749 0.83 1.472 0.83 1.631 0 0.134 0.187 0.535 0.401 0.883 0.401 0.615 0.375 0.642 -1.391 1.578 -1.017 0.508 -2.569 1.257 -3.479 1.631 -1.846 0.776 -5.244 1.365 -5.859 1.017 -0.214 -0.107 -0.615 -0.642 -0.883 -1.151s-0.936 -1.151 -1.525 -1.472c-0.615 -0.321 -1.07 -0.776 -1.123 -1.123 -0.054 -0.321 -0.321 -0.589 -0.669 -0.669 -0.428 -0.054 -0.268 -0.134 0.481 -0.294 3.211 -0.589 6.233 -1.365 8.963 -2.301 1.686 -0.589 3.158 -1.07 3.264 -1.07 0.08 0 0.535 0.615 0.989 1.338zm-178.877 6.769c0.83 0.375 1.525 0.83 1.525 0.989 0 0.508 -1.899 2.675 -3.317 3.8 -1.284 1.017 -1.338 1.044 -2.943 0.856 -0.883 -0.08 -2.328 -0.401 -3.211 -0.696 -1.739 -0.562 -6.716 -2.996 -6.956 -3.398 -0.107 -0.134 0.027 -0.696 0.294 -1.204 0.428 -0.91 0.508 -0.963 1.391 -0.776 1.231 0.268 5.244 0.16 6.448 -0.187 1.765 -0.455 5.056 -0.187 6.769 0.615zm185.592 5.002c0 0.134 -0.187 0.187 -0.401 0.107 -0.214 -0.107 -0.401 -0.214 -0.401 -0.268s0.187 -0.107 0.401 -0.107 0.401 0.107 0.401 0.268z"/><![CDATA[
    &apos;,
    &apos;
    ]]><path d="M98.963 101.933c-1.578 0.91 -9.23 2.167 -14.955 2.407l-4.682 0.214 5.217 -0.08c3.692 -0.054 6.127 -0.241 8.293 -0.642 3.479 -0.615 6.688 -1.525 6.688 -1.899 0 -0.321 -0.027 -0.321 -0.562 0zm-0.241 1.472c0 0.241 0.134 0.401 0.294 0.348s0.294 -0.214 0.294 -0.348 -0.134 -0.294 -0.294 -0.348 -0.294 0.107 -0.294 0.348zm-21.403 2.541a0.289 0.289 0 0 0 0.268 0.268 0.269 0.269 0 0 0 0.268 -0.268c0 -0.16 -0.107 -0.268 -0.268 -0.268a0.268 0.268 0 0 0 -0.268 0.268zm13.831 0.348c-0.375 0.562 -0.562 0.615 -1.846 0.508 -1.257 -0.107 -1.552 -0.027 -2.167 0.508 -0.776 0.696 -2.649 4.28 -2.354 4.575 0.08 0.08 0.91 0.321 1.793 0.508 2.167 0.428 3.479 0 4.227 -1.391 0.455 -0.856 0.481 -1.07 0.187 -1.82 -0.83 -1.927 -3.906 -1.097 -3.398 0.936 0.241 0.91 1.391 1.151 2.114 0.428 0.294 -0.321 0.481 -0.669 0.375 -0.776 -0.107 -0.08 -0.348 -0.027 -0.508 0.134 -0.187 0.187 -0.535 0.321 -0.802 0.321 -0.749 0 -0.615 -1.017 0.187 -1.391 1.444 -0.642 2.086 1.391 0.776 2.435 -0.936 0.722 -1.739 0.722 -2.461 -0.054 -0.83 -0.883 -0.802 -2.407 0.107 -3.29 0.669 -0.696 0.776 -0.722 2.862 -0.321 0.562 0.08 1.98 -1.498 1.578 -1.765 -0.16 -0.08 -0.455 0.134 -0.669 0.455zm8.427 -0.054c0.054 0.16 0.214 0.268 0.348 0.268s0.294 -0.107 0.348 -0.268 -0.107 -0.294 -0.348 -0.294 -0.401 0.134 -0.348 0.294zm-23.571 0.241c-0.027 0.696 1.31 5.378 1.739 6.154 0.455 0.749 1.659 1.606 2.301 1.606 0.187 0 -0.054 -0.214 -0.562 -0.481 -1.365 -0.669 -1.82 -1.472 -2.675 -4.735 -0.428 -1.631 -0.802 -2.756 -0.802 -2.541zm2.114 2.675a0.289 0.289 0 0 0 0.268 0.268 0.269 0.269 0 0 0 0.268 -0.268c0 -0.16 -0.107 -0.268 -0.268 -0.268a0.268 0.268 0 0 0 -0.268 0.268zm22.071 0.294c-0.268 0.401 0.08 0.669 0.428 0.321 0.187 -0.187 0.187 -0.348 0.027 -0.455 -0.16 -0.08 -0.375 -0.027 -0.455 0.134z"/><![CDATA[
    &apos;,
    &apos;
    ]]><path d="M79.192 112.634a0.289 0.289 0 0 0 0.268 0.268 0.269 0.269 0 0 0 0.268 -0.268c0 -0.16 -0.107 -0.268 -0.268 -0.268a0.268 0.268 0 0 0 -0.268 0.268zm1.686 1.793c0.241 0.054 0.615 0.054 0.802 0 0.16 -0.08 -0.027 -0.134 -0.481 -0.134 -0.428 0 -0.589 0.054 -0.321 0.134zm3.345 0.268c0.91 0.054 2.354 0.054 3.211 0 0.83 -0.054 0.08 -0.08 -1.686 -0.08s-2.461 0.027 -1.525 0.08zm4.387 39.97a0.765 0.765 0 0 0 0.455 0.455c0.214 0.08 0.321 -0.027 0.241 -0.241a0.765 0.765 0 0 0 -0.455 -0.455c-0.214 -0.08 -0.321 0.027 -0.241 0.241zm32.185 20.761c-1.606 1.846 -3.451 2.622 -6.207 2.595 -2.22 0 -2.461 0.08 -1.927 0.615 0.16 0.16 0.348 0.989 0.428 1.873 0.241 2.569 -0.856 4.174 -4.2 6.073l-1.204 0.696h1.231c1.793 0 4.495 -0.91 6.367 -2.167 2.248 -1.498 4.682 -4.254 5.778 -6.501 0.883 -1.846 1.498 -4.468 1.044 -4.414 -0.134 0 -0.722 0.562 -1.31 1.231zm-53.91 3.826c-0.294 0.187 -0.187 0.268 0.481 0.268 1.418 0 2.649 0.749 4.361 2.649 3.103 3.424 6.287 8.293 8.187 12.521 0.508 1.151 0.856 1.712 0.749 1.284 -0.696 -3.211 -4.575 -9.497 -8.748 -14.126 -2.248 -2.488 -3.879 -3.345 -5.03 -2.595zm-1.338 4.682c0 0.027 0.401 0.321 0.91 0.615 0.802 0.481 1.899 1.686 3.451 3.8 0.294 0.401 0.241 0.214 -0.134 -0.508 -0.856 -1.631 -2.488 -3.398 -3.424 -3.719 -0.428 -0.16 -0.802 -0.241 -0.802 -0.187zm45.75 3.987c0 0.294 0.562 1.044 1.231 1.686l1.231 1.151 -0.455 0.989c-0.589 1.204 -0.936 8.776 -0.455 9.605 0.241 0.401 0.268 0.214 0.16 -0.83 -0.241 -2.007 0.321 -7.972 0.802 -8.936 0.589 -1.151 0.562 -1.257 -0.669 -1.952 -0.642 -0.348 -1.284 -0.963 -1.472 -1.418 -0.268 -0.589 -0.348 -0.669 -0.375 -0.294zm-54.123 1.631c0.749 0.321 1.231 0.856 2.703 2.969 0.187 0.294 0 -0.134 -0.401 -0.91 -0.802 -1.606 -1.739 -2.461 -2.595 -2.461 -0.455 0.027 -0.375 0.107 0.294 0.401zm7.33 1.204c1.284 1.765 1.899 2.969 2.809 5.431 0.508 1.365 0.856 2.033 0.749 1.525 -0.401 -2.301 -2.515 -6.528 -3.745 -7.492 -0.375 -0.294 -0.321 -0.134 0.187 0.535zm8.508 2.943c1.365 2.622 2.167 5.297 2.407 8.213l0.214 2.354 0.054 -1.899c0.054 -3.103 -1.525 -8.134 -3.158 -10.006 -0.348 -0.428 -0.16 0.08 0.481 1.338zm7.813 3.638c0 0.294 0.08 0.375 0.16 0.16 0.08 -0.187 0.054 -0.428 -0.027 -0.508 -0.08 -0.107 -0.16 0.054 -0.134 0.348zm-49.255 0.107c0.535 0.348 1.793 0.348 2.007 0 0.107 -0.16 -0.321 -0.268 -1.123 -0.268 -0.936 0 -1.177 0.08 -0.883 0.268zm49.548 1.07c0 0.375 0.054 0.508 0.134 0.321 0.054 -0.16 0.054 -0.481 0 -0.669 -0.08 -0.16 -0.134 -0.027 -0.134 0.348zm0.294 2.407c0 0.963 0.054 1.338 0.107 0.856a9.466 9.466 0 0 0 0 -1.739c-0.054 -0.455 -0.107 -0.08 -0.107 0.883zm-17.524 -0.268c0.107 0.669 0.187 2.167 0.16 3.345 -0.027 1.873 0 2.007 0.214 1.07 0.294 -1.204 0.107 -3.933 -0.294 -4.949 -0.214 -0.535 -0.241 -0.401 -0.08 0.535zm5.19 3.638c-0.027 1.044 -0.241 2.488 -0.455 3.183 -0.455 1.578 -0.294 1.927 0.268 0.562 0.294 -0.722 0.401 -1.659 0.321 -3.317 -0.08 -2.301 -0.08 -2.301 -0.134 -0.428zm-38.205 5.886c-0.481 0.375 -0.481 0.401 0.107 0.107 0.321 -0.16 0.589 -0.348 0.589 -0.401 0 -0.214 -0.134 -0.16 -0.696 0.294zm11.611 -0.027c-0.08 0.08 -1.391 0.375 -2.916 0.669 -2.728 0.508 -5.217 1.284 -4.976 1.525 0.08 0.054 0.749 -0.107 1.498 -0.375 1.123 -0.375 1.472 -0.401 1.899 -0.134 0.696 0.428 0.936 0.401 0.562 -0.054 -0.241 -0.294 0 -0.428 1.338 -0.669a40.622 40.622 0 0 0 1.98 -0.455c0.241 -0.107 0.294 0.241 0.241 1.284 -0.08 1.472 0 1.338 0.294 -0.401 0.107 -0.696 0.348 -1.097 0.749 -1.257 0.562 -0.241 0.589 -0.241 0.027 -0.241 -0.294 -0.027 -0.615 0.027 -0.696 0.107zm-14.982 1.793c-0.348 0.348 -0.455 0.481 -0.214 0.321 0.214 -0.16 0.642 -0.428 0.936 -0.589s0.401 -0.321 0.214 -0.321 -0.589 0.268 -0.936 0.589zm-2.033 2.809c-0.481 0.669 -0.856 1.231 -0.802 1.284s0.481 -0.455 0.989 -1.097c0.508 -0.669 0.856 -1.231 0.802 -1.284s-0.508 0.455 -0.989 1.097zm16.721 -0.455c-0.107 0.508 -0.455 0.936 -0.989 1.204 -0.749 0.401 -1.873 2.114 -1.873 2.862 0.027 0.187 0.214 -0.08 0.428 -0.589s0.936 -1.444 1.578 -2.033c0.696 -0.642 1.204 -1.365 1.204 -1.686 0 -0.802 -0.187 -0.696 -0.348 0.241zm-17.791 2.809c0 0.428 0.054 0.589 0.134 0.321 0.054 -0.241 0.054 -0.615 0 -0.802 -0.08 -0.16 -0.134 0.027 -0.134 0.481z"/><![CDATA[
    &apos;,
  &apos;
  ]]></g><![CDATA[
  &apos;
]]></svg>